{"glyphs":{"0":{"ha":800,"x_min":31,"x_max":821,"o":"m 231 -4 q 176 0 204 -4 q 69 72 107 10 q 31 232 31 135 q 88 485 31 350 q 242 704 136 599 q 347 797 293 757 q 457 864 401 836 q 446 876 446 871 q 485 889 446 889 q 501 889 492 889 q 521 888 511 889 q 629 901 558 901 q 732 865 725 901 q 725 856 732 856 q 693 865 722 856 q 636 876 664 875 q 618 876 626 876 q 601 875 610 876 q 707 821 654 861 q 821 571 821 732 q 668 211 821 375 q 231 -4 464 -4 m 215 22 q 415 81 311 22 q 603 231 514 138 q 753 578 753 389 q 728 718 753 654 q 675 796 704 776 q 599 840 635 824 q 533 861 564 856 q 292 682 411 822 q 214 578 249 631 q 153 471 179 526 q 90 204 90 338 q 188 24 90 32 q 202 22 194 22 q 215 22 210 22 z "},"1":{"ha":581,"x_min":97,"x_max":614,"o":"m 125 -31 q 106 -19 115 -35 q 97 11 97 -4 q 104 25 97 22 q 160 48 128 35 q 236 76 193 61 q 337 348 276 185 q 478 729 397 511 q 289 629 397 674 q 281 628 286 628 q 269 643 269 628 q 279 656 269 651 q 514 825 365 692 l 519 839 q 574 864 528 864 q 614 844 614 864 q 611 838 614 840 l 293 85 q 390 99 339 94 q 496 104 440 104 q 510 90 510 104 q 496 76 510 76 q 304 43 403 76 q 239 18 283 36 q 125 -31 194 0 z "},"2":{"ha":900,"x_min":-19,"x_max":910,"o":"m 711 -54 q 590 -37 660 -54 q 433 10 521 -21 q 286 58 344 42 q 200 74 228 74 q 77 23 124 40 q 14 6 31 6 q -19 31 -19 6 q 1 72 -19 50 q 50 103 22 94 q 160 115 92 115 q 183 115 171 115 q 207 114 194 115 q 455 272 354 204 q 610 385 556 340 q 687 455 654 422 q 739 515 719 488 q 804 681 796 590 q 699 781 813 781 q 481 722 608 781 q 286 597 350 664 q 276 593 281 593 q 264 608 264 593 q 271 619 267 617 q 518 774 369 707 q 775 840 668 840 q 910 733 910 840 q 801 513 910 635 q 731 443 775 483 q 625 350 686 403 q 459 231 557 293 q 233 99 361 168 q 326 82 268 96 q 467 40 385 68 q 714 -10 619 -10 q 828 18 785 -10 q 872 85 872 46 q 775 176 872 142 q 767 185 767 179 q 786 190 767 197 q 908 79 908 157 q 850 -17 908 24 q 711 -54 792 -54 z "},"3":{"ha":932,"x_min":22,"x_max":938,"o":"m 358 -14 q 122 33 213 -14 q 22 176 22 86 q 35 242 22 207 q 151 347 57 303 q 296 383 232 383 q 310 375 310 383 q 296 365 310 365 q 188 324 250 365 q 111 224 118 276 q 110 213 110 218 q 110 201 110 207 q 271 28 110 72 q 394 11 332 11 q 617 61 504 11 q 854 335 815 151 q 856 350 856 342 q 857 365 857 358 q 786 465 857 432 q 636 493 726 493 q 503 472 553 493 q 478 467 490 467 q 453 492 453 467 q 485 525 453 525 q 701 565 604 525 q 826 718 826 618 q 729 801 826 801 q 568 764 663 801 q 426 688 481 728 q 419 685 421 685 q 408 708 408 685 q 425 743 408 738 q 515 818 461 754 q 525 824 519 824 q 532 815 532 824 q 508 779 532 811 q 757 850 657 850 q 907 726 890 850 q 908 718 908 722 q 908 711 908 714 q 679 528 908 597 q 856 479 788 519 q 931 342 938 432 q 732 75 918 178 q 358 -14 568 -14 z "},"4":{"ha":913,"x_min":46,"x_max":947,"o":"m 551 -24 q 539 -18 544 -24 q 513 56 513 18 q 520 195 513 129 q 544 321 528 261 q 351 351 428 351 q 193 318 296 351 q 82 285 89 285 q 57 299 68 285 q 46 331 46 314 q 69 364 46 358 q 105 374 85 369 q 147 383 125 378 q 807 842 558 610 l 817 860 q 839 867 821 867 q 873 859 857 867 q 885 843 889 851 l 740 596 q 607 342 656 450 q 707 316 661 325 q 788 307 753 307 q 858 330 826 307 q 890 393 890 353 q 885 426 890 407 q 879 450 879 444 q 886 457 879 457 q 906 444 897 457 q 947 353 947 390 q 788 278 947 278 q 701 286 750 278 q 592 308 653 294 q 553 183 567 246 q 540 56 540 119 q 563 0 540 31 q 565 -10 565 -6 q 551 -24 565 -24 m 556 360 q 612 497 575 421 q 704 667 649 574 l 743 732 q 229 394 579 596 q 290 400 261 397 q 346 403 319 403 q 437 392 385 403 q 556 360 489 381 z "},"5":{"ha":906,"x_min":3,"x_max":1017,"o":"m 360 772 q 348 784 353 767 q 343 821 343 801 q 349 846 343 840 q 418 875 376 869 q 443 876 425 876 q 489 876 461 876 q 689 839 563 876 q 888 803 821 803 q 949 821 917 803 q 986 881 992 843 l 986 886 q 997 899 986 899 q 1007 890 1003 899 q 1017 854 1017 872 q 963 790 1017 814 q 885 775 921 775 q 801 779 850 775 q 690 793 753 783 q 581 807 629 803 q 496 811 532 811 q 360 772 403 811 m 256 -12 q 162 -2 204 -12 q 83 26 119 8 q 3 144 3 69 q 67 281 3 208 q 89 294 79 294 q 97 286 97 294 q 88 265 97 275 q 51 182 51 222 q 129 69 51 118 q 296 24 203 24 q 610 144 463 24 q 771 432 771 272 q 674 558 771 519 q 539 585 611 585 q 340 540 422 585 q 283 506 313 522 q 225 472 254 489 q 217 471 222 471 q 206 489 206 471 q 218 511 206 506 l 346 721 q 406 735 356 735 q 428 726 435 735 l 289 539 q 543 615 464 615 q 864 446 864 615 q 663 118 864 256 q 256 -12 471 -12 z "},"6":{"ha":850,"x_min":44,"x_max":890,"o":"m 300 -26 q 106 33 171 -26 q 44 182 44 88 q 129 421 44 297 q 363 642 219 553 q 547 745 464 703 q 696 810 631 788 q 649 829 649 819 q 663 840 649 844 q 732 832 699 832 q 800 842 769 832 q 813 844 807 843 q 825 844 819 844 q 872 828 853 844 q 890 796 890 813 q 881 783 890 785 q 659 717 778 763 q 408 599 540 671 q 179 397 268 521 q 89 167 89 274 q 290 4 89 4 q 529 49 388 4 q 660 131 611 76 q 704 231 704 182 q 626 297 704 297 q 433 238 526 297 q 326 64 326 168 q 311 42 326 42 q 299 61 299 42 q 410 268 299 186 q 635 339 513 339 q 742 307 701 339 q 779 229 779 278 q 729 117 779 174 q 579 26 675 58 q 300 -26 417 -26 z "},"7":{"ha":658,"x_min":72,"x_max":857,"o":"m 239 -21 q 217 -7 222 -21 q 206 61 206 26 q 331 379 206 203 q 711 808 490 604 q 644 818 678 814 q 578 826 611 822 q 487 837 531 833 q 403 840 443 840 q 226 814 281 840 q 138 686 151 779 q 107 660 133 660 q 74 694 72 660 l 75 703 l 75 711 q 83 736 79 724 q 90 763 88 749 q 97 811 101 800 q 93 832 93 822 q 97 850 93 850 q 107 838 101 850 q 115 801 113 821 q 365 894 192 894 q 444 888 397 894 q 554 867 492 881 q 673 842 628 851 q 736 832 718 833 l 799 886 q 804 888 800 888 q 836 868 817 888 q 857 839 857 850 q 856 833 857 835 q 592 596 713 714 q 375 361 472 478 q 288 219 328 303 q 242 47 242 119 q 250 -8 242 15 q 251 -10 250 -10 q 251 -12 251 -11 q 239 -21 251 -21 z "},"8":{"ha":781,"x_min":-14,"x_max":864,"o":"m 179 -25 q 32 19 78 -25 q -14 125 -14 63 q 40 271 -14 196 q 369 558 168 444 q 260 672 260 617 q 375 824 260 763 q 569 875 469 875 q 694 849 643 875 q 742 779 742 824 q 722 719 742 750 q 778 739 749 729 q 842 760 808 749 q 850 761 844 761 q 864 743 864 761 q 831 714 864 721 q 478 578 665 676 q 538 551 501 568 q 622 511 574 535 q 751 342 751 439 q 657 171 751 258 q 440 33 574 92 q 179 -25 310 -25 m 442 592 l 563 653 q 689 708 628 686 q 707 774 707 754 q 672 819 707 807 q 557 839 617 839 q 401 800 467 839 q 335 707 335 763 q 339 681 335 693 q 442 592 356 629 m 190 -6 q 399 47 278 -6 q 685 311 685 175 q 535 479 685 408 l 403 540 q 203 372 307 481 q 57 113 57 221 q 63 72 57 89 q 190 -6 88 -6 z "},"9":{"ha":611,"x_min":17,"x_max":722,"o":"m 268 -212 q 194 -139 210 -212 q 190 -106 192 -124 q 188 -71 188 -89 q 308 315 188 89 q 419 500 360 413 q 547 665 479 588 q 108 439 271 439 q 18 507 28 439 q 17 520 17 514 q 17 533 17 526 q 274 790 17 688 q 675 869 488 875 q 683 860 683 869 q 674 831 683 846 q 656 817 665 817 q 632 818 644 818 q 608 818 619 818 q 260 736 429 818 q 72 538 72 647 q 132 469 72 469 q 379 585 210 469 q 642 797 524 683 q 663 801 646 801 q 722 774 722 801 q 714 757 722 765 q 440 442 519 550 q 238 -54 238 164 q 247 -144 238 -101 q 278 -194 256 -186 q 289 -203 289 -199 q 268 -212 289 -212 z "},"\r":{"ha":242,"x_min":0,"x_max":0,"o":""}," ":{"ha":264,"x_min":0,"x_max":0,"o":""}," ":{"ha":264,"x_min":0,"x_max":0,"o":""},"A":{"ha":1468,"x_min":6,"x_max":1700,"o":"m 318 -165 q 173 -136 238 -165 q 68 -57 108 -107 q 6 136 6 21 q 36 285 6 218 q 239 528 97 426 q 513 628 379 628 q 653 586 596 628 q 710 467 710 544 q 681 362 710 413 q 610 294 653 311 q 604 297 607 294 q 603 300 601 299 q 646 370 626 333 q 665 451 665 407 q 640 527 665 494 q 574 578 614 560 q 493 597 535 597 q 379 571 436 597 q 265 501 322 544 q 99 256 143 406 q 78 126 78 189 q 160 -67 78 7 q 231 -112 193 -96 q 311 -128 268 -128 q 617 -26 451 -128 q 969 283 783 76 l 843 281 q 783 306 783 282 q 842 364 783 333 q 874 372 865 372 q 889 353 886 372 q 901 332 892 335 q 951 330 925 331 q 1008 329 978 329 q 1245 596 1139 489 q 1444 768 1351 703 q 1622 865 1536 833 q 1653 871 1635 871 q 1700 842 1700 871 q 1686 815 1700 829 q 1414 344 1500 618 q 1453 347 1435 346 q 1489 351 1472 349 q 1501 353 1496 353 q 1511 353 1506 353 q 1536 346 1536 353 q 1406 314 1536 324 q 1371 101 1371 200 q 1399 -6 1371 10 q 1404 -8 1401 -7 q 1410 -8 1407 -8 q 1435 5 1422 -8 q 1449 18 1449 18 q 1451 8 1451 15 q 1434 -44 1451 -19 q 1393 -69 1417 -69 q 1363 -57 1378 -69 q 1319 75 1319 -22 q 1319 98 1319 86 q 1321 121 1319 110 q 1331 208 1324 161 q 1351 311 1339 256 l 1015 288 q 647 -51 821 64 q 318 -165 474 -165 m 1053 329 q 1183 333 1106 331 q 1358 340 1260 336 q 1492 690 1424 565 q 1516 733 1503 713 q 1543 774 1529 754 q 1465 735 1508 763 q 1383 678 1422 708 q 1319 625 1344 647 q 1183 484 1247 560 q 1053 329 1118 408 z "},"Æ":{"ha":1657,"x_min":31,"x_max":1992,"o":"m 243 -99 q 96 -61 153 -99 q 31 71 31 -15 q 389 389 31 271 q 917 490 614 463 q 1286 801 1113 718 q 1760 889 1468 889 q 1881 885 1829 889 q 1964 874 1932 881 q 1992 849 1992 867 q 1951 829 1992 826 q 1833 843 1922 843 q 1542 801 1611 843 q 1274 522 1504 779 q 1289 517 1279 517 q 1347 518 1313 517 q 1429 522 1382 519 q 1512 527 1476 525 q 1571 529 1547 529 q 1689 518 1689 529 q 1638 497 1689 507 q 1564 488 1619 493 q 1417 478 1508 483 q 1201 433 1282 469 q 1094 283 1167 418 q 1022 110 1022 151 q 1176 10 1022 10 q 1579 121 1329 10 q 1651 154 1614 138 q 1726 188 1688 171 q 1718 175 1726 186 q 1451 19 1663 97 q 1143 -51 1258 -51 q 969 89 969 -51 q 1142 461 969 238 l 936 446 q 815 302 868 364 q 726 200 763 240 q 606 76 658 126 q 514 -3 553 25 q 243 -99 383 -99 m 969 489 q 1053 496 1001 492 q 1178 503 1106 500 l 1247 581 q 1324 670 1279 615 q 1431 796 1368 725 q 1413 814 1426 804 q 1171 681 1303 779 q 969 489 1047 588 m 221 -44 q 479 42 347 -44 q 585 122 529 74 q 696 235 640 169 l 879 446 q 399 347 603 415 q 64 75 64 242 q 115 -17 64 14 q 221 -44 158 -44 z "},"Ǽ":{"ha":1657,"x_min":31,"x_max":1992,"o":"m 243 -99 q 96 -61 153 -99 q 31 71 31 -15 q 389 389 31 271 q 917 490 614 463 q 1286 801 1113 718 q 1760 889 1468 889 q 1881 885 1829 889 q 1964 874 1932 881 q 1992 849 1992 867 q 1951 829 1992 826 q 1833 843 1922 843 q 1542 801 1611 843 q 1274 522 1504 779 q 1289 517 1279 517 q 1347 518 1313 517 q 1429 522 1382 519 q 1512 527 1476 525 q 1571 529 1547 529 q 1689 518 1689 529 q 1638 497 1689 507 q 1564 488 1619 493 q 1417 478 1508 483 q 1201 433 1282 469 q 1094 283 1167 418 q 1022 110 1022 151 q 1176 10 1022 10 q 1579 121 1329 10 q 1651 154 1614 138 q 1726 188 1688 171 q 1718 175 1726 186 q 1451 19 1663 97 q 1143 -51 1258 -51 q 969 89 969 -51 q 1142 461 969 238 l 936 446 q 815 302 868 364 q 726 200 763 240 q 606 76 658 126 q 514 -3 553 25 q 243 -99 383 -99 m 969 489 q 1053 496 1001 492 q 1178 503 1106 500 l 1247 581 q 1324 670 1279 615 q 1431 796 1368 725 q 1413 814 1426 804 q 1171 681 1303 779 q 969 489 1047 588 m 221 -44 q 479 42 347 -44 q 585 122 529 74 q 696 235 640 169 l 879 446 q 399 347 603 415 q 64 75 64 242 q 115 -17 64 14 q 221 -44 158 -44 m 1542 951 q 1538 954 1538 951 q 1561 979 1538 960 q 1628 1032 1594 1004 q 1676 1078 1661 1060 q 1688 1082 1683 1082 q 1704 1069 1696 1081 q 1713 1047 1713 1058 q 1707 1038 1711 1042 q 1638 993 1674 1015 q 1574 961 1601 971 q 1553 954 1561 957 q 1542 951 1544 951 z "},"Á":{"ha":1468,"x_min":6,"x_max":1779,"o":"m 318 -165 q 173 -136 238 -165 q 68 -57 108 -107 q 6 136 6 21 q 36 285 6 218 q 239 528 97 426 q 513 628 379 628 q 653 586 596 628 q 710 467 710 544 q 681 362 710 413 q 610 294 653 311 q 604 297 607 294 q 603 300 601 299 q 646 370 626 333 q 665 451 665 407 q 640 527 665 494 q 574 578 614 560 q 493 597 535 597 q 379 571 436 597 q 265 501 322 544 q 99 256 143 406 q 78 126 78 189 q 160 -67 78 7 q 231 -112 193 -96 q 311 -128 268 -128 q 617 -26 451 -128 q 969 283 783 76 l 843 281 q 783 306 783 282 q 842 364 783 333 q 874 372 865 372 q 889 353 886 372 q 901 332 892 335 q 951 330 925 331 q 1008 329 978 329 q 1245 596 1139 489 q 1444 768 1351 703 q 1622 865 1536 833 q 1653 871 1635 871 q 1700 842 1700 871 q 1686 815 1700 829 q 1414 344 1500 618 q 1453 347 1435 346 q 1489 351 1472 349 q 1501 353 1496 353 q 1511 353 1506 353 q 1536 346 1536 353 q 1406 314 1536 324 q 1371 101 1371 200 q 1399 -6 1371 10 q 1404 -8 1401 -7 q 1410 -8 1407 -8 q 1435 5 1422 -8 q 1449 18 1449 18 q 1451 8 1451 15 q 1434 -44 1451 -19 q 1393 -69 1417 -69 q 1363 -57 1378 -69 q 1319 75 1319 -22 q 1319 98 1319 86 q 1321 121 1319 110 q 1331 208 1324 161 q 1351 311 1339 256 l 1015 288 q 647 -51 821 64 q 318 -165 474 -165 m 1053 329 q 1183 333 1106 331 q 1358 340 1260 336 q 1492 690 1424 565 q 1516 733 1503 713 q 1543 774 1529 754 q 1465 735 1508 763 q 1383 678 1422 708 q 1319 625 1344 647 q 1183 484 1247 560 q 1053 329 1118 408 m 1608 944 q 1604 947 1604 944 q 1628 972 1604 953 q 1694 1025 1661 997 q 1743 1071 1728 1053 q 1754 1075 1750 1075 q 1771 1063 1763 1074 q 1779 1040 1779 1051 q 1774 1031 1778 1035 q 1704 986 1740 1008 q 1640 954 1668 964 q 1619 947 1628 950 q 1608 944 1611 944 z "},"Ă":{"ha":1468,"x_min":6,"x_max":1822,"o":"m 318 -165 q 173 -136 238 -165 q 68 -57 108 -107 q 6 136 6 21 q 36 285 6 218 q 239 528 97 426 q 513 628 379 628 q 653 586 596 628 q 710 467 710 544 q 681 362 710 413 q 610 294 653 311 q 604 297 607 294 q 603 300 601 299 q 646 370 626 333 q 665 451 665 407 q 640 527 665 494 q 574 578 614 560 q 493 597 535 597 q 379 571 436 597 q 265 501 322 544 q 99 256 143 406 q 78 126 78 189 q 160 -67 78 7 q 231 -112 193 -96 q 311 -128 268 -128 q 617 -26 451 -128 q 969 283 783 76 l 843 281 q 783 306 783 282 q 842 364 783 333 q 874 372 865 372 q 889 353 886 372 q 901 332 892 335 q 951 330 925 331 q 1008 329 978 329 q 1245 596 1139 489 q 1444 768 1351 703 q 1622 865 1536 833 q 1653 871 1635 871 q 1700 842 1700 871 q 1686 815 1700 829 q 1414 344 1500 618 q 1453 347 1435 346 q 1489 351 1472 349 q 1501 353 1496 353 q 1511 353 1506 353 q 1536 346 1536 353 q 1406 314 1536 324 q 1371 101 1371 200 q 1399 -6 1371 10 q 1404 -8 1401 -7 q 1410 -8 1407 -8 q 1435 5 1422 -8 q 1449 18 1449 18 q 1451 8 1451 15 q 1434 -44 1451 -19 q 1393 -69 1417 -69 q 1363 -57 1378 -69 q 1319 75 1319 -22 q 1319 98 1319 86 q 1321 121 1319 110 q 1331 208 1324 161 q 1351 311 1339 256 l 1015 288 q 647 -51 821 64 q 318 -165 474 -165 m 1053 329 q 1183 333 1106 331 q 1358 340 1260 336 q 1492 690 1424 565 q 1516 733 1503 713 q 1543 774 1529 754 q 1465 735 1508 763 q 1383 678 1422 708 q 1319 625 1344 647 q 1183 484 1247 560 q 1053 329 1118 408 m 1667 940 q 1572 966 1607 940 q 1536 1033 1536 992 q 1545 1056 1536 1046 q 1563 1065 1554 1065 q 1574 1054 1571 1065 q 1606 998 1582 1019 q 1668 976 1629 976 q 1740 997 1703 976 q 1803 1060 1776 1017 q 1813 1064 1807 1064 q 1819 1061 1817 1064 q 1819 1051 1822 1058 q 1765 972 1801 1004 q 1667 940 1728 940 z "},"Ắ":{"ha":1468,"x_min":6,"x_max":1822,"o":"m 318 -165 q 173 -136 238 -165 q 68 -57 108 -107 q 6 136 6 21 q 36 285 6 218 q 239 528 97 426 q 513 628 379 628 q 653 586 596 628 q 710 467 710 544 q 681 362 710 413 q 610 294 653 311 q 604 297 607 294 q 603 300 601 299 q 646 370 626 333 q 665 451 665 407 q 640 527 665 494 q 574 578 614 560 q 493 597 535 597 q 379 571 436 597 q 265 501 322 544 q 99 256 143 406 q 78 126 78 189 q 160 -67 78 7 q 231 -112 193 -96 q 311 -128 268 -128 q 617 -26 451 -128 q 969 283 783 76 l 843 281 q 783 306 783 282 q 842 364 783 333 q 874 372 865 372 q 889 353 886 372 q 901 332 892 335 q 951 330 925 331 q 1008 329 978 329 q 1245 596 1139 489 q 1444 768 1351 703 q 1622 865 1536 833 q 1653 871 1635 871 q 1700 842 1700 871 q 1686 815 1700 829 q 1414 344 1500 618 q 1453 347 1435 346 q 1489 351 1472 349 q 1501 353 1496 353 q 1511 353 1506 353 q 1536 346 1536 353 q 1406 314 1536 324 q 1371 101 1371 200 q 1399 -6 1371 10 q 1404 -8 1401 -7 q 1410 -8 1407 -8 q 1435 5 1422 -8 q 1449 18 1449 18 q 1451 8 1451 15 q 1434 -44 1451 -19 q 1393 -69 1417 -69 q 1363 -57 1378 -69 q 1319 75 1319 -22 q 1319 98 1319 86 q 1321 121 1319 110 q 1331 208 1324 161 q 1351 311 1339 256 l 1015 288 q 647 -51 821 64 q 318 -165 474 -165 m 1053 329 q 1183 333 1106 331 q 1358 340 1260 336 q 1492 690 1424 565 q 1516 733 1503 713 q 1543 774 1529 754 q 1465 735 1508 763 q 1383 678 1422 708 q 1319 625 1344 647 q 1183 484 1247 560 q 1053 329 1118 408 m 1667 940 q 1572 966 1607 940 q 1536 1033 1536 992 q 1545 1056 1536 1046 q 1563 1065 1554 1065 q 1574 1054 1571 1065 q 1606 998 1582 1019 q 1668 976 1629 976 q 1740 997 1703 976 q 1803 1060 1776 1017 q 1813 1064 1807 1064 q 1819 1061 1817 1064 q 1819 1051 1822 1058 q 1765 972 1801 1004 q 1667 940 1728 940 m 1638 1101 q 1633 1104 1633 1101 q 1657 1129 1633 1110 q 1724 1182 1690 1154 q 1772 1228 1757 1210 q 1783 1232 1779 1232 q 1800 1219 1792 1231 q 1808 1197 1808 1208 q 1803 1188 1807 1192 q 1733 1143 1769 1165 q 1669 1111 1697 1121 q 1649 1104 1657 1107 q 1638 1101 1640 1101 z "},"Ặ":{"ha":1468,"x_min":6,"x_max":1822,"o":"m 318 -165 q 173 -136 238 -165 q 68 -57 108 -107 q 6 136 6 21 q 36 285 6 218 q 239 528 97 426 q 513 628 379 628 q 653 586 596 628 q 710 467 710 544 q 681 362 710 413 q 610 294 653 311 q 604 297 607 294 q 603 300 601 299 q 646 370 626 333 q 665 451 665 407 q 640 527 665 494 q 574 578 614 560 q 493 597 535 597 q 379 571 436 597 q 265 501 322 544 q 99 256 143 406 q 78 126 78 189 q 160 -67 78 7 q 231 -112 193 -96 q 311 -128 268 -128 q 617 -26 451 -128 q 969 283 783 76 l 843 281 q 783 306 783 282 q 842 364 783 333 q 874 372 865 372 q 889 353 886 372 q 901 332 892 335 q 951 330 925 331 q 1008 329 978 329 q 1245 596 1139 489 q 1444 768 1351 703 q 1622 865 1536 833 q 1653 871 1635 871 q 1700 842 1700 871 q 1686 815 1700 829 q 1414 344 1500 618 q 1453 347 1435 346 q 1489 351 1472 349 q 1501 353 1496 353 q 1511 353 1506 353 q 1536 346 1536 353 q 1406 314 1536 324 q 1371 101 1371 200 q 1399 -6 1371 10 q 1404 -8 1401 -7 q 1410 -8 1407 -8 q 1435 5 1422 -8 q 1449 18 1449 18 q 1451 8 1451 15 q 1434 -44 1451 -19 q 1393 -69 1417 -69 q 1363 -57 1378 -69 q 1319 75 1319 -22 q 1319 98 1319 86 q 1321 121 1319 110 q 1331 208 1324 161 q 1351 311 1339 256 l 1015 288 q 647 -51 821 64 q 318 -165 474 -165 m 1053 329 q 1183 333 1106 331 q 1358 340 1260 336 q 1492 690 1424 565 q 1516 733 1503 713 q 1543 774 1529 754 q 1465 735 1508 763 q 1383 678 1422 708 q 1319 625 1344 647 q 1183 484 1247 560 q 1053 329 1118 408 m 994 -243 q 963 -238 981 -244 q 946 -224 944 -232 q 951 -213 949 -219 q 958 -201 954 -207 q 978 -177 975 -182 q 989 -172 982 -172 q 1022 -192 1006 -172 q 1023 -193 1022 -193 q 1024 -194 1024 -193 q 1013 -219 1024 -200 q 994 -243 1000 -243 m 1667 940 q 1572 966 1607 940 q 1536 1033 1536 992 q 1545 1056 1536 1046 q 1563 1065 1554 1065 q 1574 1054 1571 1065 q 1606 998 1582 1019 q 1668 976 1629 976 q 1740 997 1703 976 q 1803 1060 1776 1017 q 1813 1064 1807 1064 q 1819 1061 1817 1064 q 1819 1051 1822 1058 q 1765 972 1801 1004 q 1667 940 1728 940 z "},"Ằ":{"ha":1468,"x_min":6,"x_max":1822,"o":"m 318 -165 q 173 -136 238 -165 q 68 -57 108 -107 q 6 136 6 21 q 36 285 6 218 q 239 528 97 426 q 513 628 379 628 q 653 586 596 628 q 710 467 710 544 q 681 362 710 413 q 610 294 653 311 q 604 297 607 294 q 603 300 601 299 q 646 370 626 333 q 665 451 665 407 q 640 527 665 494 q 574 578 614 560 q 493 597 535 597 q 379 571 436 597 q 265 501 322 544 q 99 256 143 406 q 78 126 78 189 q 160 -67 78 7 q 231 -112 193 -96 q 311 -128 268 -128 q 617 -26 451 -128 q 969 283 783 76 l 843 281 q 783 306 783 282 q 842 364 783 333 q 874 372 865 372 q 889 353 886 372 q 901 332 892 335 q 951 330 925 331 q 1008 329 978 329 q 1245 596 1139 489 q 1444 768 1351 703 q 1622 865 1536 833 q 1653 871 1635 871 q 1700 842 1700 871 q 1686 815 1700 829 q 1414 344 1500 618 q 1453 347 1435 346 q 1489 351 1472 349 q 1501 353 1496 353 q 1511 353 1506 353 q 1536 346 1536 353 q 1406 314 1536 324 q 1371 101 1371 200 q 1399 -6 1371 10 q 1404 -8 1401 -7 q 1410 -8 1407 -8 q 1435 5 1422 -8 q 1449 18 1449 18 q 1451 8 1451 15 q 1434 -44 1451 -19 q 1393 -69 1417 -69 q 1363 -57 1378 -69 q 1319 75 1319 -22 q 1319 98 1319 86 q 1321 121 1319 110 q 1331 208 1324 161 q 1351 311 1339 256 l 1015 288 q 647 -51 821 64 q 318 -165 474 -165 m 1053 329 q 1183 333 1106 331 q 1358 340 1260 336 q 1492 690 1424 565 q 1516 733 1503 713 q 1543 774 1529 754 q 1465 735 1508 763 q 1383 678 1422 708 q 1319 625 1344 647 q 1183 484 1247 560 q 1053 329 1118 408 m 1667 940 q 1572 966 1607 940 q 1536 1033 1536 992 q 1545 1056 1536 1046 q 1563 1065 1554 1065 q 1574 1054 1571 1065 q 1606 998 1582 1019 q 1668 976 1629 976 q 1740 997 1703 976 q 1803 1060 1776 1017 q 1813 1064 1807 1064 q 1819 1061 1817 1064 q 1819 1051 1822 1058 q 1765 972 1801 1004 q 1667 940 1728 940 m 1767 1101 q 1733 1110 1758 1101 q 1671 1143 1707 1121 q 1601 1188 1635 1165 q 1596 1197 1599 1192 q 1604 1219 1596 1208 q 1621 1232 1613 1231 q 1631 1226 1626 1232 q 1681 1181 1647 1208 q 1747 1129 1714 1154 q 1771 1104 1771 1110 q 1767 1101 1771 1101 z "},"Ẳ":{"ha":1468,"x_min":6,"x_max":1822,"o":"m 318 -165 q 173 -136 238 -165 q 68 -57 108 -107 q 6 136 6 21 q 36 285 6 218 q 239 528 97 426 q 513 628 379 628 q 653 586 596 628 q 710 467 710 544 q 681 362 710 413 q 610 294 653 311 q 604 297 607 294 q 603 300 601 299 q 646 370 626 333 q 665 451 665 407 q 640 527 665 494 q 574 578 614 560 q 493 597 535 597 q 379 571 436 597 q 265 501 322 544 q 99 256 143 406 q 78 126 78 189 q 160 -67 78 7 q 231 -112 193 -96 q 311 -128 268 -128 q 617 -26 451 -128 q 969 283 783 76 l 843 281 q 783 306 783 282 q 842 364 783 333 q 874 372 865 372 q 889 353 886 372 q 901 332 892 335 q 951 330 925 331 q 1008 329 978 329 q 1245 596 1139 489 q 1444 768 1351 703 q 1622 865 1536 833 q 1653 871 1635 871 q 1700 842 1700 871 q 1686 815 1700 829 q 1414 344 1500 618 q 1453 347 1435 346 q 1489 351 1472 349 q 1501 353 1496 353 q 1511 353 1506 353 q 1536 346 1536 353 q 1406 314 1536 324 q 1371 101 1371 200 q 1399 -6 1371 10 q 1404 -8 1401 -7 q 1410 -8 1407 -8 q 1435 5 1422 -8 q 1449 18 1449 18 q 1451 8 1451 15 q 1434 -44 1451 -19 q 1393 -69 1417 -69 q 1363 -57 1378 -69 q 1319 75 1319 -22 q 1319 98 1319 86 q 1321 121 1319 110 q 1331 208 1324 161 q 1351 311 1339 256 l 1015 288 q 647 -51 821 64 q 318 -165 474 -165 m 1053 329 q 1183 333 1106 331 q 1358 340 1260 336 q 1492 690 1424 565 q 1516 733 1503 713 q 1543 774 1529 754 q 1465 735 1508 763 q 1383 678 1422 708 q 1319 625 1344 647 q 1183 484 1247 560 q 1053 329 1118 408 m 1667 940 q 1572 966 1607 940 q 1536 1033 1536 992 q 1545 1056 1536 1046 q 1563 1065 1554 1065 q 1574 1054 1571 1065 q 1606 998 1582 1019 q 1668 976 1629 976 q 1740 997 1703 976 q 1803 1060 1776 1017 q 1813 1064 1807 1064 q 1819 1061 1817 1064 q 1819 1051 1822 1058 q 1765 972 1801 1004 q 1667 940 1728 940 m 1669 1097 q 1661 1106 1661 1097 q 1668 1118 1661 1113 q 1719 1153 1697 1138 q 1742 1199 1742 1169 q 1728 1224 1742 1217 q 1697 1232 1715 1232 q 1646 1223 1665 1232 q 1624 1214 1626 1214 q 1615 1215 1619 1214 q 1617 1222 1611 1217 q 1674 1260 1642 1250 q 1722 1271 1706 1271 q 1770 1253 1749 1271 q 1789 1204 1792 1236 q 1768 1156 1786 1174 q 1726 1127 1750 1139 q 1682 1101 1703 1115 q 1669 1097 1676 1097 z "},"Ẵ":{"ha":1468,"x_min":6,"x_max":1860,"o":"m 318 -165 q 173 -136 238 -165 q 68 -57 108 -107 q 6 136 6 21 q 36 285 6 218 q 239 528 97 426 q 513 628 379 628 q 653 586 596 628 q 710 467 710 544 q 681 362 710 413 q 610 294 653 311 q 604 297 607 294 q 603 300 601 299 q 646 370 626 333 q 665 451 665 407 q 640 527 665 494 q 574 578 614 560 q 493 597 535 597 q 379 571 436 597 q 265 501 322 544 q 99 256 143 406 q 78 126 78 189 q 160 -67 78 7 q 231 -112 193 -96 q 311 -128 268 -128 q 617 -26 451 -128 q 969 283 783 76 l 843 281 q 783 306 783 282 q 842 364 783 333 q 874 372 865 372 q 889 353 886 372 q 901 332 892 335 q 951 330 925 331 q 1008 329 978 329 q 1245 596 1139 489 q 1444 768 1351 703 q 1622 865 1536 833 q 1653 871 1635 871 q 1700 842 1700 871 q 1686 815 1700 829 q 1414 344 1500 618 q 1453 347 1435 346 q 1489 351 1472 349 q 1501 353 1496 353 q 1511 353 1506 353 q 1536 346 1536 353 q 1406 314 1536 324 q 1371 101 1371 200 q 1399 -6 1371 10 q 1404 -8 1401 -7 q 1410 -8 1407 -8 q 1435 5 1422 -8 q 1449 18 1449 18 q 1451 8 1451 15 q 1434 -44 1451 -19 q 1393 -69 1417 -69 q 1363 -57 1378 -69 q 1319 75 1319 -22 q 1319 98 1319 86 q 1321 121 1319 110 q 1331 208 1324 161 q 1351 311 1339 256 l 1015 288 q 647 -51 821 64 q 318 -165 474 -165 m 1053 329 q 1183 333 1106 331 q 1358 340 1260 336 q 1492 690 1424 565 q 1516 733 1503 713 q 1543 774 1529 754 q 1465 735 1508 763 q 1383 678 1422 708 q 1319 625 1344 647 q 1183 484 1247 560 q 1053 329 1118 408 m 1667 940 q 1572 966 1607 940 q 1536 1033 1536 992 q 1545 1056 1536 1046 q 1563 1065 1554 1065 q 1574 1054 1571 1065 q 1606 998 1582 1019 q 1668 976 1629 976 q 1740 997 1703 976 q 1803 1060 1776 1017 q 1813 1064 1807 1064 q 1819 1061 1817 1064 q 1819 1051 1822 1058 q 1765 972 1801 1004 q 1667 940 1728 940 m 1775 1090 q 1726 1101 1754 1090 q 1672 1125 1699 1111 q 1631 1144 1646 1140 q 1607 1149 1615 1149 q 1565 1108 1582 1149 q 1557 1101 1561 1101 q 1550 1114 1550 1101 q 1553 1128 1550 1119 q 1563 1147 1556 1138 q 1624 1194 1594 1194 q 1658 1185 1640 1194 q 1697 1167 1675 1176 l 1767 1136 q 1796 1135 1785 1131 q 1813 1143 1806 1136 q 1828 1160 1821 1150 q 1838 1174 1835 1168 q 1844 1183 1842 1179 q 1853 1190 1849 1190 q 1856 1178 1860 1190 q 1851 1160 1853 1168 q 1838 1135 1849 1151 q 1808 1101 1826 1113 q 1775 1090 1790 1090 z "},"Ǎ":{"ha":1468,"x_min":6,"x_max":1867,"o":"m 1854 1083 q 1867 1074 1867 1083 q 1858 1063 1867 1067 q 1833 1044 1844 1051 q 1814 1032 1822 1038 q 1761 1001 1796 1022 q 1690 954 1726 981 q 1665 943 1675 943 q 1635 981 1653 943 q 1599 1027 1625 1001 q 1543 1053 1572 1053 q 1523 1051 1532 1053 q 1507 1043 1514 1050 q 1490 1036 1499 1036 q 1485 1040 1485 1036 q 1492 1051 1485 1044 q 1527 1076 1511 1068 q 1574 1083 1543 1083 q 1637 1059 1607 1083 q 1678 1010 1667 1035 q 1697 996 1683 996 q 1724 1007 1708 996 q 1780 1042 1751 1026 q 1843 1081 1808 1058 q 1849 1083 1846 1082 q 1854 1083 1851 1083 m 318 -165 q 173 -136 238 -165 q 68 -57 108 -107 q 6 136 6 21 q 36 285 6 218 q 239 528 97 426 q 513 628 379 628 q 653 586 596 628 q 710 467 710 544 q 681 362 710 413 q 610 294 653 311 q 604 297 607 294 q 603 300 601 299 q 646 370 626 333 q 665 451 665 407 q 640 527 665 494 q 574 578 614 560 q 493 597 535 597 q 379 571 436 597 q 265 501 322 544 q 99 256 143 406 q 78 126 78 189 q 160 -67 78 7 q 231 -112 193 -96 q 311 -128 268 -128 q 617 -26 451 -128 q 969 283 783 76 l 843 281 q 783 306 783 282 q 842 364 783 333 q 874 372 865 372 q 889 353 886 372 q 901 332 892 335 q 951 330 925 331 q 1008 329 978 329 q 1245 596 1139 489 q 1444 768 1351 703 q 1622 865 1536 833 q 1653 871 1635 871 q 1700 842 1700 871 q 1686 815 1700 829 q 1414 344 1500 618 q 1453 347 1435 346 q 1489 351 1472 349 q 1501 353 1496 353 q 1511 353 1506 353 q 1536 346 1536 353 q 1406 314 1536 324 q 1371 101 1371 200 q 1399 -6 1371 10 q 1404 -8 1401 -7 q 1410 -8 1407 -8 q 1435 5 1422 -8 q 1449 18 1449 18 q 1451 8 1451 15 q 1434 -44 1451 -19 q 1393 -69 1417 -69 q 1363 -57 1378 -69 q 1319 75 1319 -22 q 1319 98 1319 86 q 1321 121 1319 110 q 1331 208 1324 161 q 1351 311 1339 256 l 1015 288 q 647 -51 821 64 q 318 -165 474 -165 m 1053 329 q 1183 333 1106 331 q 1358 340 1260 336 q 1492 690 1424 565 q 1516 733 1503 713 q 1543 774 1529 754 q 1465 735 1508 763 q 1383 678 1422 708 q 1319 625 1344 647 q 1183 484 1247 560 q 1053 329 1118 408 z "},"Â":{"ha":1468,"x_min":6,"x_max":1907,"o":"m 318 -165 q 173 -136 238 -165 q 68 -57 108 -107 q 6 136 6 21 q 36 285 6 218 q 239 528 97 426 q 513 628 379 628 q 653 586 596 628 q 710 467 710 544 q 681 362 710 413 q 610 294 653 311 q 604 297 607 294 q 603 300 601 299 q 646 370 626 333 q 665 451 665 407 q 640 527 665 494 q 574 578 614 560 q 493 597 535 597 q 379 571 436 597 q 265 501 322 544 q 99 256 143 406 q 78 126 78 189 q 160 -67 78 7 q 231 -112 193 -96 q 311 -128 268 -128 q 617 -26 451 -128 q 969 283 783 76 l 843 281 q 783 306 783 282 q 842 364 783 333 q 874 372 865 372 q 889 353 886 372 q 901 332 892 335 q 951 330 925 331 q 1008 329 978 329 q 1245 596 1139 489 q 1444 768 1351 703 q 1622 865 1536 833 q 1653 871 1635 871 q 1700 842 1700 871 q 1686 815 1700 829 q 1414 344 1500 618 q 1453 347 1435 346 q 1489 351 1472 349 q 1501 353 1496 353 q 1511 353 1506 353 q 1536 346 1536 353 q 1406 314 1536 324 q 1371 101 1371 200 q 1399 -6 1371 10 q 1404 -8 1401 -7 q 1410 -8 1407 -8 q 1435 5 1422 -8 q 1449 18 1449 18 q 1451 8 1451 15 q 1434 -44 1451 -19 q 1393 -69 1417 -69 q 1363 -57 1378 -69 q 1319 75 1319 -22 q 1319 98 1319 86 q 1321 121 1319 110 q 1331 208 1324 161 q 1351 311 1339 256 l 1015 288 q 647 -51 821 64 q 318 -165 474 -165 m 1053 329 q 1183 333 1106 331 q 1358 340 1260 336 q 1492 690 1424 565 q 1516 733 1503 713 q 1543 774 1529 754 q 1465 735 1508 763 q 1383 678 1422 708 q 1319 625 1344 647 q 1183 484 1247 560 q 1053 329 1118 408 m 1538 943 q 1525 953 1525 943 q 1533 964 1525 960 q 1558 982 1547 975 q 1578 994 1569 989 q 1631 1026 1596 1006 q 1701 1072 1665 1046 q 1726 1083 1717 1083 q 1757 1046 1739 1083 q 1793 999 1767 1025 q 1849 974 1819 974 q 1869 976 1860 974 q 1885 983 1878 978 q 1901 990 1893 990 q 1907 986 1907 990 q 1900 975 1907 982 q 1866 951 1882 958 q 1818 943 1850 943 q 1755 967 1785 943 q 1714 1017 1725 992 q 1694 1031 1708 1031 q 1668 1019 1683 1031 q 1613 985 1642 1000 q 1549 946 1585 969 q 1543 944 1546 944 q 1538 943 1540 943 z "},"Ấ":{"ha":1468,"x_min":6,"x_max":1994,"o":"m 318 -165 q 173 -136 238 -165 q 68 -57 108 -107 q 6 136 6 21 q 36 285 6 218 q 239 528 97 426 q 513 628 379 628 q 653 586 596 628 q 710 467 710 544 q 681 362 710 413 q 610 294 653 311 q 604 297 607 294 q 603 300 601 299 q 646 370 626 333 q 665 451 665 407 q 640 527 665 494 q 574 578 614 560 q 493 597 535 597 q 379 571 436 597 q 265 501 322 544 q 99 256 143 406 q 78 126 78 189 q 160 -67 78 7 q 231 -112 193 -96 q 311 -128 268 -128 q 617 -26 451 -128 q 969 283 783 76 l 843 281 q 783 306 783 282 q 842 364 783 333 q 874 372 865 372 q 889 353 886 372 q 901 332 892 335 q 951 330 925 331 q 1008 329 978 329 q 1245 596 1139 489 q 1444 768 1351 703 q 1622 865 1536 833 q 1653 871 1635 871 q 1700 842 1700 871 q 1686 815 1700 829 q 1414 344 1500 618 q 1453 347 1435 346 q 1489 351 1472 349 q 1501 353 1496 353 q 1511 353 1506 353 q 1536 346 1536 353 q 1406 314 1536 324 q 1371 101 1371 200 q 1399 -6 1371 10 q 1404 -8 1401 -7 q 1410 -8 1407 -8 q 1435 5 1422 -8 q 1449 18 1449 18 q 1451 8 1451 15 q 1434 -44 1451 -19 q 1393 -69 1417 -69 q 1363 -57 1378 -69 q 1319 75 1319 -22 q 1319 98 1319 86 q 1321 121 1319 110 q 1331 208 1324 161 q 1351 311 1339 256 l 1015 288 q 647 -51 821 64 q 318 -165 474 -165 m 1053 329 q 1183 333 1106 331 q 1358 340 1260 336 q 1492 690 1424 565 q 1516 733 1503 713 q 1543 774 1529 754 q 1465 735 1508 763 q 1383 678 1422 708 q 1319 625 1344 647 q 1183 484 1247 560 q 1053 329 1118 408 m 1538 943 q 1525 953 1525 943 q 1533 964 1525 960 q 1558 982 1547 975 q 1578 994 1569 989 q 1631 1026 1596 1006 q 1701 1072 1665 1046 q 1726 1083 1717 1083 q 1757 1046 1739 1083 q 1793 999 1767 1025 q 1849 974 1819 974 q 1869 976 1860 974 q 1885 983 1878 978 q 1901 990 1893 990 q 1907 986 1907 990 q 1900 975 1907 982 q 1866 951 1882 958 q 1818 943 1850 943 q 1755 967 1785 943 q 1714 1017 1725 992 q 1694 1031 1708 1031 q 1668 1019 1683 1031 q 1613 985 1642 1000 q 1549 946 1585 969 q 1543 944 1546 944 q 1538 943 1540 943 m 1824 1057 q 1819 1060 1819 1057 q 1843 1085 1819 1065 q 1910 1138 1876 1110 q 1958 1183 1943 1165 q 1969 1188 1965 1188 q 1986 1175 1978 1186 q 1994 1153 1994 1164 q 1989 1143 1993 1147 q 1919 1099 1956 1121 q 1856 1067 1883 1076 q 1835 1060 1843 1063 q 1824 1057 1826 1057 z "},"Ậ":{"ha":1468,"x_min":6,"x_max":1907,"o":"m 318 -165 q 173 -136 238 -165 q 68 -57 108 -107 q 6 136 6 21 q 36 285 6 218 q 239 528 97 426 q 513 628 379 628 q 653 586 596 628 q 710 467 710 544 q 681 362 710 413 q 610 294 653 311 q 604 297 607 294 q 603 300 601 299 q 646 370 626 333 q 665 451 665 407 q 640 527 665 494 q 574 578 614 560 q 493 597 535 597 q 379 571 436 597 q 265 501 322 544 q 99 256 143 406 q 78 126 78 189 q 160 -67 78 7 q 231 -112 193 -96 q 311 -128 268 -128 q 617 -26 451 -128 q 969 283 783 76 l 843 281 q 783 306 783 282 q 842 364 783 333 q 874 372 865 372 q 889 353 886 372 q 901 332 892 335 q 951 330 925 331 q 1008 329 978 329 q 1245 596 1139 489 q 1444 768 1351 703 q 1622 865 1536 833 q 1653 871 1635 871 q 1700 842 1700 871 q 1686 815 1700 829 q 1414 344 1500 618 q 1453 347 1435 346 q 1489 351 1472 349 q 1501 353 1496 353 q 1511 353 1506 353 q 1536 346 1536 353 q 1406 314 1536 324 q 1371 101 1371 200 q 1399 -6 1371 10 q 1404 -8 1401 -7 q 1410 -8 1407 -8 q 1435 5 1422 -8 q 1449 18 1449 18 q 1451 8 1451 15 q 1434 -44 1451 -19 q 1393 -69 1417 -69 q 1363 -57 1378 -69 q 1319 75 1319 -22 q 1319 98 1319 86 q 1321 121 1319 110 q 1331 208 1324 161 q 1351 311 1339 256 l 1015 288 q 647 -51 821 64 q 318 -165 474 -165 m 1053 329 q 1183 333 1106 331 q 1358 340 1260 336 q 1492 690 1424 565 q 1516 733 1503 713 q 1543 774 1529 754 q 1465 735 1508 763 q 1383 678 1422 708 q 1319 625 1344 647 q 1183 484 1247 560 q 1053 329 1118 408 m 994 -243 q 963 -238 981 -244 q 946 -224 944 -232 q 951 -213 949 -219 q 958 -201 954 -207 q 978 -177 975 -182 q 989 -172 982 -172 q 1022 -192 1006 -172 q 1023 -193 1022 -193 q 1024 -194 1024 -193 q 1013 -219 1024 -200 q 994 -243 1000 -243 m 1538 943 q 1525 953 1525 943 q 1533 964 1525 960 q 1558 982 1547 975 q 1578 994 1569 989 q 1631 1026 1596 1006 q 1701 1072 1665 1046 q 1726 1083 1717 1083 q 1757 1046 1739 1083 q 1793 999 1767 1025 q 1849 974 1819 974 q 1869 976 1860 974 q 1885 983 1878 978 q 1901 990 1893 990 q 1907 986 1907 990 q 1900 975 1907 982 q 1866 951 1882 958 q 1818 943 1850 943 q 1755 967 1785 943 q 1714 1017 1725 992 q 1694 1031 1708 1031 q 1668 1019 1683 1031 q 1613 985 1642 1000 q 1549 946 1585 969 q 1543 944 1546 944 q 1538 943 1540 943 z "},"Ầ":{"ha":1468,"x_min":6,"x_max":1957,"o":"m 318 -165 q 173 -136 238 -165 q 68 -57 108 -107 q 6 136 6 21 q 36 285 6 218 q 239 528 97 426 q 513 628 379 628 q 653 586 596 628 q 710 467 710 544 q 681 362 710 413 q 610 294 653 311 q 604 297 607 294 q 603 300 601 299 q 646 370 626 333 q 665 451 665 407 q 640 527 665 494 q 574 578 614 560 q 493 597 535 597 q 379 571 436 597 q 265 501 322 544 q 99 256 143 406 q 78 126 78 189 q 160 -67 78 7 q 231 -112 193 -96 q 311 -128 268 -128 q 617 -26 451 -128 q 969 283 783 76 l 843 281 q 783 306 783 282 q 842 364 783 333 q 874 372 865 372 q 889 353 886 372 q 901 332 892 335 q 951 330 925 331 q 1008 329 978 329 q 1245 596 1139 489 q 1444 768 1351 703 q 1622 865 1536 833 q 1653 871 1635 871 q 1700 842 1700 871 q 1686 815 1700 829 q 1414 344 1500 618 q 1453 347 1435 346 q 1489 351 1472 349 q 1501 353 1496 353 q 1511 353 1506 353 q 1536 346 1536 353 q 1406 314 1536 324 q 1371 101 1371 200 q 1399 -6 1371 10 q 1404 -8 1401 -7 q 1410 -8 1407 -8 q 1435 5 1422 -8 q 1449 18 1449 18 q 1451 8 1451 15 q 1434 -44 1451 -19 q 1393 -69 1417 -69 q 1363 -57 1378 -69 q 1319 75 1319 -22 q 1319 98 1319 86 q 1321 121 1319 110 q 1331 208 1324 161 q 1351 311 1339 256 l 1015 288 q 647 -51 821 64 q 318 -165 474 -165 m 1053 329 q 1183 333 1106 331 q 1358 340 1260 336 q 1492 690 1424 565 q 1516 733 1503 713 q 1543 774 1529 754 q 1465 735 1508 763 q 1383 678 1422 708 q 1319 625 1344 647 q 1183 484 1247 560 q 1053 329 1118 408 m 1538 943 q 1525 953 1525 943 q 1533 964 1525 960 q 1558 982 1547 975 q 1578 994 1569 989 q 1631 1026 1596 1006 q 1701 1072 1665 1046 q 1726 1083 1717 1083 q 1757 1046 1739 1083 q 1793 999 1767 1025 q 1849 974 1819 974 q 1869 976 1860 974 q 1885 983 1878 978 q 1901 990 1893 990 q 1907 986 1907 990 q 1900 975 1907 982 q 1866 951 1882 958 q 1818 943 1850 943 q 1755 967 1785 943 q 1714 1017 1725 992 q 1694 1031 1708 1031 q 1668 1019 1683 1031 q 1613 985 1642 1000 q 1549 946 1585 969 q 1543 944 1546 944 q 1538 943 1540 943 m 1953 1057 q 1919 1065 1944 1057 q 1857 1099 1893 1076 q 1788 1143 1821 1121 q 1782 1153 1785 1147 q 1790 1175 1782 1164 q 1807 1188 1799 1186 q 1817 1182 1813 1188 q 1867 1137 1833 1164 q 1933 1085 1900 1110 q 1957 1060 1957 1065 q 1953 1057 1957 1057 z "},"Ẩ":{"ha":1468,"x_min":6,"x_max":1978,"o":"m 318 -165 q 173 -136 238 -165 q 68 -57 108 -107 q 6 136 6 21 q 36 285 6 218 q 239 528 97 426 q 513 628 379 628 q 653 586 596 628 q 710 467 710 544 q 681 362 710 413 q 610 294 653 311 q 604 297 607 294 q 603 300 601 299 q 646 370 626 333 q 665 451 665 407 q 640 527 665 494 q 574 578 614 560 q 493 597 535 597 q 379 571 436 597 q 265 501 322 544 q 99 256 143 406 q 78 126 78 189 q 160 -67 78 7 q 231 -112 193 -96 q 311 -128 268 -128 q 617 -26 451 -128 q 969 283 783 76 l 843 281 q 783 306 783 282 q 842 364 783 333 q 874 372 865 372 q 889 353 886 372 q 901 332 892 335 q 951 330 925 331 q 1008 329 978 329 q 1245 596 1139 489 q 1444 768 1351 703 q 1622 865 1536 833 q 1653 871 1635 871 q 1700 842 1700 871 q 1686 815 1700 829 q 1414 344 1500 618 q 1453 347 1435 346 q 1489 351 1472 349 q 1501 353 1496 353 q 1511 353 1506 353 q 1536 346 1536 353 q 1406 314 1536 324 q 1371 101 1371 200 q 1399 -6 1371 10 q 1404 -8 1401 -7 q 1410 -8 1407 -8 q 1435 5 1422 -8 q 1449 18 1449 18 q 1451 8 1451 15 q 1434 -44 1451 -19 q 1393 -69 1417 -69 q 1363 -57 1378 -69 q 1319 75 1319 -22 q 1319 98 1319 86 q 1321 121 1319 110 q 1331 208 1324 161 q 1351 311 1339 256 l 1015 288 q 647 -51 821 64 q 318 -165 474 -165 m 1053 329 q 1183 333 1106 331 q 1358 340 1260 336 q 1492 690 1424 565 q 1516 733 1503 713 q 1543 774 1529 754 q 1465 735 1508 763 q 1383 678 1422 708 q 1319 625 1344 647 q 1183 484 1247 560 q 1053 329 1118 408 m 1538 943 q 1525 953 1525 943 q 1533 964 1525 960 q 1558 982 1547 975 q 1578 994 1569 989 q 1631 1026 1596 1006 q 1701 1072 1665 1046 q 1726 1083 1717 1083 q 1757 1046 1739 1083 q 1793 999 1767 1025 q 1849 974 1819 974 q 1869 976 1860 974 q 1885 983 1878 978 q 1901 990 1893 990 q 1907 986 1907 990 q 1900 975 1907 982 q 1866 951 1882 958 q 1818 943 1850 943 q 1755 967 1785 943 q 1714 1017 1725 992 q 1694 1031 1708 1031 q 1668 1019 1683 1031 q 1613 985 1642 1000 q 1549 946 1585 969 q 1543 944 1546 944 q 1538 943 1540 943 m 1856 1053 q 1847 1061 1847 1053 q 1854 1074 1847 1068 q 1906 1109 1883 1093 q 1928 1154 1928 1125 q 1915 1180 1928 1172 q 1883 1188 1901 1188 q 1832 1178 1851 1188 q 1810 1169 1813 1169 q 1801 1171 1806 1169 q 1803 1178 1797 1172 q 1860 1216 1828 1206 q 1908 1226 1892 1226 q 1956 1209 1935 1226 q 1975 1160 1978 1192 q 1954 1112 1972 1129 q 1913 1083 1936 1094 q 1868 1057 1889 1071 q 1856 1053 1863 1053 z "},"Ẫ":{"ha":1468,"x_min":6,"x_max":1922,"o":"m 318 -165 q 173 -136 238 -165 q 68 -57 108 -107 q 6 136 6 21 q 36 285 6 218 q 239 528 97 426 q 513 628 379 628 q 653 586 596 628 q 710 467 710 544 q 681 362 710 413 q 610 294 653 311 q 604 297 607 294 q 603 300 601 299 q 646 370 626 333 q 665 451 665 407 q 640 527 665 494 q 574 578 614 560 q 493 597 535 597 q 379 571 436 597 q 265 501 322 544 q 99 256 143 406 q 78 126 78 189 q 160 -67 78 7 q 231 -112 193 -96 q 311 -128 268 -128 q 617 -26 451 -128 q 969 283 783 76 l 843 281 q 783 306 783 282 q 842 364 783 333 q 874 372 865 372 q 889 353 886 372 q 901 332 892 335 q 951 330 925 331 q 1008 329 978 329 q 1245 596 1139 489 q 1444 768 1351 703 q 1622 865 1536 833 q 1653 871 1635 871 q 1700 842 1700 871 q 1686 815 1700 829 q 1414 344 1500 618 q 1453 347 1435 346 q 1489 351 1472 349 q 1501 353 1496 353 q 1511 353 1506 353 q 1536 346 1536 353 q 1406 314 1536 324 q 1371 101 1371 200 q 1399 -6 1371 10 q 1404 -8 1401 -7 q 1410 -8 1407 -8 q 1435 5 1422 -8 q 1449 18 1449 18 q 1451 8 1451 15 q 1434 -44 1451 -19 q 1393 -69 1417 -69 q 1363 -57 1378 -69 q 1319 75 1319 -22 q 1319 98 1319 86 q 1321 121 1319 110 q 1331 208 1324 161 q 1351 311 1339 256 l 1015 288 q 647 -51 821 64 q 318 -165 474 -165 m 1053 329 q 1183 333 1106 331 q 1358 340 1260 336 q 1492 690 1424 565 q 1516 733 1503 713 q 1543 774 1529 754 q 1465 735 1508 763 q 1383 678 1422 708 q 1319 625 1344 647 q 1183 484 1247 560 q 1053 329 1118 408 m 1538 943 q 1525 953 1525 943 q 1533 964 1525 960 q 1558 982 1547 975 q 1578 994 1569 989 q 1631 1026 1596 1006 q 1701 1072 1665 1046 q 1726 1083 1717 1083 q 1757 1046 1739 1083 q 1793 999 1767 1025 q 1849 974 1819 974 q 1869 976 1860 974 q 1885 983 1878 978 q 1901 990 1893 990 q 1907 986 1907 990 q 1900 975 1907 982 q 1866 951 1882 958 q 1818 943 1850 943 q 1755 967 1785 943 q 1714 1017 1725 992 q 1694 1031 1708 1031 q 1668 1019 1683 1031 q 1613 985 1642 1000 q 1549 946 1585 969 q 1543 944 1546 944 q 1538 943 1540 943 m 1838 1104 q 1789 1115 1817 1104 q 1735 1139 1761 1125 q 1693 1158 1708 1154 q 1669 1163 1678 1163 q 1628 1122 1644 1163 q 1619 1115 1624 1115 q 1613 1128 1613 1115 q 1615 1142 1613 1133 q 1625 1161 1618 1151 q 1686 1208 1657 1208 q 1720 1199 1703 1208 q 1760 1181 1738 1190 l 1829 1150 q 1858 1149 1847 1144 q 1876 1157 1868 1150 q 1890 1174 1883 1164 q 1901 1188 1897 1182 q 1907 1197 1904 1193 q 1915 1204 1911 1204 q 1918 1192 1922 1204 q 1913 1174 1915 1182 q 1900 1149 1911 1165 q 1871 1115 1889 1126 q 1838 1104 1853 1104 z "},"Ȁ":{"ha":1468,"x_min":6,"x_max":1700,"o":"m 318 -165 q 173 -136 238 -165 q 68 -57 108 -107 q 6 136 6 21 q 36 285 6 218 q 239 528 97 426 q 513 628 379 628 q 653 586 596 628 q 710 467 710 544 q 681 362 710 413 q 610 294 653 311 q 604 297 607 294 q 603 300 601 299 q 646 370 626 333 q 665 451 665 407 q 640 527 665 494 q 574 578 614 560 q 493 597 535 597 q 379 571 436 597 q 265 501 322 544 q 99 256 143 406 q 78 126 78 189 q 160 -67 78 7 q 231 -112 193 -96 q 311 -128 268 -128 q 617 -26 451 -128 q 969 283 783 76 l 843 281 q 783 306 783 282 q 842 364 783 333 q 874 372 865 372 q 889 353 886 372 q 901 332 892 335 q 951 330 925 331 q 1008 329 978 329 q 1245 596 1139 489 q 1444 768 1351 703 q 1622 865 1536 833 q 1653 871 1635 871 q 1700 842 1700 871 q 1686 815 1700 829 q 1414 344 1500 618 q 1453 347 1435 346 q 1489 351 1472 349 q 1501 353 1496 353 q 1511 353 1506 353 q 1536 346 1536 353 q 1406 314 1536 324 q 1371 101 1371 200 q 1399 -6 1371 10 q 1404 -8 1401 -7 q 1410 -8 1407 -8 q 1435 5 1422 -8 q 1449 18 1449 18 q 1451 8 1451 15 q 1434 -44 1451 -19 q 1393 -69 1417 -69 q 1363 -57 1378 -69 q 1319 75 1319 -22 q 1319 98 1319 86 q 1321 121 1319 110 q 1331 208 1324 161 q 1351 311 1339 256 l 1015 288 q 647 -51 821 64 q 318 -165 474 -165 m 1053 329 q 1183 333 1106 331 q 1358 340 1260 336 q 1492 690 1424 565 q 1516 733 1503 713 q 1543 774 1529 754 q 1465 735 1508 763 q 1383 678 1422 708 q 1319 625 1344 647 q 1183 484 1247 560 q 1053 329 1118 408 m 1694 942 q 1664 961 1690 942 q 1617 1013 1643 981 q 1567 1079 1590 1046 q 1564 1085 1564 1082 q 1577 1106 1564 1096 q 1600 1114 1590 1117 q 1607 1107 1604 1114 q 1640 1047 1618 1083 q 1685 975 1663 1010 q 1697 944 1697 953 q 1694 942 1697 942 m 1607 938 q 1576 956 1600 938 q 1526 1004 1554 972 q 1469 1067 1497 1036 q 1468 1074 1468 1068 q 1479 1094 1468 1085 q 1499 1104 1490 1104 q 1508 1096 1507 1104 q 1544 1038 1519 1074 q 1594 971 1569 1003 q 1610 940 1610 947 q 1607 938 1610 938 z "},"Ä":{"ha":1468,"x_min":6,"x_max":1817,"o":"m 318 -165 q 173 -136 238 -165 q 68 -57 108 -107 q 6 136 6 21 q 36 285 6 218 q 239 528 97 426 q 513 628 379 628 q 653 586 596 628 q 710 467 710 544 q 681 362 710 413 q 610 294 653 311 q 604 297 607 294 q 603 300 601 299 q 646 370 626 333 q 665 451 665 407 q 640 527 665 494 q 574 578 614 560 q 493 597 535 597 q 379 571 436 597 q 265 501 322 544 q 99 256 143 406 q 78 126 78 189 q 160 -67 78 7 q 231 -112 193 -96 q 311 -128 268 -128 q 617 -26 451 -128 q 969 283 783 76 l 843 281 q 783 306 783 282 q 842 364 783 333 q 874 372 865 372 q 889 353 886 372 q 901 332 892 335 q 951 330 925 331 q 1008 329 978 329 q 1245 596 1139 489 q 1444 768 1351 703 q 1622 865 1536 833 q 1653 871 1635 871 q 1700 842 1700 871 q 1686 815 1700 829 q 1414 344 1500 618 q 1453 347 1435 346 q 1489 351 1472 349 q 1501 353 1496 353 q 1511 353 1506 353 q 1536 346 1536 353 q 1406 314 1536 324 q 1371 101 1371 200 q 1399 -6 1371 10 q 1404 -8 1401 -7 q 1410 -8 1407 -8 q 1435 5 1422 -8 q 1449 18 1449 18 q 1451 8 1451 15 q 1434 -44 1451 -19 q 1393 -69 1417 -69 q 1363 -57 1378 -69 q 1319 75 1319 -22 q 1319 98 1319 86 q 1321 121 1319 110 q 1331 208 1324 161 q 1351 311 1339 256 l 1015 288 q 647 -51 821 64 q 318 -165 474 -165 m 1053 329 q 1183 333 1106 331 q 1358 340 1260 336 q 1492 690 1424 565 q 1516 733 1503 713 q 1543 774 1529 754 q 1465 735 1508 763 q 1383 678 1422 708 q 1319 625 1344 647 q 1183 484 1247 560 q 1053 329 1118 408 m 1738 944 q 1721 961 1729 944 q 1708 988 1710 985 q 1706 994 1706 990 q 1778 1019 1706 1019 q 1817 1010 1817 1019 q 1815 1007 1817 1008 q 1778 986 1801 1001 l 1746 949 q 1738 944 1742 944 m 1572 944 q 1556 961 1564 944 q 1542 988 1544 985 q 1540 994 1540 990 q 1613 1019 1540 1019 q 1651 1010 1651 1019 q 1650 1007 1651 1008 q 1613 986 1636 1001 l 1581 949 q 1572 944 1576 944 z "},"Ạ":{"ha":1468,"x_min":6,"x_max":1700,"o":"m 318 -165 q 173 -136 238 -165 q 68 -57 108 -107 q 6 136 6 21 q 36 285 6 218 q 239 528 97 426 q 513 628 379 628 q 653 586 596 628 q 710 467 710 544 q 681 362 710 413 q 610 294 653 311 q 604 297 607 294 q 603 300 601 299 q 646 370 626 333 q 665 451 665 407 q 640 527 665 494 q 574 578 614 560 q 493 597 535 597 q 379 571 436 597 q 265 501 322 544 q 99 256 143 406 q 78 126 78 189 q 160 -67 78 7 q 231 -112 193 -96 q 311 -128 268 -128 q 617 -26 451 -128 q 969 283 783 76 l 843 281 q 783 306 783 282 q 842 364 783 333 q 874 372 865 372 q 889 353 886 372 q 901 332 892 335 q 951 330 925 331 q 1008 329 978 329 q 1245 596 1139 489 q 1444 768 1351 703 q 1622 865 1536 833 q 1653 871 1635 871 q 1700 842 1700 871 q 1686 815 1700 829 q 1414 344 1500 618 q 1453 347 1435 346 q 1489 351 1472 349 q 1501 353 1496 353 q 1511 353 1506 353 q 1536 346 1536 353 q 1406 314 1536 324 q 1371 101 1371 200 q 1399 -6 1371 10 q 1404 -8 1401 -7 q 1410 -8 1407 -8 q 1435 5 1422 -8 q 1449 18 1449 18 q 1451 8 1451 15 q 1434 -44 1451 -19 q 1393 -69 1417 -69 q 1363 -57 1378 -69 q 1319 75 1319 -22 q 1319 98 1319 86 q 1321 121 1319 110 q 1331 208 1324 161 q 1351 311 1339 256 l 1015 288 q 647 -51 821 64 q 318 -165 474 -165 m 1053 329 q 1183 333 1106 331 q 1358 340 1260 336 q 1492 690 1424 565 q 1516 733 1503 713 q 1543 774 1529 754 q 1465 735 1508 763 q 1383 678 1422 708 q 1319 625 1344 647 q 1183 484 1247 560 q 1053 329 1118 408 m 994 -243 q 963 -238 981 -244 q 946 -224 944 -232 q 951 -213 949 -219 q 958 -201 954 -207 q 978 -177 975 -182 q 989 -172 982 -172 q 1022 -192 1006 -172 q 1023 -193 1022 -193 q 1024 -194 1024 -193 q 1013 -219 1024 -200 q 994 -243 1000 -243 z "},"À":{"ha":1468,"x_min":6,"x_max":1742,"o":"m 318 -165 q 173 -136 238 -165 q 68 -57 108 -107 q 6 136 6 21 q 36 285 6 218 q 239 528 97 426 q 513 628 379 628 q 653 586 596 628 q 710 467 710 544 q 681 362 710 413 q 610 294 653 311 q 604 297 607 294 q 603 300 601 299 q 646 370 626 333 q 665 451 665 407 q 640 527 665 494 q 574 578 614 560 q 493 597 535 597 q 379 571 436 597 q 265 501 322 544 q 99 256 143 406 q 78 126 78 189 q 160 -67 78 7 q 231 -112 193 -96 q 311 -128 268 -128 q 617 -26 451 -128 q 969 283 783 76 l 843 281 q 783 306 783 282 q 842 364 783 333 q 874 372 865 372 q 889 353 886 372 q 901 332 892 335 q 951 330 925 331 q 1008 329 978 329 q 1245 596 1139 489 q 1444 768 1351 703 q 1622 865 1536 833 q 1653 871 1635 871 q 1700 842 1700 871 q 1686 815 1700 829 q 1414 344 1500 618 q 1453 347 1435 346 q 1489 351 1472 349 q 1501 353 1496 353 q 1511 353 1506 353 q 1536 346 1536 353 q 1406 314 1536 324 q 1371 101 1371 200 q 1399 -6 1371 10 q 1404 -8 1401 -7 q 1410 -8 1407 -8 q 1435 5 1422 -8 q 1449 18 1449 18 q 1451 8 1451 15 q 1434 -44 1451 -19 q 1393 -69 1417 -69 q 1363 -57 1378 -69 q 1319 75 1319 -22 q 1319 98 1319 86 q 1321 121 1319 110 q 1331 208 1324 161 q 1351 311 1339 256 l 1015 288 q 647 -51 821 64 q 318 -165 474 -165 m 1053 329 q 1183 333 1106 331 q 1358 340 1260 336 q 1492 690 1424 565 q 1516 733 1503 713 q 1543 774 1529 754 q 1465 735 1508 763 q 1383 678 1422 708 q 1319 625 1344 647 q 1183 484 1247 560 q 1053 329 1118 408 m 1738 944 q 1704 953 1729 944 q 1642 986 1678 964 q 1572 1031 1606 1008 q 1567 1040 1569 1035 q 1575 1063 1567 1051 q 1592 1075 1583 1074 q 1601 1069 1597 1075 q 1651 1024 1618 1051 q 1718 972 1685 997 q 1742 947 1742 953 q 1738 944 1742 944 z "},"Ả":{"ha":1468,"x_min":6,"x_max":1763,"o":"m 318 -165 q 173 -136 238 -165 q 68 -57 108 -107 q 6 136 6 21 q 36 285 6 218 q 239 528 97 426 q 513 628 379 628 q 653 586 596 628 q 710 467 710 544 q 681 362 710 413 q 610 294 653 311 q 604 297 607 294 q 603 300 601 299 q 646 370 626 333 q 665 451 665 407 q 640 527 665 494 q 574 578 614 560 q 493 597 535 597 q 379 571 436 597 q 265 501 322 544 q 99 256 143 406 q 78 126 78 189 q 160 -67 78 7 q 231 -112 193 -96 q 311 -128 268 -128 q 617 -26 451 -128 q 969 283 783 76 l 843 281 q 783 306 783 282 q 842 364 783 333 q 874 372 865 372 q 889 353 886 372 q 901 332 892 335 q 951 330 925 331 q 1008 329 978 329 q 1245 596 1139 489 q 1444 768 1351 703 q 1622 865 1536 833 q 1653 871 1635 871 q 1700 842 1700 871 q 1686 815 1700 829 q 1414 344 1500 618 q 1453 347 1435 346 q 1489 351 1472 349 q 1501 353 1496 353 q 1511 353 1506 353 q 1536 346 1536 353 q 1406 314 1536 324 q 1371 101 1371 200 q 1399 -6 1371 10 q 1404 -8 1401 -7 q 1410 -8 1407 -8 q 1435 5 1422 -8 q 1449 18 1449 18 q 1451 8 1451 15 q 1434 -44 1451 -19 q 1393 -69 1417 -69 q 1363 -57 1378 -69 q 1319 75 1319 -22 q 1319 98 1319 86 q 1321 121 1319 110 q 1331 208 1324 161 q 1351 311 1339 256 l 1015 288 q 647 -51 821 64 q 318 -165 474 -165 m 1053 329 q 1183 333 1106 331 q 1358 340 1260 336 q 1492 690 1424 565 q 1516 733 1503 713 q 1543 774 1529 754 q 1465 735 1508 763 q 1383 678 1422 708 q 1319 625 1344 647 q 1183 484 1247 560 q 1053 329 1118 408 m 1640 940 q 1632 949 1632 940 q 1639 961 1632 956 q 1690 997 1668 981 q 1713 1042 1713 1013 q 1699 1067 1713 1060 q 1668 1075 1686 1075 q 1617 1066 1636 1075 q 1594 1057 1597 1057 q 1586 1058 1590 1057 q 1588 1065 1582 1060 q 1644 1103 1613 1093 q 1693 1114 1676 1114 q 1741 1097 1719 1114 q 1760 1047 1763 1079 q 1739 999 1757 1017 q 1697 970 1721 982 q 1653 944 1674 958 q 1640 940 1647 940 z "},"Ȃ":{"ha":1468,"x_min":6,"x_max":1700,"o":"m 997 -136 q 1093 -162 1058 -136 q 1128 -229 1128 -187 q 1119 -251 1128 -242 q 1101 -261 1110 -261 q 1090 -250 1093 -261 q 1058 -194 1082 -215 q 996 -172 1035 -172 q 924 -192 961 -172 q 861 -256 888 -211 q 851 -260 857 -260 q 844 -256 847 -260 q 844 -247 842 -253 q 901 -168 864 -200 q 997 -136 938 -136 m 318 -165 q 173 -136 238 -165 q 68 -57 108 -107 q 6 136 6 21 q 36 285 6 218 q 239 528 97 426 q 513 628 379 628 q 653 586 596 628 q 710 467 710 544 q 681 362 710 413 q 610 294 653 311 q 604 297 607 294 q 603 300 601 299 q 646 370 626 333 q 665 451 665 407 q 640 527 665 494 q 574 578 614 560 q 493 597 535 597 q 379 571 436 597 q 265 501 322 544 q 99 256 143 406 q 78 126 78 189 q 160 -67 78 7 q 231 -112 193 -96 q 311 -128 268 -128 q 617 -26 451 -128 q 969 283 783 76 l 843 281 q 783 306 783 282 q 842 364 783 333 q 874 372 865 372 q 889 353 886 372 q 901 332 892 335 q 951 330 925 331 q 1008 329 978 329 q 1245 596 1139 489 q 1444 768 1351 703 q 1622 865 1536 833 q 1653 871 1635 871 q 1700 842 1700 871 q 1686 815 1700 829 q 1414 344 1500 618 q 1453 347 1435 346 q 1489 351 1472 349 q 1501 353 1496 353 q 1511 353 1506 353 q 1536 346 1536 353 q 1406 314 1536 324 q 1371 101 1371 200 q 1399 -6 1371 10 q 1404 -8 1401 -7 q 1410 -8 1407 -8 q 1435 5 1422 -8 q 1449 18 1449 18 q 1451 8 1451 15 q 1434 -44 1451 -19 q 1393 -69 1417 -69 q 1363 -57 1378 -69 q 1319 75 1319 -22 q 1319 98 1319 86 q 1321 121 1319 110 q 1331 208 1324 161 q 1351 311 1339 256 l 1015 288 q 647 -51 821 64 q 318 -165 474 -165 m 1053 329 q 1183 333 1106 331 q 1358 340 1260 336 q 1492 690 1424 565 q 1516 733 1503 713 q 1543 774 1529 754 q 1465 735 1508 763 q 1383 678 1422 708 q 1319 625 1344 647 q 1183 484 1247 560 q 1053 329 1118 408 z "},"Ā":{"ha":1468,"x_min":6,"x_max":1833,"o":"m 318 -165 q 173 -136 238 -165 q 68 -57 108 -107 q 6 136 6 21 q 36 285 6 218 q 239 528 97 426 q 513 628 379 628 q 653 586 596 628 q 710 467 710 544 q 681 362 710 413 q 610 294 653 311 q 604 297 607 294 q 603 300 601 299 q 646 370 626 333 q 665 451 665 407 q 640 527 665 494 q 574 578 614 560 q 493 597 535 597 q 379 571 436 597 q 265 501 322 544 q 99 256 143 406 q 78 126 78 189 q 160 -67 78 7 q 231 -112 193 -96 q 311 -128 268 -128 q 617 -26 451 -128 q 969 283 783 76 l 843 281 q 783 306 783 282 q 842 364 783 333 q 874 372 865 372 q 889 353 886 372 q 901 332 892 335 q 951 330 925 331 q 1008 329 978 329 q 1245 596 1139 489 q 1444 768 1351 703 q 1622 865 1536 833 q 1653 871 1635 871 q 1700 842 1700 871 q 1686 815 1700 829 q 1414 344 1500 618 q 1453 347 1435 346 q 1489 351 1472 349 q 1501 353 1496 353 q 1511 353 1506 353 q 1536 346 1536 353 q 1406 314 1536 324 q 1371 101 1371 200 q 1399 -6 1371 10 q 1404 -8 1401 -7 q 1410 -8 1407 -8 q 1435 5 1422 -8 q 1449 18 1449 18 q 1451 8 1451 15 q 1434 -44 1451 -19 q 1393 -69 1417 -69 q 1363 -57 1378 -69 q 1319 75 1319 -22 q 1319 98 1319 86 q 1321 121 1319 110 q 1331 208 1324 161 q 1351 311 1339 256 l 1015 288 q 647 -51 821 64 q 318 -165 474 -165 m 1053 329 q 1183 333 1106 331 q 1358 340 1260 336 q 1492 690 1424 565 q 1516 733 1503 713 q 1543 774 1529 754 q 1465 735 1508 763 q 1383 678 1422 708 q 1319 625 1344 647 q 1183 484 1247 560 q 1053 329 1118 408 m 1542 939 q 1522 940 1524 939 q 1514 961 1517 947 q 1517 981 1511 979 q 1624 990 1529 990 q 1788 985 1743 990 q 1833 969 1833 981 q 1831 966 1832 968 q 1828 963 1831 964 q 1787 953 1825 958 q 1646 943 1749 949 q 1542 939 1571 939 z "},"Ą":{"ha":1468,"x_min":6,"x_max":1700,"o":"m 318 -165 q 173 -136 238 -165 q 68 -57 108 -107 q 6 136 6 21 q 36 285 6 218 q 239 528 97 426 q 513 628 379 628 q 653 586 596 628 q 710 467 710 544 q 681 362 710 413 q 610 294 653 311 q 604 297 607 294 q 603 300 601 299 q 646 370 626 333 q 665 451 665 407 q 640 527 665 494 q 574 578 614 560 q 493 597 535 597 q 379 571 436 597 q 265 501 322 544 q 99 256 143 406 q 78 126 78 189 q 160 -67 78 7 q 231 -112 193 -96 q 311 -128 268 -128 q 617 -26 451 -128 q 969 283 783 76 l 843 281 q 783 306 783 282 q 842 364 783 333 q 874 372 865 372 q 889 353 886 372 q 901 332 892 335 q 951 330 925 331 q 1008 329 978 329 q 1245 596 1139 489 q 1444 768 1351 703 q 1622 865 1536 833 q 1653 871 1635 871 q 1700 842 1700 871 q 1686 815 1700 829 q 1414 344 1500 618 q 1453 347 1435 346 q 1489 351 1472 349 q 1501 353 1496 353 q 1511 353 1506 353 q 1536 346 1536 353 q 1406 314 1536 324 q 1371 101 1371 200 q 1399 -6 1371 10 q 1404 -8 1401 -7 q 1410 -8 1407 -8 q 1435 5 1422 -8 q 1449 18 1449 18 q 1451 8 1451 15 q 1434 -44 1451 -19 q 1393 -69 1417 -69 q 1363 -57 1378 -69 q 1319 75 1319 -22 q 1319 98 1319 86 q 1321 121 1319 110 q 1331 208 1324 161 q 1351 311 1339 256 l 1015 288 q 647 -51 821 64 q 318 -165 474 -165 m 1053 329 q 1183 333 1106 331 q 1358 340 1260 336 q 1492 690 1424 565 q 1516 733 1503 713 q 1543 774 1529 754 q 1465 735 1508 763 q 1383 678 1422 708 q 1319 625 1344 647 q 1183 484 1247 560 q 1053 329 1118 408 m 1326 -274 q 1242 -197 1242 -258 q 1271 -121 1242 -164 q 1346 -46 1300 -78 q 1367 -33 1358 -36 q 1381 -29 1376 -29 q 1386 -33 1386 -29 q 1371 -54 1386 -42 q 1335 -97 1356 -68 q 1301 -156 1315 -125 q 1286 -211 1286 -187 q 1296 -238 1286 -229 q 1318 -251 1306 -247 q 1338 -254 1324 -254 q 1387 -242 1360 -254 q 1436 -211 1414 -229 q 1443 -208 1439 -208 q 1451 -219 1451 -208 q 1438 -240 1451 -232 q 1374 -269 1403 -262 q 1326 -274 1346 -276 z "},"Å":{"ha":1468,"x_min":6,"x_max":1776,"o":"m 318 -165 q 173 -136 238 -165 q 68 -57 108 -107 q 6 136 6 21 q 36 285 6 218 q 239 528 97 426 q 513 628 379 628 q 653 586 596 628 q 710 467 710 544 q 681 362 710 413 q 610 294 653 311 q 604 297 607 294 q 603 300 601 299 q 646 370 626 333 q 665 451 665 407 q 640 527 665 494 q 574 578 614 560 q 493 597 535 597 q 379 571 436 597 q 265 501 322 544 q 99 256 143 406 q 78 126 78 189 q 160 -67 78 7 q 231 -112 193 -96 q 311 -128 268 -128 q 617 -26 451 -128 q 969 283 783 76 l 843 281 q 783 306 783 282 q 842 364 783 333 q 874 372 865 372 q 889 353 886 372 q 901 332 892 335 q 951 330 925 331 q 1008 329 978 329 q 1245 596 1139 489 q 1444 768 1351 703 q 1622 865 1536 833 q 1653 871 1635 871 q 1700 842 1700 871 q 1686 815 1700 829 q 1414 344 1500 618 q 1453 347 1435 346 q 1489 351 1472 349 q 1501 353 1496 353 q 1511 353 1506 353 q 1536 346 1536 353 q 1406 314 1536 324 q 1371 101 1371 200 q 1399 -6 1371 10 q 1404 -8 1401 -7 q 1410 -8 1407 -8 q 1435 5 1422 -8 q 1449 18 1449 18 q 1451 8 1451 15 q 1434 -44 1451 -19 q 1393 -69 1417 -69 q 1363 -57 1378 -69 q 1319 75 1319 -22 q 1319 98 1319 86 q 1321 121 1319 110 q 1331 208 1324 161 q 1351 311 1339 256 l 1015 288 q 647 -51 821 64 q 318 -165 474 -165 m 1053 329 q 1183 333 1106 331 q 1358 340 1260 336 q 1492 690 1424 565 q 1516 733 1503 713 q 1543 774 1529 754 q 1465 735 1508 763 q 1383 678 1422 708 q 1319 625 1344 647 q 1183 484 1247 560 q 1053 329 1118 408 m 1672 939 q 1619 960 1640 939 q 1597 1013 1597 982 q 1628 1085 1597 1054 q 1700 1117 1660 1117 q 1755 1096 1733 1117 q 1776 1043 1776 1075 q 1745 969 1776 1000 q 1672 939 1714 939 m 1671 961 q 1708 980 1690 961 q 1733 1028 1726 999 q 1735 1038 1735 1033 q 1736 1049 1736 1043 q 1727 1081 1736 1068 q 1703 1093 1718 1093 q 1660 1065 1681 1093 q 1639 1004 1639 1036 q 1671 961 1639 961 z "},"Ǻ":{"ha":1468,"x_min":6,"x_max":1829,"o":"m 318 -165 q 173 -136 238 -165 q 68 -57 108 -107 q 6 136 6 21 q 36 285 6 218 q 239 528 97 426 q 513 628 379 628 q 653 586 596 628 q 710 467 710 544 q 681 362 710 413 q 610 294 653 311 q 604 297 607 294 q 603 300 601 299 q 646 370 626 333 q 665 451 665 407 q 640 527 665 494 q 574 578 614 560 q 493 597 535 597 q 379 571 436 597 q 265 501 322 544 q 99 256 143 406 q 78 126 78 189 q 160 -67 78 7 q 231 -112 193 -96 q 311 -128 268 -128 q 617 -26 451 -128 q 969 283 783 76 l 843 281 q 783 306 783 282 q 842 364 783 333 q 874 372 865 372 q 889 353 886 372 q 901 332 892 335 q 951 330 925 331 q 1008 329 978 329 q 1245 596 1139 489 q 1444 768 1351 703 q 1622 865 1536 833 q 1653 871 1635 871 q 1700 842 1700 871 q 1686 815 1700 829 q 1414 344 1500 618 q 1453 347 1435 346 q 1489 351 1472 349 q 1501 353 1496 353 q 1511 353 1506 353 q 1536 346 1536 353 q 1406 314 1536 324 q 1371 101 1371 200 q 1399 -6 1371 10 q 1404 -8 1401 -7 q 1410 -8 1407 -8 q 1435 5 1422 -8 q 1449 18 1449 18 q 1451 8 1451 15 q 1434 -44 1451 -19 q 1393 -69 1417 -69 q 1363 -57 1378 -69 q 1319 75 1319 -22 q 1319 98 1319 86 q 1321 121 1319 110 q 1331 208 1324 161 q 1351 311 1339 256 l 1015 288 q 647 -51 821 64 q 318 -165 474 -165 m 1053 329 q 1183 333 1106 331 q 1358 340 1260 336 q 1492 690 1424 565 q 1516 733 1503 713 q 1543 774 1529 754 q 1465 735 1508 763 q 1383 678 1422 708 q 1319 625 1344 647 q 1183 484 1247 560 q 1053 329 1118 408 m 1672 939 q 1619 960 1640 939 q 1597 1013 1597 982 q 1628 1085 1597 1054 q 1700 1117 1660 1117 q 1755 1096 1733 1117 q 1776 1043 1776 1075 q 1745 969 1776 1000 q 1672 939 1714 939 m 1671 961 q 1708 980 1690 961 q 1733 1028 1726 999 q 1735 1038 1735 1033 q 1736 1049 1736 1043 q 1727 1081 1736 1068 q 1703 1093 1718 1093 q 1660 1065 1681 1093 q 1639 1004 1639 1036 q 1671 961 1639 961 m 1658 1153 q 1654 1156 1654 1153 q 1678 1181 1654 1161 q 1744 1233 1711 1206 q 1793 1279 1778 1261 q 1804 1283 1800 1283 q 1821 1271 1813 1282 q 1829 1249 1829 1260 q 1824 1239 1828 1243 q 1754 1194 1790 1217 q 1690 1163 1718 1172 q 1669 1156 1678 1158 q 1658 1153 1661 1153 z "},"Ã":{"ha":1468,"x_min":6,"x_max":1831,"o":"m 318 -165 q 173 -136 238 -165 q 68 -57 108 -107 q 6 136 6 21 q 36 285 6 218 q 239 528 97 426 q 513 628 379 628 q 653 586 596 628 q 710 467 710 544 q 681 362 710 413 q 610 294 653 311 q 604 297 607 294 q 603 300 601 299 q 646 370 626 333 q 665 451 665 407 q 640 527 665 494 q 574 578 614 560 q 493 597 535 597 q 379 571 436 597 q 265 501 322 544 q 99 256 143 406 q 78 126 78 189 q 160 -67 78 7 q 231 -112 193 -96 q 311 -128 268 -128 q 617 -26 451 -128 q 969 283 783 76 l 843 281 q 783 306 783 282 q 842 364 783 333 q 874 372 865 372 q 889 353 886 372 q 901 332 892 335 q 951 330 925 331 q 1008 329 978 329 q 1245 596 1139 489 q 1444 768 1351 703 q 1622 865 1536 833 q 1653 871 1635 871 q 1700 842 1700 871 q 1686 815 1700 829 q 1414 344 1500 618 q 1453 347 1435 346 q 1489 351 1472 349 q 1501 353 1496 353 q 1511 353 1506 353 q 1536 346 1536 353 q 1406 314 1536 324 q 1371 101 1371 200 q 1399 -6 1371 10 q 1404 -8 1401 -7 q 1410 -8 1407 -8 q 1435 5 1422 -8 q 1449 18 1449 18 q 1451 8 1451 15 q 1434 -44 1451 -19 q 1393 -69 1417 -69 q 1363 -57 1378 -69 q 1319 75 1319 -22 q 1319 98 1319 86 q 1321 121 1319 110 q 1331 208 1324 161 q 1351 311 1339 256 l 1015 288 q 647 -51 821 64 q 318 -165 474 -165 m 1053 329 q 1183 333 1106 331 q 1358 340 1260 336 q 1492 690 1424 565 q 1516 733 1503 713 q 1543 774 1529 754 q 1465 735 1508 763 q 1383 678 1422 708 q 1319 625 1344 647 q 1183 484 1247 560 q 1053 329 1118 408 m 1746 933 q 1697 944 1725 933 q 1643 968 1669 954 q 1601 988 1617 983 q 1578 992 1586 992 q 1536 951 1553 992 q 1528 944 1532 944 q 1521 957 1521 944 q 1524 972 1521 963 q 1533 990 1526 981 q 1594 1038 1565 1038 q 1628 1028 1611 1038 q 1668 1010 1646 1019 l 1738 979 q 1767 978 1756 974 q 1784 986 1776 979 q 1799 1003 1792 993 q 1809 1017 1806 1011 q 1815 1026 1813 1022 q 1824 1033 1819 1033 q 1826 1021 1831 1033 q 1822 1003 1824 1011 q 1808 978 1819 994 q 1779 944 1797 956 q 1746 933 1761 933 z "},"B":{"ha":1251,"x_min":67,"x_max":1285,"o":"m 190 -81 q 67 90 67 -81 q 101 278 67 179 q 175 414 133 372 q 218 440 201 440 q 246 406 236 440 q 264 336 256 372 q 406 82 308 176 q 664 393 528 196 l 606 400 q 569 428 569 408 q 603 447 569 451 q 641 443 618 444 q 694 440 664 442 q 753 532 729 492 q 792 603 778 572 q 869 713 818 663 q 943 754 915 754 q 958 738 958 754 q 918 649 958 710 q 849 545 886 597 q 771 439 811 493 q 921 458 846 443 q 1060 502 996 474 q 1165 575 1124 531 q 1211 683 1206 619 q 1193 760 1214 724 q 1132 826 1172 796 q 882 913 1042 899 q 800 917 843 917 q 406 829 585 917 q 228 647 228 743 q 297 554 228 594 q 325 538 325 543 q 303 531 325 531 q 238 540 263 531 q 131 667 131 593 q 313 857 131 771 q 761 947 506 947 q 875 942 808 947 q 1013 924 942 938 q 1145 881 1083 910 q 1246 806 1207 853 q 1285 686 1285 758 q 1252 585 1285 629 q 1166 510 1219 542 q 1048 456 1113 478 q 919 423 983 435 q 801 408 854 411 q 949 397 871 404 q 1095 374 1026 390 q 1208 328 1164 358 q 1251 244 1251 297 q 1224 136 1251 189 q 1138 35 1197 83 q 765 -81 997 -81 q 665 -75 717 -81 q 557 -58 613 -69 q 389 31 468 -39 q 190 -81 263 -81 m 751 -42 q 1058 54 932 -42 q 1167 221 1167 138 q 1128 300 1167 268 q 1033 350 1090 332 q 913 376 975 368 q 801 386 851 385 q 732 386 751 388 q 607 242 683 322 q 425 64 531 161 q 578 -19 493 1 q 751 -42 665 -42 m 199 -37 q 369 50 268 -37 q 211 268 256 151 q 193 289 203 289 q 153 232 176 289 q 124 126 135 185 q 119 81 119 104 q 199 -37 119 -37 z "},"C":{"ha":1024,"x_min":89,"x_max":1132,"o":"m 385 -146 q 164 -56 246 -146 q 89 156 89 28 q 132 344 89 250 q 356 651 210 514 q 721 875 503 789 q 921 917 825 917 q 1074 877 1015 917 q 1132 771 1132 838 q 1122 701 1132 738 q 1079 624 1111 664 q 900 458 1003 522 q 802 417 847 428 q 717 406 757 406 q 603 500 618 406 l 603 506 q 624 524 603 524 q 644 506 643 524 q 722 435 656 435 q 872 493 788 435 q 953 558 917 522 q 1019 633 989 593 q 1085 785 1085 724 q 944 883 1085 883 q 744 836 849 883 q 549 727 639 789 q 383 588 458 665 q 213 340 269 469 q 171 154 171 247 q 226 -17 171 47 q 415 -90 292 -90 q 471 -87 442 -90 q 532 -76 500 -83 q 846 67 664 -47 q 1053 215 988 154 q 1113 257 1097 257 q 1115 254 1115 257 q 1097 228 1115 244 q 978 125 1029 168 q 893 58 926 82 q 734 -40 813 0 q 579 -108 656 -81 q 385 -146 474 -146 z "},"Ć":{"ha":1024,"x_min":89,"x_max":1132,"o":"m 385 -146 q 164 -56 246 -146 q 89 156 89 28 q 132 344 89 250 q 356 651 210 514 q 721 875 503 789 q 921 917 825 917 q 1074 877 1015 917 q 1132 771 1132 838 q 1122 701 1132 738 q 1079 624 1111 664 q 900 458 1003 522 q 802 417 847 428 q 717 406 757 406 q 603 500 618 406 l 603 506 q 624 524 603 524 q 644 506 643 524 q 722 435 656 435 q 872 493 788 435 q 953 558 917 522 q 1019 633 989 593 q 1085 785 1085 724 q 944 883 1085 883 q 744 836 849 883 q 549 727 639 789 q 383 588 458 665 q 213 340 269 469 q 171 154 171 247 q 226 -17 171 47 q 415 -90 292 -90 q 471 -87 442 -90 q 532 -76 500 -83 q 846 67 664 -47 q 1053 215 988 154 q 1113 257 1097 257 q 1115 254 1115 257 q 1097 228 1115 244 q 978 125 1029 168 q 893 58 926 82 q 734 -40 813 0 q 579 -108 656 -81 q 385 -146 474 -146 m 876 990 q 872 993 872 990 q 896 1018 872 999 q 963 1071 929 1043 q 1011 1117 996 1099 q 1022 1121 1018 1121 q 1039 1108 1031 1119 q 1047 1086 1047 1097 q 1042 1076 1046 1081 q 972 1032 1008 1054 q 908 1000 936 1010 q 888 993 896 996 q 876 990 879 990 z "},"Č":{"ha":1024,"x_min":89,"x_max":1135,"o":"m 1122 1129 q 1135 1119 1135 1129 q 1126 1108 1135 1113 q 1101 1090 1113 1097 q 1082 1078 1090 1083 q 1029 1047 1064 1068 q 958 1000 994 1026 q 933 989 943 989 q 903 1026 921 989 q 867 1073 893 1047 q 811 1099 840 1099 q 791 1097 800 1099 q 775 1089 782 1096 q 758 1082 767 1082 q 753 1086 753 1082 q 760 1097 753 1090 q 795 1122 779 1114 q 842 1129 811 1129 q 905 1105 875 1129 q 946 1056 935 1081 q 965 1042 951 1042 q 992 1053 976 1042 q 1048 1088 1019 1072 q 1111 1126 1076 1104 q 1117 1128 1114 1128 q 1122 1129 1119 1129 m 385 -146 q 164 -56 246 -146 q 89 156 89 28 q 132 344 89 250 q 356 651 210 514 q 721 875 503 789 q 921 917 825 917 q 1074 877 1015 917 q 1132 771 1132 838 q 1122 701 1132 738 q 1079 624 1111 664 q 900 458 1003 522 q 802 417 847 428 q 717 406 757 406 q 603 500 618 406 l 603 506 q 624 524 603 524 q 644 506 643 524 q 722 435 656 435 q 872 493 788 435 q 953 558 917 522 q 1019 633 989 593 q 1085 785 1085 724 q 944 883 1085 883 q 744 836 849 883 q 549 727 639 789 q 383 588 458 665 q 213 340 269 469 q 171 154 171 247 q 226 -17 171 47 q 415 -90 292 -90 q 471 -87 442 -90 q 532 -76 500 -83 q 846 67 664 -47 q 1053 215 988 154 q 1113 257 1097 257 q 1115 254 1115 257 q 1097 228 1115 244 q 978 125 1029 168 q 893 58 926 82 q 734 -40 813 0 q 579 -108 656 -81 q 385 -146 474 -146 z "},"Ç":{"ha":1024,"x_min":89,"x_max":1132,"o":"m 385 -146 q 164 -56 246 -146 q 89 156 89 28 q 132 344 89 250 q 356 651 210 514 q 721 875 503 789 q 921 917 825 917 q 1074 877 1015 917 q 1132 771 1132 838 q 1122 701 1132 738 q 1079 624 1111 664 q 900 458 1003 522 q 802 417 847 428 q 717 406 757 406 q 603 500 618 406 l 603 506 q 624 524 603 524 q 644 506 643 524 q 722 435 656 435 q 872 493 788 435 q 953 558 917 522 q 1019 633 989 593 q 1085 785 1085 724 q 944 883 1085 883 q 744 836 849 883 q 549 727 639 789 q 383 588 458 665 q 213 340 269 469 q 171 154 171 247 q 226 -17 171 47 q 415 -90 292 -90 q 471 -87 442 -90 q 532 -76 500 -83 q 846 67 664 -47 q 1053 215 988 154 q 1113 257 1097 257 q 1115 254 1115 257 q 1097 228 1115 244 q 978 125 1029 168 q 893 58 926 82 q 734 -40 813 0 q 579 -108 656 -81 q 385 -146 474 -146 m 239 -418 q 143 -376 154 -418 l 143 -374 q 151 -353 143 -362 q 165 -343 158 -343 q 176 -356 171 -343 q 203 -381 182 -372 q 251 -389 225 -389 q 319 -372 293 -389 q 340 -347 333 -361 q 347 -321 347 -332 q 336 -287 347 -301 q 304 -268 325 -272 q 286 -265 301 -267 q 242 -262 271 -262 q 238 -262 240 -262 q 231 -264 235 -262 q 217 -264 222 -265 q 208 -256 213 -262 l 208 -251 q 208 -249 207 -250 q 208 -246 208 -247 q 222 -228 210 -239 q 239 -212 235 -218 l 347 -118 q 356 -112 351 -112 q 364 -124 363 -112 l 326 -161 q 305 -183 321 -168 q 276 -212 289 -199 q 263 -229 263 -226 l 265 -229 l 290 -231 q 369 -253 333 -231 q 397 -311 404 -275 q 366 -366 392 -342 q 306 -404 340 -390 q 239 -418 272 -418 z "},"Ĉ":{"ha":1024,"x_min":89,"x_max":1175,"o":"m 385 -146 q 164 -56 246 -146 q 89 156 89 28 q 132 344 89 250 q 356 651 210 514 q 721 875 503 789 q 921 917 825 917 q 1074 877 1015 917 q 1132 771 1132 838 q 1122 701 1132 738 q 1079 624 1111 664 q 900 458 1003 522 q 802 417 847 428 q 717 406 757 406 q 603 500 618 406 l 603 506 q 624 524 603 524 q 644 506 643 524 q 722 435 656 435 q 872 493 788 435 q 953 558 917 522 q 1019 633 989 593 q 1085 785 1085 724 q 944 883 1085 883 q 744 836 849 883 q 549 727 639 789 q 383 588 458 665 q 213 340 269 469 q 171 154 171 247 q 226 -17 171 47 q 415 -90 292 -90 q 471 -87 442 -90 q 532 -76 500 -83 q 846 67 664 -47 q 1053 215 988 154 q 1113 257 1097 257 q 1115 254 1115 257 q 1097 228 1115 244 q 978 125 1029 168 q 893 58 926 82 q 734 -40 813 0 q 579 -108 656 -81 q 385 -146 474 -146 m 806 989 q 793 999 793 989 q 801 1010 793 1006 q 826 1028 815 1021 q 846 1040 838 1035 q 899 1072 864 1051 q 969 1118 933 1092 q 994 1129 985 1129 q 1025 1092 1007 1129 q 1061 1045 1035 1071 q 1117 1019 1088 1019 q 1137 1022 1128 1019 q 1153 1029 1146 1024 q 1169 1036 1161 1036 q 1175 1032 1175 1036 q 1168 1021 1175 1028 q 1134 997 1150 1004 q 1086 989 1118 989 q 1023 1013 1053 989 q 982 1063 993 1038 q 963 1076 976 1076 q 936 1065 951 1076 q 881 1031 910 1046 q 817 992 853 1015 q 811 990 814 990 q 806 989 808 989 z "},"Ċ":{"ha":1024,"x_min":89,"x_max":1132,"o":"m 385 -146 q 164 -56 246 -146 q 89 156 89 28 q 132 344 89 250 q 356 651 210 514 q 721 875 503 789 q 921 917 825 917 q 1074 877 1015 917 q 1132 771 1132 838 q 1122 701 1132 738 q 1079 624 1111 664 q 900 458 1003 522 q 802 417 847 428 q 717 406 757 406 q 603 500 618 406 l 603 506 q 624 524 603 524 q 644 506 643 524 q 722 435 656 435 q 872 493 788 435 q 953 558 917 522 q 1019 633 989 593 q 1085 785 1085 724 q 944 883 1085 883 q 744 836 849 883 q 549 727 639 789 q 383 588 458 665 q 213 340 269 469 q 171 154 171 247 q 226 -17 171 47 q 415 -90 292 -90 q 471 -87 442 -90 q 532 -76 500 -83 q 846 67 664 -47 q 1053 215 988 154 q 1113 257 1097 257 q 1115 254 1115 257 q 1097 228 1115 244 q 978 125 1029 168 q 893 58 926 82 q 734 -40 813 0 q 579 -108 656 -81 q 385 -146 474 -146 m 932 988 q 894 993 915 986 q 875 1010 874 1000 q 890 1036 879 1021 q 913 1065 910 1060 q 926 1071 917 1071 q 965 1047 946 1071 q 966 1045 965 1046 q 967 1043 967 1044 q 954 1014 967 1035 q 932 988 938 988 z "},"D":{"ha":1135,"x_min":-129,"x_max":1289,"o":"m 269 -129 q 225 -115 249 -129 q 201 -101 210 -106 q 190 -96 193 -97 q 140 -8 140 -72 q 176 125 140 44 q 479 621 290 371 q 515 681 504 651 q 536 708 522 699 q 603 743 553 724 q 679 763 653 763 q 704 743 707 763 q 669 714 703 738 q 625 678 647 697 q 581 635 603 658 q 414 414 517 571 q 307 232 357 326 q 215 35 257 138 q 199 -33 199 -4 q 243 -96 199 -81 q 800 61 517 -107 q 1179 447 1076 225 q 1208 572 1208 510 q 1090 790 1208 701 q 767 897 971 881 q 689 902 728 900 q 613 904 650 904 q 126 806 311 904 q -33 607 -33 721 q 114 456 -33 499 q 154 443 154 449 q 119 429 154 435 q 101 427 110 428 q 83 426 92 426 q 69 426 76 426 q 56 428 63 426 q -129 592 -129 474 q 64 819 -129 718 q 604 932 279 932 q 775 924 688 932 q 1150 804 1013 900 q 1289 567 1289 708 q 1260 436 1289 503 q 875 53 1167 222 q 269 -129 578 -119 z "},"Ǆ":{"ha":1964,"x_min":-129,"x_max":2308,"o":"m 2122 1011 q 2135 1001 2135 1011 q 2126 990 2135 994 q 2101 972 2113 979 q 2082 960 2090 965 q 2029 929 2064 950 q 1958 882 1994 908 q 1933 871 1943 871 q 1903 908 1921 871 q 1867 955 1893 929 q 1811 981 1840 981 q 1791 979 1800 981 q 1775 971 1782 978 q 1758 964 1767 964 q 1753 968 1753 964 q 1760 979 1753 972 q 1795 1003 1779 996 q 1842 1011 1811 1011 q 1905 987 1875 1011 q 1946 938 1935 963 q 1965 924 1951 924 q 1992 935 1976 924 q 2048 970 2019 954 q 2111 1008 2076 986 q 2117 1010 2114 1010 q 2122 1011 2119 1011 m 269 -129 q 225 -115 249 -129 q 201 -101 210 -106 q 190 -96 193 -97 q 140 -8 140 -72 q 176 125 140 44 q 479 621 290 371 q 515 681 504 651 q 536 708 522 699 q 603 743 553 724 q 679 763 653 763 q 704 743 707 763 q 669 714 703 738 q 625 678 647 697 q 581 635 603 658 q 414 414 517 571 q 307 232 357 326 q 215 35 257 138 q 199 -33 199 -4 q 243 -96 199 -81 q 800 61 517 -107 q 1179 447 1076 225 q 1208 572 1208 510 q 1090 790 1208 701 q 767 897 971 881 q 689 902 728 900 q 613 904 650 904 q 126 806 311 904 q -33 607 -33 721 q 114 456 -33 499 q 154 443 154 449 q 119 429 154 435 q 101 427 110 428 q 83 426 92 426 q 69 426 76 426 q 56 428 63 426 q -129 592 -129 474 q 64 819 -129 718 q 604 932 279 932 q 775 924 688 932 q 1150 804 1013 900 q 1289 567 1289 708 q 1260 436 1289 503 q 875 53 1167 222 q 269 -129 578 -119 m 2029 -171 q 1801 -122 1944 -171 q 1442 29 1657 -72 q 1328 -27 1385 -10 q 1228 -44 1272 -44 q 1149 -25 1181 -44 q 1111 44 1111 0 q 1129 105 1111 76 q 1172 139 1147 133 q 1213 146 1200 146 q 1435 63 1279 146 l 1806 489 q 1917 606 1858 550 q 2043 714 1976 663 l 1868 758 q 1779 776 1825 769 q 1685 783 1733 783 q 1583 774 1633 783 q 1488 743 1533 765 q 1428 690 1451 725 q 1404 619 1404 656 q 1422 569 1404 592 q 1479 536 1439 546 q 1479 529 1478 535 q 1478 524 1481 524 q 1418 539 1446 524 q 1375 574 1390 554 q 1351 638 1351 606 q 1379 720 1351 686 q 1451 775 1407 754 q 1542 806 1494 796 q 1629 815 1590 815 q 1731 808 1675 815 q 1853 785 1788 800 q 2065 729 1857 785 q 2232 807 2172 807 q 2284 793 2260 807 q 2308 751 2308 779 q 2286 704 2308 722 q 2214 686 2264 686 q 2088 703 2167 686 q 1990 597 2047 668 q 1849 425 1933 526 q 1471 44 1646 181 q 1551 10 1515 25 q 1625 -19 1586 -4 q 1782 -78 1715 -56 q 1890 -110 1849 -100 q 1960 -121 1926 -117 q 2024 -125 1993 -125 q 2218 -75 2133 -125 q 2265 -17 2239 -64 q 2297 26 2292 26 q 2304 -3 2304 26 q 2294 -60 2304 -33 q 2257 -108 2283 -86 q 2029 -171 2186 -171 m 2200 706 q 2258 738 2258 706 q 2218 769 2258 769 q 2107 719 2165 769 q 2160 709 2136 713 q 2200 706 2183 706 m 1261 -8 q 1408 46 1340 -8 l 1372 67 q 1299 99 1333 90 q 1236 107 1264 107 q 1167 50 1167 107 q 1189 11 1167 26 q 1239 -7 1211 -4 q 1250 -8 1244 -7 q 1261 -8 1256 -8 z "},"Ď":{"ha":1135,"x_min":-129,"x_max":1289,"o":"m 1185 1064 q 1197 1054 1197 1064 q 1189 1043 1197 1047 q 1164 1025 1175 1032 q 1144 1013 1153 1018 q 1099 982 1126 1003 q 1035 935 1071 961 q 1010 924 1019 924 q 979 961 997 924 q 951 1008 969 982 q 904 1033 933 1033 q 884 1032 893 1033 q 868 1024 875 1031 q 851 1017 860 1017 q 846 1021 846 1017 q 853 1032 846 1025 q 888 1056 872 1049 q 935 1064 904 1064 q 990 1040 968 1064 q 1022 990 1011 1015 q 1042 976 1028 976 q 1068 988 1053 976 q 1117 1023 1096 1007 q 1174 1061 1139 1039 q 1179 1063 1176 1063 q 1185 1064 1182 1064 m 269 -129 q 225 -115 249 -129 q 201 -101 210 -106 q 190 -96 193 -97 q 140 -8 140 -72 q 176 125 140 44 q 479 621 290 371 q 515 681 504 651 q 536 708 522 699 q 603 743 553 724 q 679 763 653 763 q 704 743 707 763 q 669 714 703 738 q 625 678 647 697 q 581 635 603 658 q 414 414 517 571 q 307 232 357 326 q 215 35 257 138 q 199 -33 199 -4 q 243 -96 199 -81 q 800 61 517 -107 q 1179 447 1076 225 q 1208 572 1208 510 q 1090 790 1208 701 q 767 897 971 881 q 689 902 728 900 q 613 904 650 904 q 126 806 311 904 q -33 607 -33 721 q 114 456 -33 499 q 154 443 154 449 q 119 429 154 435 q 101 427 110 428 q 83 426 92 426 q 69 426 76 426 q 56 428 63 426 q -129 592 -129 474 q 64 819 -129 718 q 604 932 279 932 q 775 924 688 932 q 1150 804 1013 900 q 1289 567 1289 708 q 1260 436 1289 503 q 875 53 1167 222 q 269 -129 578 -119 z "},"Đ":{"ha":1135,"x_min":-129,"x_max":1289,"o":"m 269 -129 q 225 -115 249 -129 q 201 -101 210 -106 q 190 -96 193 -97 q 140 -8 140 -72 q 176 125 140 44 q 479 621 290 371 q 515 681 504 651 q 536 708 522 699 q 603 743 553 724 q 679 763 653 763 q 704 743 707 763 q 669 714 703 738 q 625 678 647 697 q 581 635 603 658 q 414 414 517 571 q 307 232 357 326 q 215 35 257 138 q 199 -33 199 -4 q 243 -96 199 -81 q 800 61 517 -107 q 1179 447 1076 225 q 1208 572 1208 510 q 1090 790 1208 701 q 767 897 971 881 q 689 902 728 900 q 613 904 650 904 q 126 806 311 904 q -33 607 -33 721 q 114 456 -33 499 q 154 443 154 449 q 119 429 154 435 q 101 427 110 428 q 83 426 92 426 q 69 426 76 426 q 56 428 63 426 q -129 592 -129 474 q 64 819 -129 718 q 604 932 279 932 q 775 924 688 932 q 1150 804 1013 900 q 1289 567 1289 708 q 1260 436 1289 503 q 875 53 1167 222 q 269 -129 578 -119 m 182 292 q 146 293 149 292 q 133 311 138 297 q 132 321 132 315 q 138 331 132 329 q 292 338 150 338 q 504 319 504 338 q 502 316 503 318 q 499 313 501 314 q 322 296 486 301 q 182 292 226 292 z "},"ǅ":{"ha":1654,"x_min":-129,"x_max":1701,"o":"m 1689 622 q 1701 613 1701 622 q 1693 601 1701 606 q 1668 583 1679 590 q 1649 571 1657 576 q 1603 540 1631 561 q 1539 493 1575 519 q 1514 482 1524 482 q 1483 519 1501 482 q 1456 566 1474 540 q 1408 592 1438 592 q 1388 590 1397 592 q 1372 582 1379 589 q 1356 575 1364 575 q 1350 579 1350 575 q 1357 590 1350 583 q 1392 615 1376 607 q 1439 622 1408 622 q 1494 598 1472 622 q 1526 549 1515 574 q 1546 535 1532 535 q 1572 546 1557 535 q 1622 581 1600 565 q 1678 619 1643 597 q 1683 622 1681 621 q 1689 622 1686 622 m 269 -129 q 225 -115 249 -129 q 201 -101 210 -106 q 190 -96 193 -97 q 140 -8 140 -72 q 176 125 140 44 q 479 621 290 371 q 515 681 504 651 q 536 708 522 699 q 603 743 553 724 q 679 763 653 763 q 704 743 707 763 q 669 714 703 738 q 625 678 647 697 q 581 635 603 658 q 414 414 517 571 q 307 232 357 326 q 215 35 257 138 q 199 -33 199 -4 q 243 -96 199 -81 q 800 61 517 -107 q 1179 447 1076 225 q 1208 572 1208 510 q 1090 790 1208 701 q 767 897 971 881 q 689 902 728 900 q 613 904 650 904 q 126 806 311 904 q -33 607 -33 721 q 114 456 -33 499 q 154 443 154 449 q 119 429 154 435 q 101 427 110 428 q 83 426 92 426 q 69 426 76 426 q 56 428 63 426 q -129 592 -129 474 q 64 819 -129 718 q 604 932 279 932 q 775 924 688 932 q 1150 804 1013 900 q 1289 567 1289 708 q 1260 436 1289 503 q 875 53 1167 222 q 269 -129 578 -119 m 1485 -7 q 1465 -6 1475 -7 q 1443 -6 1454 -6 q 1342 -5 1399 -7 q 1217 1 1286 -3 q 1190 26 1200 4 q 1182 49 1182 42 q 1271 134 1208 82 q 1433 256 1333 186 q 1579 374 1597 372 q 1549 376 1564 375 q 1521 376 1535 376 q 1383 350 1432 376 q 1329 328 1342 328 q 1313 346 1313 328 q 1326 378 1313 360 q 1353 400 1339 397 q 1492 413 1394 411 q 1524 413 1508 413 q 1553 414 1539 414 q 1626 410 1600 414 q 1653 385 1639 407 q 1669 347 1669 363 q 1667 339 1669 342 q 1551 263 1600 296 q 1471 208 1503 231 q 1251 39 1335 114 q 1299 28 1249 33 q 1411 19 1356 19 q 1532 33 1486 19 q 1640 107 1628 61 q 1649 115 1643 115 q 1669 75 1669 115 q 1650 31 1669 50 q 1485 -7 1615 -7 z "},"E":{"ha":1161,"x_min":-75,"x_max":1269,"o":"m 528 -172 q 324 -152 413 -172 q 164 -85 236 -132 q 48 39 88 -33 q 8 196 8 111 q 14 259 8 226 q 31 324 19 292 q -75 392 -75 338 q -67 417 -75 406 q -47 429 -58 429 q -36 425 -42 429 q 64 399 -14 410 q 181 549 107 479 q 357 681 254 619 q 726 835 517 776 q 986 882 893 882 q 1192 855 1131 882 q 1253 758 1253 828 q 1221 719 1253 719 q 1192 768 1185 719 q 1132 838 1199 817 q 1021 851 1090 851 q 582 739 840 851 q 153 392 263 599 q 197 390 175 390 q 242 390 219 390 q 289 390 265 390 q 336 392 313 390 q 690 429 460 396 q 978 458 906 458 q 1107 392 1107 458 q 1076 350 1107 350 q 1060 382 1060 350 q 982 433 1060 433 q 885 422 956 433 q 703 386 815 410 q 492 347 586 361 q 329 331 399 333 q 244 326 296 329 q 121 319 192 322 q 99 204 99 267 q 123 81 99 143 q 203 -28 147 19 q 538 -136 336 -136 q 763 -112 656 -136 q 968 -49 871 -87 q 1221 131 1144 22 q 1263 168 1249 168 q 1269 158 1269 168 q 1257 121 1269 144 q 1028 -58 1207 29 q 788 -143 917 -114 q 528 -172 660 -172 z "},"É":{"ha":1161,"x_min":-75,"x_max":1269,"o":"m 528 -172 q 324 -152 413 -172 q 164 -85 236 -132 q 48 39 88 -33 q 8 196 8 111 q 14 259 8 226 q 31 324 19 292 q -75 392 -75 338 q -67 417 -75 406 q -47 429 -58 429 q -36 425 -42 429 q 64 399 -14 410 q 181 549 107 479 q 357 681 254 619 q 726 835 517 776 q 986 882 893 882 q 1192 855 1131 882 q 1253 758 1253 828 q 1221 719 1253 719 q 1192 768 1185 719 q 1132 838 1199 817 q 1021 851 1090 851 q 582 739 840 851 q 153 392 263 599 q 197 390 175 390 q 242 390 219 390 q 289 390 265 390 q 336 392 313 390 q 690 429 460 396 q 978 458 906 458 q 1107 392 1107 458 q 1076 350 1107 350 q 1060 382 1060 350 q 982 433 1060 433 q 885 422 956 433 q 703 386 815 410 q 492 347 586 361 q 329 331 399 333 q 244 326 296 329 q 121 319 192 322 q 99 204 99 267 q 123 81 99 143 q 203 -28 147 19 q 538 -136 336 -136 q 763 -112 656 -136 q 968 -49 871 -87 q 1221 131 1144 22 q 1263 168 1249 168 q 1269 158 1269 168 q 1257 121 1269 144 q 1028 -58 1207 29 q 788 -143 917 -114 q 528 -172 660 -172 m 815 947 q 811 950 811 947 q 835 975 811 956 q 901 1028 868 1000 q 950 1074 935 1056 q 961 1078 957 1078 q 978 1065 969 1076 q 986 1043 986 1054 q 981 1033 985 1038 q 911 989 947 1011 q 847 957 875 967 q 826 950 835 953 q 815 947 818 947 z "},"Ĕ":{"ha":1161,"x_min":-75,"x_max":1269,"o":"m 528 -172 q 324 -152 413 -172 q 164 -85 236 -132 q 48 39 88 -33 q 8 196 8 111 q 14 259 8 226 q 31 324 19 292 q -75 392 -75 338 q -67 417 -75 406 q -47 429 -58 429 q -36 425 -42 429 q 64 399 -14 410 q 181 549 107 479 q 357 681 254 619 q 726 835 517 776 q 986 882 893 882 q 1192 855 1131 882 q 1253 758 1253 828 q 1221 719 1253 719 q 1192 768 1185 719 q 1132 838 1199 817 q 1021 851 1090 851 q 582 739 840 851 q 153 392 263 599 q 197 390 175 390 q 242 390 219 390 q 289 390 265 390 q 336 392 313 390 q 690 429 460 396 q 978 458 906 458 q 1107 392 1107 458 q 1076 350 1107 350 q 1060 382 1060 350 q 982 433 1060 433 q 885 422 956 433 q 703 386 815 410 q 492 347 586 361 q 329 331 399 333 q 244 326 296 329 q 121 319 192 322 q 99 204 99 267 q 123 81 99 143 q 203 -28 147 19 q 538 -136 336 -136 q 763 -112 656 -136 q 968 -49 871 -87 q 1221 131 1144 22 q 1263 168 1249 168 q 1269 158 1269 168 q 1257 121 1269 144 q 1028 -58 1207 29 q 788 -143 917 -114 q 528 -172 660 -172 m 874 943 q 778 969 814 943 q 743 1036 743 994 q 752 1058 743 1049 q 769 1068 761 1068 q 781 1057 778 1068 q 813 1001 789 1022 q 875 979 836 979 q 947 999 910 979 q 1010 1063 983 1019 q 1019 1067 1014 1067 q 1026 1064 1024 1067 q 1026 1054 1029 1061 q 972 975 1008 1007 q 874 943 935 943 z "},"Ě":{"ha":1161,"x_min":-75,"x_max":1269,"o":"m 1061 1086 q 1074 1076 1074 1086 q 1065 1065 1074 1069 q 1040 1047 1051 1054 q 1021 1035 1029 1040 q 968 1004 1003 1025 q 897 957 933 983 q 872 946 882 946 q 842 983 860 946 q 806 1030 832 1004 q 750 1056 779 1056 q 730 1054 739 1056 q 714 1046 721 1053 q 697 1039 706 1039 q 692 1043 692 1039 q 699 1054 692 1047 q 734 1078 718 1071 q 781 1086 750 1086 q 844 1062 814 1086 q 885 1013 874 1038 q 904 999 890 999 q 931 1010 915 999 q 987 1045 958 1029 q 1050 1083 1015 1061 q 1056 1085 1053 1085 q 1061 1086 1058 1086 m 528 -172 q 324 -152 413 -172 q 164 -85 236 -132 q 48 39 88 -33 q 8 196 8 111 q 14 259 8 226 q 31 324 19 292 q -75 392 -75 338 q -67 417 -75 406 q -47 429 -58 429 q -36 425 -42 429 q 64 399 -14 410 q 181 549 107 479 q 357 681 254 619 q 726 835 517 776 q 986 882 893 882 q 1192 855 1131 882 q 1253 758 1253 828 q 1221 719 1253 719 q 1192 768 1185 719 q 1132 838 1199 817 q 1021 851 1090 851 q 582 739 840 851 q 153 392 263 599 q 197 390 175 390 q 242 390 219 390 q 289 390 265 390 q 336 392 313 390 q 690 429 460 396 q 978 458 906 458 q 1107 392 1107 458 q 1076 350 1107 350 q 1060 382 1060 350 q 982 433 1060 433 q 885 422 956 433 q 703 386 815 410 q 492 347 586 361 q 329 331 399 333 q 244 326 296 329 q 121 319 192 322 q 99 204 99 267 q 123 81 99 143 q 203 -28 147 19 q 538 -136 336 -136 q 763 -112 656 -136 q 968 -49 871 -87 q 1221 131 1144 22 q 1263 168 1249 168 q 1269 158 1269 168 q 1257 121 1269 144 q 1028 -58 1207 29 q 788 -143 917 -114 q 528 -172 660 -172 z "},"Ê":{"ha":1161,"x_min":-75,"x_max":1269,"o":"m 528 -172 q 324 -152 413 -172 q 164 -85 236 -132 q 48 39 88 -33 q 8 196 8 111 q 14 259 8 226 q 31 324 19 292 q -75 392 -75 338 q -67 417 -75 406 q -47 429 -58 429 q -36 425 -42 429 q 64 399 -14 410 q 181 549 107 479 q 357 681 254 619 q 726 835 517 776 q 986 882 893 882 q 1192 855 1131 882 q 1253 758 1253 828 q 1221 719 1253 719 q 1192 768 1185 719 q 1132 838 1199 817 q 1021 851 1090 851 q 582 739 840 851 q 153 392 263 599 q 197 390 175 390 q 242 390 219 390 q 289 390 265 390 q 336 392 313 390 q 690 429 460 396 q 978 458 906 458 q 1107 392 1107 458 q 1076 350 1107 350 q 1060 382 1060 350 q 982 433 1060 433 q 885 422 956 433 q 703 386 815 410 q 492 347 586 361 q 329 331 399 333 q 244 326 296 329 q 121 319 192 322 q 99 204 99 267 q 123 81 99 143 q 203 -28 147 19 q 538 -136 336 -136 q 763 -112 656 -136 q 968 -49 871 -87 q 1221 131 1144 22 q 1263 168 1249 168 q 1269 158 1269 168 q 1257 121 1269 144 q 1028 -58 1207 29 q 788 -143 917 -114 q 528 -172 660 -172 m 744 946 q 732 956 732 946 q 740 967 732 963 q 765 985 754 978 q 785 997 776 992 q 838 1028 803 1008 q 908 1075 872 1049 q 933 1086 924 1086 q 964 1049 946 1086 q 1000 1002 974 1028 q 1056 976 1026 976 q 1076 978 1067 976 q 1092 986 1085 981 q 1108 993 1100 993 q 1114 989 1114 993 q 1107 978 1114 985 q 1073 953 1089 961 q 1025 946 1057 946 q 962 970 992 946 q 921 1019 932 994 q 901 1033 915 1033 q 875 1022 890 1033 q 820 988 849 1003 q 756 949 792 972 q 750 947 753 947 q 744 946 747 946 z "},"Ế":{"ha":1161,"x_min":-75,"x_max":1269,"o":"m 528 -172 q 324 -152 413 -172 q 164 -85 236 -132 q 48 39 88 -33 q 8 196 8 111 q 14 259 8 226 q 31 324 19 292 q -75 392 -75 338 q -67 417 -75 406 q -47 429 -58 429 q -36 425 -42 429 q 64 399 -14 410 q 181 549 107 479 q 357 681 254 619 q 726 835 517 776 q 986 882 893 882 q 1192 855 1131 882 q 1253 758 1253 828 q 1221 719 1253 719 q 1192 768 1185 719 q 1132 838 1199 817 q 1021 851 1090 851 q 582 739 840 851 q 153 392 263 599 q 197 390 175 390 q 242 390 219 390 q 289 390 265 390 q 336 392 313 390 q 690 429 460 396 q 978 458 906 458 q 1107 392 1107 458 q 1076 350 1107 350 q 1060 382 1060 350 q 982 433 1060 433 q 885 422 956 433 q 703 386 815 410 q 492 347 586 361 q 329 331 399 333 q 244 326 296 329 q 121 319 192 322 q 99 204 99 267 q 123 81 99 143 q 203 -28 147 19 q 538 -136 336 -136 q 763 -112 656 -136 q 968 -49 871 -87 q 1221 131 1144 22 q 1263 168 1249 168 q 1269 158 1269 168 q 1257 121 1269 144 q 1028 -58 1207 29 q 788 -143 917 -114 q 528 -172 660 -172 m 744 946 q 732 956 732 946 q 740 967 732 963 q 765 985 754 978 q 785 997 776 992 q 838 1028 803 1008 q 908 1075 872 1049 q 933 1086 924 1086 q 964 1049 946 1086 q 1000 1002 974 1028 q 1056 976 1026 976 q 1076 978 1067 976 q 1092 986 1085 981 q 1108 993 1100 993 q 1114 989 1114 993 q 1107 978 1114 985 q 1073 953 1089 961 q 1025 946 1057 946 q 962 970 992 946 q 921 1019 932 994 q 901 1033 915 1033 q 875 1022 890 1033 q 820 988 849 1003 q 756 949 792 972 q 750 947 753 947 q 744 946 747 946 m 1031 1060 q 1026 1063 1026 1060 q 1050 1088 1026 1068 q 1117 1140 1083 1113 q 1165 1186 1150 1168 q 1176 1190 1172 1190 q 1193 1178 1185 1189 q 1201 1156 1201 1167 q 1196 1146 1200 1150 q 1126 1101 1163 1124 q 1063 1069 1090 1079 q 1042 1063 1050 1065 q 1031 1060 1033 1060 z "},"Ệ":{"ha":1161,"x_min":-75,"x_max":1269,"o":"m 528 -172 q 324 -152 413 -172 q 164 -85 236 -132 q 48 39 88 -33 q 8 196 8 111 q 14 259 8 226 q 31 324 19 292 q -75 392 -75 338 q -67 417 -75 406 q -47 429 -58 429 q -36 425 -42 429 q 64 399 -14 410 q 181 549 107 479 q 357 681 254 619 q 726 835 517 776 q 986 882 893 882 q 1192 855 1131 882 q 1253 758 1253 828 q 1221 719 1253 719 q 1192 768 1185 719 q 1132 838 1199 817 q 1021 851 1090 851 q 582 739 840 851 q 153 392 263 599 q 197 390 175 390 q 242 390 219 390 q 289 390 265 390 q 336 392 313 390 q 690 429 460 396 q 978 458 906 458 q 1107 392 1107 458 q 1076 350 1107 350 q 1060 382 1060 350 q 982 433 1060 433 q 885 422 956 433 q 703 386 815 410 q 492 347 586 361 q 329 331 399 333 q 244 326 296 329 q 121 319 192 322 q 99 204 99 267 q 123 81 99 143 q 203 -28 147 19 q 538 -136 336 -136 q 763 -112 656 -136 q 968 -49 871 -87 q 1221 131 1144 22 q 1263 168 1249 168 q 1269 158 1269 168 q 1257 121 1269 144 q 1028 -58 1207 29 q 788 -143 917 -114 q 528 -172 660 -172 m 382 -333 q 350 -328 368 -335 q 333 -314 332 -322 q 339 -303 336 -310 q 346 -292 342 -297 q 366 -267 363 -272 q 376 -262 369 -262 q 410 -282 393 -262 q 410 -283 410 -283 q 411 -285 411 -283 q 400 -310 411 -290 q 382 -333 388 -333 m 744 946 q 732 956 732 946 q 740 967 732 963 q 765 985 754 978 q 785 997 776 992 q 838 1028 803 1008 q 908 1075 872 1049 q 933 1086 924 1086 q 964 1049 946 1086 q 1000 1002 974 1028 q 1056 976 1026 976 q 1076 978 1067 976 q 1092 986 1085 981 q 1108 993 1100 993 q 1114 989 1114 993 q 1107 978 1114 985 q 1073 953 1089 961 q 1025 946 1057 946 q 962 970 992 946 q 921 1019 932 994 q 901 1033 915 1033 q 875 1022 890 1033 q 820 988 849 1003 q 756 949 792 972 q 750 947 753 947 q 744 946 747 946 z "},"Ề":{"ha":1161,"x_min":-75,"x_max":1269,"o":"m 528 -172 q 324 -152 413 -172 q 164 -85 236 -132 q 48 39 88 -33 q 8 196 8 111 q 14 259 8 226 q 31 324 19 292 q -75 392 -75 338 q -67 417 -75 406 q -47 429 -58 429 q -36 425 -42 429 q 64 399 -14 410 q 181 549 107 479 q 357 681 254 619 q 726 835 517 776 q 986 882 893 882 q 1192 855 1131 882 q 1253 758 1253 828 q 1221 719 1253 719 q 1192 768 1185 719 q 1132 838 1199 817 q 1021 851 1090 851 q 582 739 840 851 q 153 392 263 599 q 197 390 175 390 q 242 390 219 390 q 289 390 265 390 q 336 392 313 390 q 690 429 460 396 q 978 458 906 458 q 1107 392 1107 458 q 1076 350 1107 350 q 1060 382 1060 350 q 982 433 1060 433 q 885 422 956 433 q 703 386 815 410 q 492 347 586 361 q 329 331 399 333 q 244 326 296 329 q 121 319 192 322 q 99 204 99 267 q 123 81 99 143 q 203 -28 147 19 q 538 -136 336 -136 q 763 -112 656 -136 q 968 -49 871 -87 q 1221 131 1144 22 q 1263 168 1249 168 q 1269 158 1269 168 q 1257 121 1269 144 q 1028 -58 1207 29 q 788 -143 917 -114 q 528 -172 660 -172 m 744 946 q 732 956 732 946 q 740 967 732 963 q 765 985 754 978 q 785 997 776 992 q 838 1028 803 1008 q 908 1075 872 1049 q 933 1086 924 1086 q 964 1049 946 1086 q 1000 1002 974 1028 q 1056 976 1026 976 q 1076 978 1067 976 q 1092 986 1085 981 q 1108 993 1100 993 q 1114 989 1114 993 q 1107 978 1114 985 q 1073 953 1089 961 q 1025 946 1057 946 q 962 970 992 946 q 921 1019 932 994 q 901 1033 915 1033 q 875 1022 890 1033 q 820 988 849 1003 q 756 949 792 972 q 750 947 753 947 q 744 946 747 946 m 1160 1060 q 1126 1068 1151 1060 q 1064 1101 1100 1079 q 994 1146 1028 1124 q 989 1156 992 1150 q 997 1178 989 1167 q 1014 1190 1006 1189 q 1024 1185 1019 1190 q 1074 1140 1040 1167 q 1140 1088 1107 1113 q 1164 1063 1164 1068 q 1160 1060 1164 1060 z "},"Ể":{"ha":1161,"x_min":-75,"x_max":1269,"o":"m 528 -172 q 324 -152 413 -172 q 164 -85 236 -132 q 48 39 88 -33 q 8 196 8 111 q 14 259 8 226 q 31 324 19 292 q -75 392 -75 338 q -67 417 -75 406 q -47 429 -58 429 q -36 425 -42 429 q 64 399 -14 410 q 181 549 107 479 q 357 681 254 619 q 726 835 517 776 q 986 882 893 882 q 1192 855 1131 882 q 1253 758 1253 828 q 1221 719 1253 719 q 1192 768 1185 719 q 1132 838 1199 817 q 1021 851 1090 851 q 582 739 840 851 q 153 392 263 599 q 197 390 175 390 q 242 390 219 390 q 289 390 265 390 q 336 392 313 390 q 690 429 460 396 q 978 458 906 458 q 1107 392 1107 458 q 1076 350 1107 350 q 1060 382 1060 350 q 982 433 1060 433 q 885 422 956 433 q 703 386 815 410 q 492 347 586 361 q 329 331 399 333 q 244 326 296 329 q 121 319 192 322 q 99 204 99 267 q 123 81 99 143 q 203 -28 147 19 q 538 -136 336 -136 q 763 -112 656 -136 q 968 -49 871 -87 q 1221 131 1144 22 q 1263 168 1249 168 q 1269 158 1269 168 q 1257 121 1269 144 q 1028 -58 1207 29 q 788 -143 917 -114 q 528 -172 660 -172 m 744 946 q 732 956 732 946 q 740 967 732 963 q 765 985 754 978 q 785 997 776 992 q 838 1028 803 1008 q 908 1075 872 1049 q 933 1086 924 1086 q 964 1049 946 1086 q 1000 1002 974 1028 q 1056 976 1026 976 q 1076 978 1067 976 q 1092 986 1085 981 q 1108 993 1100 993 q 1114 989 1114 993 q 1107 978 1114 985 q 1073 953 1089 961 q 1025 946 1057 946 q 962 970 992 946 q 921 1019 932 994 q 901 1033 915 1033 q 875 1022 890 1033 q 820 988 849 1003 q 756 949 792 972 q 750 947 753 947 q 744 946 747 946 m 1063 1056 q 1054 1064 1054 1056 q 1061 1076 1054 1071 q 1113 1112 1090 1096 q 1135 1157 1135 1128 q 1122 1183 1135 1175 q 1090 1190 1108 1190 q 1039 1181 1058 1190 q 1017 1172 1019 1172 q 1008 1174 1013 1172 q 1010 1181 1004 1175 q 1067 1219 1035 1208 q 1115 1229 1099 1229 q 1163 1212 1142 1229 q 1182 1163 1185 1194 q 1161 1115 1179 1132 q 1119 1085 1143 1097 q 1075 1060 1096 1074 q 1063 1056 1069 1056 z "},"Ễ":{"ha":1161,"x_min":-75,"x_max":1269,"o":"m 528 -172 q 324 -152 413 -172 q 164 -85 236 -132 q 48 39 88 -33 q 8 196 8 111 q 14 259 8 226 q 31 324 19 292 q -75 392 -75 338 q -67 417 -75 406 q -47 429 -58 429 q -36 425 -42 429 q 64 399 -14 410 q 181 549 107 479 q 357 681 254 619 q 726 835 517 776 q 986 882 893 882 q 1192 855 1131 882 q 1253 758 1253 828 q 1221 719 1253 719 q 1192 768 1185 719 q 1132 838 1199 817 q 1021 851 1090 851 q 582 739 840 851 q 153 392 263 599 q 197 390 175 390 q 242 390 219 390 q 289 390 265 390 q 336 392 313 390 q 690 429 460 396 q 978 458 906 458 q 1107 392 1107 458 q 1076 350 1107 350 q 1060 382 1060 350 q 982 433 1060 433 q 885 422 956 433 q 703 386 815 410 q 492 347 586 361 q 329 331 399 333 q 244 326 296 329 q 121 319 192 322 q 99 204 99 267 q 123 81 99 143 q 203 -28 147 19 q 538 -136 336 -136 q 763 -112 656 -136 q 968 -49 871 -87 q 1221 131 1144 22 q 1263 168 1249 168 q 1269 158 1269 168 q 1257 121 1269 144 q 1028 -58 1207 29 q 788 -143 917 -114 q 528 -172 660 -172 m 744 946 q 732 956 732 946 q 740 967 732 963 q 765 985 754 978 q 785 997 776 992 q 838 1028 803 1008 q 908 1075 872 1049 q 933 1086 924 1086 q 964 1049 946 1086 q 1000 1002 974 1028 q 1056 976 1026 976 q 1076 978 1067 976 q 1092 986 1085 981 q 1108 993 1100 993 q 1114 989 1114 993 q 1107 978 1114 985 q 1073 953 1089 961 q 1025 946 1057 946 q 962 970 992 946 q 921 1019 932 994 q 901 1033 915 1033 q 875 1022 890 1033 q 820 988 849 1003 q 756 949 792 972 q 750 947 753 947 q 744 946 747 946 m 1044 1107 q 996 1117 1024 1107 q 942 1142 968 1128 q 900 1161 915 1157 q 876 1165 885 1165 q 835 1125 851 1165 q 826 1118 831 1118 q 819 1131 819 1118 q 822 1145 819 1136 q 832 1164 825 1154 q 893 1211 864 1211 q 927 1202 910 1211 q 967 1183 944 1193 l 1036 1153 q 1065 1151 1054 1147 q 1083 1160 1075 1153 q 1097 1176 1090 1167 q 1108 1190 1104 1185 q 1114 1200 1111 1196 q 1122 1207 1118 1207 q 1125 1194 1129 1207 q 1120 1176 1122 1185 q 1107 1151 1118 1168 q 1078 1118 1096 1129 q 1044 1107 1060 1107 z "},"Ȅ":{"ha":1161,"x_min":-75,"x_max":1269,"o":"m 528 -172 q 324 -152 413 -172 q 164 -85 236 -132 q 48 39 88 -33 q 8 196 8 111 q 14 259 8 226 q 31 324 19 292 q -75 392 -75 338 q -67 417 -75 406 q -47 429 -58 429 q -36 425 -42 429 q 64 399 -14 410 q 181 549 107 479 q 357 681 254 619 q 726 835 517 776 q 986 882 893 882 q 1192 855 1131 882 q 1253 758 1253 828 q 1221 719 1253 719 q 1192 768 1185 719 q 1132 838 1199 817 q 1021 851 1090 851 q 582 739 840 851 q 153 392 263 599 q 197 390 175 390 q 242 390 219 390 q 289 390 265 390 q 336 392 313 390 q 690 429 460 396 q 978 458 906 458 q 1107 392 1107 458 q 1076 350 1107 350 q 1060 382 1060 350 q 982 433 1060 433 q 885 422 956 433 q 703 386 815 410 q 492 347 586 361 q 329 331 399 333 q 244 326 296 329 q 121 319 192 322 q 99 204 99 267 q 123 81 99 143 q 203 -28 147 19 q 538 -136 336 -136 q 763 -112 656 -136 q 968 -49 871 -87 q 1221 131 1144 22 q 1263 168 1249 168 q 1269 158 1269 168 q 1257 121 1269 144 q 1028 -58 1207 29 q 788 -143 917 -114 q 528 -172 660 -172 m 901 944 q 871 964 897 944 q 824 1016 850 983 q 774 1082 797 1049 q 771 1088 771 1085 q 784 1109 771 1099 q 807 1117 797 1119 q 814 1110 811 1117 q 847 1049 825 1086 q 892 978 869 1013 q 904 947 904 956 q 901 944 904 944 m 814 940 q 783 958 807 940 q 733 1007 761 975 q 676 1069 704 1039 q 675 1076 675 1071 q 686 1097 675 1088 q 706 1107 697 1107 q 715 1099 714 1107 q 751 1041 726 1076 q 801 974 776 1006 q 817 943 817 950 q 814 940 817 940 z "},"Ë":{"ha":1161,"x_min":-75,"x_max":1269,"o":"m 528 -172 q 324 -152 413 -172 q 164 -85 236 -132 q 48 39 88 -33 q 8 196 8 111 q 14 259 8 226 q 31 324 19 292 q -75 392 -75 338 q -67 417 -75 406 q -47 429 -58 429 q -36 425 -42 429 q 64 399 -14 410 q 181 549 107 479 q 357 681 254 619 q 726 835 517 776 q 986 882 893 882 q 1192 855 1131 882 q 1253 758 1253 828 q 1221 719 1253 719 q 1192 768 1185 719 q 1132 838 1199 817 q 1021 851 1090 851 q 582 739 840 851 q 153 392 263 599 q 197 390 175 390 q 242 390 219 390 q 289 390 265 390 q 336 392 313 390 q 690 429 460 396 q 978 458 906 458 q 1107 392 1107 458 q 1076 350 1107 350 q 1060 382 1060 350 q 982 433 1060 433 q 885 422 956 433 q 703 386 815 410 q 492 347 586 361 q 329 331 399 333 q 244 326 296 329 q 121 319 192 322 q 99 204 99 267 q 123 81 99 143 q 203 -28 147 19 q 538 -136 336 -136 q 763 -112 656 -136 q 968 -49 871 -87 q 1221 131 1144 22 q 1263 168 1249 168 q 1269 158 1269 168 q 1257 121 1269 144 q 1028 -58 1207 29 q 788 -143 917 -114 q 528 -172 660 -172 m 944 947 q 928 964 936 947 q 915 990 917 988 q 913 997 913 993 q 985 1022 913 1022 q 1024 1013 1024 1022 q 1022 1010 1024 1011 q 985 989 1008 1004 l 953 951 q 944 947 949 947 m 779 947 q 763 964 771 947 q 749 990 751 988 q 747 997 747 993 q 819 1022 747 1022 q 858 1013 858 1022 q 857 1010 858 1011 q 819 989 843 1004 l 788 951 q 779 947 783 947 z "},"Ė":{"ha":1161,"x_min":-75,"x_max":1269,"o":"m 528 -172 q 324 -152 413 -172 q 164 -85 236 -132 q 48 39 88 -33 q 8 196 8 111 q 14 259 8 226 q 31 324 19 292 q -75 392 -75 338 q -67 417 -75 406 q -47 429 -58 429 q -36 425 -42 429 q 64 399 -14 410 q 181 549 107 479 q 357 681 254 619 q 726 835 517 776 q 986 882 893 882 q 1192 855 1131 882 q 1253 758 1253 828 q 1221 719 1253 719 q 1192 768 1185 719 q 1132 838 1199 817 q 1021 851 1090 851 q 582 739 840 851 q 153 392 263 599 q 197 390 175 390 q 242 390 219 390 q 289 390 265 390 q 336 392 313 390 q 690 429 460 396 q 978 458 906 458 q 1107 392 1107 458 q 1076 350 1107 350 q 1060 382 1060 350 q 982 433 1060 433 q 885 422 956 433 q 703 386 815 410 q 492 347 586 361 q 329 331 399 333 q 244 326 296 329 q 121 319 192 322 q 99 204 99 267 q 123 81 99 143 q 203 -28 147 19 q 538 -136 336 -136 q 763 -112 656 -136 q 968 -49 871 -87 q 1221 131 1144 22 q 1263 168 1249 168 q 1269 158 1269 168 q 1257 121 1269 144 q 1028 -58 1207 29 q 788 -143 917 -114 q 528 -172 660 -172 m 871 944 q 833 950 854 943 q 814 967 813 957 q 829 993 818 978 q 852 1022 849 1017 q 865 1028 856 1028 q 904 1004 885 1028 q 905 1002 904 1003 q 906 1000 906 1001 q 893 971 906 992 q 871 944 876 944 z "},"Ẹ":{"ha":1161,"x_min":-75,"x_max":1269,"o":"m 528 -172 q 324 -152 413 -172 q 164 -85 236 -132 q 48 39 88 -33 q 8 196 8 111 q 14 259 8 226 q 31 324 19 292 q -75 392 -75 338 q -67 417 -75 406 q -47 429 -58 429 q -36 425 -42 429 q 64 399 -14 410 q 181 549 107 479 q 357 681 254 619 q 726 835 517 776 q 986 882 893 882 q 1192 855 1131 882 q 1253 758 1253 828 q 1221 719 1253 719 q 1192 768 1185 719 q 1132 838 1199 817 q 1021 851 1090 851 q 582 739 840 851 q 153 392 263 599 q 197 390 175 390 q 242 390 219 390 q 289 390 265 390 q 336 392 313 390 q 690 429 460 396 q 978 458 906 458 q 1107 392 1107 458 q 1076 350 1107 350 q 1060 382 1060 350 q 982 433 1060 433 q 885 422 956 433 q 703 386 815 410 q 492 347 586 361 q 329 331 399 333 q 244 326 296 329 q 121 319 192 322 q 99 204 99 267 q 123 81 99 143 q 203 -28 147 19 q 538 -136 336 -136 q 763 -112 656 -136 q 968 -49 871 -87 q 1221 131 1144 22 q 1263 168 1249 168 q 1269 158 1269 168 q 1257 121 1269 144 q 1028 -58 1207 29 q 788 -143 917 -114 q 528 -172 660 -172 m 382 -333 q 350 -328 368 -335 q 333 -314 332 -322 q 339 -303 336 -310 q 346 -292 342 -297 q 366 -267 363 -272 q 376 -262 369 -262 q 410 -282 393 -262 q 410 -283 410 -283 q 411 -285 411 -283 q 400 -310 411 -290 q 382 -333 388 -333 z "},"È":{"ha":1161,"x_min":-75,"x_max":1269,"o":"m 528 -172 q 324 -152 413 -172 q 164 -85 236 -132 q 48 39 88 -33 q 8 196 8 111 q 14 259 8 226 q 31 324 19 292 q -75 392 -75 338 q -67 417 -75 406 q -47 429 -58 429 q -36 425 -42 429 q 64 399 -14 410 q 181 549 107 479 q 357 681 254 619 q 726 835 517 776 q 986 882 893 882 q 1192 855 1131 882 q 1253 758 1253 828 q 1221 719 1253 719 q 1192 768 1185 719 q 1132 838 1199 817 q 1021 851 1090 851 q 582 739 840 851 q 153 392 263 599 q 197 390 175 390 q 242 390 219 390 q 289 390 265 390 q 336 392 313 390 q 690 429 460 396 q 978 458 906 458 q 1107 392 1107 458 q 1076 350 1107 350 q 1060 382 1060 350 q 982 433 1060 433 q 885 422 956 433 q 703 386 815 410 q 492 347 586 361 q 329 331 399 333 q 244 326 296 329 q 121 319 192 322 q 99 204 99 267 q 123 81 99 143 q 203 -28 147 19 q 538 -136 336 -136 q 763 -112 656 -136 q 968 -49 871 -87 q 1221 131 1144 22 q 1263 168 1249 168 q 1269 158 1269 168 q 1257 121 1269 144 q 1028 -58 1207 29 q 788 -143 917 -114 q 528 -172 660 -172 m 944 947 q 911 956 936 947 q 849 989 885 967 q 779 1033 813 1011 q 774 1043 776 1038 q 782 1065 774 1054 q 799 1078 790 1076 q 808 1072 804 1078 q 858 1027 825 1054 q 925 975 892 1000 q 949 950 949 956 q 944 947 949 947 z "},"Ẻ":{"ha":1161,"x_min":-75,"x_max":1269,"o":"m 528 -172 q 324 -152 413 -172 q 164 -85 236 -132 q 48 39 88 -33 q 8 196 8 111 q 14 259 8 226 q 31 324 19 292 q -75 392 -75 338 q -67 417 -75 406 q -47 429 -58 429 q -36 425 -42 429 q 64 399 -14 410 q 181 549 107 479 q 357 681 254 619 q 726 835 517 776 q 986 882 893 882 q 1192 855 1131 882 q 1253 758 1253 828 q 1221 719 1253 719 q 1192 768 1185 719 q 1132 838 1199 817 q 1021 851 1090 851 q 582 739 840 851 q 153 392 263 599 q 197 390 175 390 q 242 390 219 390 q 289 390 265 390 q 336 392 313 390 q 690 429 460 396 q 978 458 906 458 q 1107 392 1107 458 q 1076 350 1107 350 q 1060 382 1060 350 q 982 433 1060 433 q 885 422 956 433 q 703 386 815 410 q 492 347 586 361 q 329 331 399 333 q 244 326 296 329 q 121 319 192 322 q 99 204 99 267 q 123 81 99 143 q 203 -28 147 19 q 538 -136 336 -136 q 763 -112 656 -136 q 968 -49 871 -87 q 1221 131 1144 22 q 1263 168 1249 168 q 1269 158 1269 168 q 1257 121 1269 144 q 1028 -58 1207 29 q 788 -143 917 -114 q 528 -172 660 -172 m 847 943 q 839 951 839 943 q 846 964 839 958 q 897 999 875 983 q 919 1044 919 1015 q 906 1070 919 1063 q 875 1078 893 1078 q 824 1069 843 1078 q 801 1060 804 1060 q 793 1061 797 1060 q 794 1068 789 1063 q 851 1106 819 1096 q 900 1117 883 1117 q 948 1099 926 1117 q 967 1050 969 1082 q 946 1002 964 1019 q 904 973 928 985 q 860 947 881 961 q 847 943 854 943 z "},"Ȇ":{"ha":1161,"x_min":-75,"x_max":1269,"o":"m 385 -226 q 481 -252 446 -226 q 515 -319 515 -278 q 506 -342 515 -332 q 489 -351 497 -351 q 478 -340 481 -351 q 446 -284 469 -306 q 383 -262 422 -262 q 312 -282 349 -262 q 249 -346 275 -301 q 239 -350 244 -350 q 232 -347 235 -350 q 232 -337 229 -343 q 288 -258 251 -290 q 385 -226 325 -226 m 528 -172 q 324 -152 413 -172 q 164 -85 236 -132 q 48 39 88 -33 q 8 196 8 111 q 14 259 8 226 q 31 324 19 292 q -75 392 -75 338 q -67 417 -75 406 q -47 429 -58 429 q -36 425 -42 429 q 64 399 -14 410 q 181 549 107 479 q 357 681 254 619 q 726 835 517 776 q 986 882 893 882 q 1192 855 1131 882 q 1253 758 1253 828 q 1221 719 1253 719 q 1192 768 1185 719 q 1132 838 1199 817 q 1021 851 1090 851 q 582 739 840 851 q 153 392 263 599 q 197 390 175 390 q 242 390 219 390 q 289 390 265 390 q 336 392 313 390 q 690 429 460 396 q 978 458 906 458 q 1107 392 1107 458 q 1076 350 1107 350 q 1060 382 1060 350 q 982 433 1060 433 q 885 422 956 433 q 703 386 815 410 q 492 347 586 361 q 329 331 399 333 q 244 326 296 329 q 121 319 192 322 q 99 204 99 267 q 123 81 99 143 q 203 -28 147 19 q 538 -136 336 -136 q 763 -112 656 -136 q 968 -49 871 -87 q 1221 131 1144 22 q 1263 168 1249 168 q 1269 158 1269 168 q 1257 121 1269 144 q 1028 -58 1207 29 q 788 -143 917 -114 q 528 -172 660 -172 z "},"Ē":{"ha":1161,"x_min":-75,"x_max":1269,"o":"m 528 -172 q 324 -152 413 -172 q 164 -85 236 -132 q 48 39 88 -33 q 8 196 8 111 q 14 259 8 226 q 31 324 19 292 q -75 392 -75 338 q -67 417 -75 406 q -47 429 -58 429 q -36 425 -42 429 q 64 399 -14 410 q 181 549 107 479 q 357 681 254 619 q 726 835 517 776 q 986 882 893 882 q 1192 855 1131 882 q 1253 758 1253 828 q 1221 719 1253 719 q 1192 768 1185 719 q 1132 838 1199 817 q 1021 851 1090 851 q 582 739 840 851 q 153 392 263 599 q 197 390 175 390 q 242 390 219 390 q 289 390 265 390 q 336 392 313 390 q 690 429 460 396 q 978 458 906 458 q 1107 392 1107 458 q 1076 350 1107 350 q 1060 382 1060 350 q 982 433 1060 433 q 885 422 956 433 q 703 386 815 410 q 492 347 586 361 q 329 331 399 333 q 244 326 296 329 q 121 319 192 322 q 99 204 99 267 q 123 81 99 143 q 203 -28 147 19 q 538 -136 336 -136 q 763 -112 656 -136 q 968 -49 871 -87 q 1221 131 1144 22 q 1263 168 1249 168 q 1269 158 1269 168 q 1257 121 1269 144 q 1028 -58 1207 29 q 788 -143 917 -114 q 528 -172 660 -172 m 749 942 q 729 943 731 942 q 721 964 724 950 q 724 983 718 982 q 831 993 736 993 q 995 988 950 993 q 1040 972 1040 983 q 1038 969 1039 971 q 1035 965 1038 967 q 994 956 1032 961 q 853 946 956 951 q 749 942 778 942 z "},"Ŋ":{"ha":1190,"x_min":10,"x_max":1360,"o":"m 547 -549 q 472 -508 508 -550 q 439 -411 439 -468 q 469 -309 439 -357 q 558 -222 499 -261 q 590 -207 582 -207 q 594 -212 594 -207 q 579 -236 594 -221 q 498 -338 526 -289 q 469 -442 469 -387 q 487 -502 469 -479 q 532 -524 504 -525 q 715 -426 625 -517 q 806 -308 751 -390 q 915 -126 860 -225 q 970 -21 939 -86 q 1037 126 1001 44 q 1108 292 1072 207 q 1175 455 1143 376 q 1231 595 1207 533 q 1267 690 1254 657 q 1269 700 1268 696 q 1269 708 1269 704 q 1240 738 1269 738 q 1149 707 1208 738 q 863 478 1017 642 q 525 -3 672 276 q 542 -16 528 -10 q 549 -28 556 -22 q 490 -46 549 -46 q 439 -31 439 -46 q 565 311 439 50 l 697 575 q 772 800 772 733 q 650 874 772 874 q 349 782 543 874 q 158 640 239 729 q 69 465 69 546 q 110 380 69 414 q 214 346 151 346 q 260 350 238 346 l 279 353 q 161 321 194 321 q 82 335 119 321 q 10 444 10 361 q 49 574 10 508 q 174 706 82 632 q 382 835 269 785 q 654 899 522 899 q 836 817 786 899 q 839 800 839 808 q 714 474 839 736 l 539 113 q 681 321 542 108 q 943 594 753 431 q 1197 772 1126 753 q 1239 778 1215 778 q 1324 749 1289 778 q 1360 690 1360 721 q 1358 681 1360 685 q 1354 672 1357 676 q 1284 529 1321 613 q 1208 350 1247 446 q 1130 159 1169 254 q 1053 -19 1090 64 q 983 -160 1017 -101 q 860 -344 928 -257 q 713 -488 792 -432 q 547 -549 635 -544 z "},"Ę":{"ha":1161,"x_min":-75,"x_max":1269,"o":"m 528 -172 q 324 -152 413 -172 q 164 -85 236 -132 q 48 39 88 -33 q 8 196 8 111 q 14 259 8 226 q 31 324 19 292 q -75 392 -75 338 q -67 417 -75 406 q -47 429 -58 429 q -36 425 -42 429 q 64 399 -14 410 q 181 549 107 479 q 357 681 254 619 q 726 835 517 776 q 986 882 893 882 q 1192 855 1131 882 q 1253 758 1253 828 q 1221 719 1253 719 q 1192 768 1185 719 q 1132 838 1199 817 q 1021 851 1090 851 q 582 739 840 851 q 153 392 263 599 q 197 390 175 390 q 242 390 219 390 q 289 390 265 390 q 336 392 313 390 q 690 429 460 396 q 978 458 906 458 q 1107 392 1107 458 q 1076 350 1107 350 q 1060 382 1060 350 q 982 433 1060 433 q 885 422 956 433 q 703 386 815 410 q 492 347 586 361 q 329 331 399 333 q 244 326 296 329 q 121 319 192 322 q 99 204 99 267 q 123 81 99 143 q 203 -28 147 19 q 538 -136 336 -136 q 763 -112 656 -136 q 968 -49 871 -87 q 1221 131 1144 22 q 1263 168 1249 168 q 1269 158 1269 168 q 1257 121 1269 144 q 1028 -58 1207 29 q 788 -143 917 -114 q 528 -172 660 -172 m 857 -331 q 772 -254 772 -315 q 801 -178 772 -221 q 876 -103 831 -135 q 898 -90 889 -93 q 911 -86 907 -86 q 917 -90 917 -86 q 901 -111 917 -99 q 866 -153 886 -125 q 831 -213 846 -182 q 817 -268 817 -244 q 826 -295 817 -286 q 849 -308 836 -304 q 868 -311 854 -311 q 917 -299 890 -311 q 967 -268 944 -286 q 974 -265 969 -265 q 982 -276 982 -265 q 968 -297 982 -289 q 905 -326 933 -319 q 857 -331 876 -333 z "},"Ð":{"ha":1135,"x_min":-129,"x_max":1289,"o":"m 269 -129 q 225 -115 249 -129 q 201 -101 210 -106 q 190 -96 193 -97 q 140 -8 140 -72 q 176 125 140 44 q 479 621 290 371 q 515 681 504 651 q 536 708 522 699 q 603 743 553 724 q 679 763 653 763 q 704 743 707 763 q 669 714 703 738 q 625 678 647 697 q 581 635 603 658 q 414 414 517 571 q 307 232 357 326 q 215 35 257 138 q 199 -33 199 -4 q 243 -96 199 -81 q 800 61 517 -107 q 1179 447 1076 225 q 1208 572 1208 510 q 1090 790 1208 701 q 767 897 971 881 q 689 902 728 900 q 613 904 650 904 q 126 806 311 904 q -33 607 -33 721 q 114 456 -33 499 q 154 443 154 449 q 119 429 154 435 q 101 427 110 428 q 83 426 92 426 q 69 426 76 426 q 56 428 63 426 q -129 592 -129 474 q 64 819 -129 718 q 604 932 279 932 q 775 924 688 932 q 1150 804 1013 900 q 1289 567 1289 708 q 1260 436 1289 503 q 875 53 1167 222 q 269 -129 578 -119 m 182 292 q 146 293 149 292 q 133 311 138 297 q 132 321 132 315 q 138 331 132 329 q 292 338 150 338 q 504 319 504 338 q 502 316 503 318 q 499 313 501 314 q 322 296 486 301 q 182 292 226 292 z "},"Ẽ":{"ha":1161,"x_min":-75,"x_max":1269,"o":"m 528 -172 q 324 -152 413 -172 q 164 -85 236 -132 q 48 39 88 -33 q 8 196 8 111 q 14 259 8 226 q 31 324 19 292 q -75 392 -75 338 q -67 417 -75 406 q -47 429 -58 429 q -36 425 -42 429 q 64 399 -14 410 q 181 549 107 479 q 357 681 254 619 q 726 835 517 776 q 986 882 893 882 q 1192 855 1131 882 q 1253 758 1253 828 q 1221 719 1253 719 q 1192 768 1185 719 q 1132 838 1199 817 q 1021 851 1090 851 q 582 739 840 851 q 153 392 263 599 q 197 390 175 390 q 242 390 219 390 q 289 390 265 390 q 336 392 313 390 q 690 429 460 396 q 978 458 906 458 q 1107 392 1107 458 q 1076 350 1107 350 q 1060 382 1060 350 q 982 433 1060 433 q 885 422 956 433 q 703 386 815 410 q 492 347 586 361 q 329 331 399 333 q 244 326 296 329 q 121 319 192 322 q 99 204 99 267 q 123 81 99 143 q 203 -28 147 19 q 538 -136 336 -136 q 763 -112 656 -136 q 968 -49 871 -87 q 1221 131 1144 22 q 1263 168 1249 168 q 1269 158 1269 168 q 1257 121 1269 144 q 1028 -58 1207 29 q 788 -143 917 -114 q 528 -172 660 -172 m 953 936 q 904 947 932 936 q 850 971 876 957 q 808 990 824 986 q 785 994 793 994 q 743 954 760 994 q 735 947 739 947 q 728 960 728 947 q 731 974 728 965 q 740 993 733 983 q 801 1040 772 1040 q 835 1031 818 1040 q 875 1013 853 1022 l 944 982 q 974 981 963 976 q 991 989 983 982 q 1006 1006 999 996 q 1016 1019 1013 1014 q 1022 1029 1019 1025 q 1031 1036 1026 1036 q 1033 1024 1038 1036 q 1028 1006 1031 1014 q 1015 981 1026 997 q 986 947 1004 958 q 953 936 968 936 z "},"F":{"ha":1050,"x_min":31,"x_max":1432,"o":"m 332 -79 q 97 6 178 -79 q 36 160 36 71 q 44 213 36 190 q 203 340 81 299 q 328 365 276 365 q 342 365 335 365 q 356 363 350 364 q 376 353 376 361 q 333 338 376 339 q 183 293 242 331 q 111 163 111 246 q 168 28 111 88 q 365 -43 238 -43 q 454 -35 407 -43 q 913 367 708 7 l 521 336 q 485 347 504 335 q 467 374 467 360 q 546 417 467 403 q 563 419 556 418 q 575 419 569 419 q 588 414 588 419 l 588 408 q 604 401 588 401 q 781 406 732 406 q 833 407 794 406 q 936 411 872 408 q 1053 708 1017 567 q 935 756 1008 728 q 761 824 863 785 q 319 915 506 915 q 93 821 142 915 q 89 801 89 811 q 122 750 89 778 l 156 724 q 149 719 156 722 q 142 719 146 719 q 135 718 139 718 q 68 746 99 718 q 31 822 31 779 q 100 936 31 892 q 261 981 169 981 q 681 897 438 981 q 811 847 717 885 q 1061 746 906 810 q 1072 824 1072 794 q 1056 868 1072 863 q 1053 872 1053 871 q 1094 893 1053 893 q 1151 831 1151 893 q 1133 718 1151 785 q 1346 663 1274 663 q 1382 667 1368 663 q 1414 686 1404 672 q 1425 700 1424 700 q 1432 692 1432 700 q 1403 649 1432 671 q 1331 626 1374 626 q 1122 682 1264 626 q 1071 547 1100 614 q 1006 414 1042 479 q 1030 415 1018 414 q 1053 415 1042 415 q 1219 385 1176 415 q 1236 369 1236 375 q 1231 367 1236 367 q 1212 369 1231 367 q 1154 378 1193 372 q 1117 383 1135 381 q 1083 385 1099 385 q 1065 384 1074 385 q 1050 382 1057 383 q 982 374 1017 375 q 449 -68 751 -15 q 389 -76 418 -74 q 332 -79 360 -79 z "},"G":{"ha":1126,"x_min":146,"x_max":1167,"o":"m 417 -617 q 339 -526 339 -617 q 493 -214 339 -403 q 897 140 700 43 q 916 210 904 167 q 943 317 928 254 q 976 467 972 438 q 897 342 972 450 q 794 210 846 269 q 688 106 742 150 q 386 -22 535 -22 q 356 -21 371 -22 q 325 -17 340 -19 q 197 65 249 -3 q 146 235 146 133 q 282 567 146 410 q 232 704 243 628 l 232 711 q 249 738 232 738 q 265 710 263 738 q 306 594 274 646 q 850 878 499 800 q 919 889 886 885 q 981 893 951 893 q 1167 761 1167 893 q 1065 589 1167 672 q 1074 582 1068 586 q 1079 572 1081 578 l 967 163 q 1017 171 994 171 q 1085 133 1064 171 q 1093 107 1093 119 q 1088 97 1093 97 q 1065 118 1078 97 q 1010 150 1049 150 q 958 139 989 150 q 547 -564 790 -354 q 481 -603 517 -590 q 417 -617 444 -617 m 613 464 q 950 546 793 464 q 971 600 967 582 q 1006 619 975 619 q 1046 610 1028 619 q 1121 749 1121 676 q 965 864 1121 864 q 910 860 939 864 q 850 849 882 856 q 571 724 707 815 q 363 535 449 642 q 613 464 457 464 m 379 7 q 456 17 417 7 q 724 214 572 43 q 837 356 785 283 q 929 504 889 428 q 597 428 767 428 q 340 504 435 428 q 309 459 324 482 q 283 413 294 436 q 222 181 222 286 q 379 7 222 7 m 450 -583 q 519 -543 479 -583 q 889 113 763 -289 q 543 -219 717 13 q 408 -518 408 -400 q 450 -583 408 -583 z "},"Ğ":{"ha":1126,"x_min":146,"x_max":1167,"o":"m 417 -617 q 339 -526 339 -617 q 493 -214 339 -403 q 897 140 700 43 q 916 210 904 167 q 943 317 928 254 q 976 467 972 438 q 897 342 972 450 q 794 210 846 269 q 688 106 742 150 q 386 -22 535 -22 q 356 -21 371 -22 q 325 -17 340 -19 q 197 65 249 -3 q 146 235 146 133 q 282 567 146 410 q 232 704 243 628 l 232 711 q 249 738 232 738 q 265 710 263 738 q 306 594 274 646 q 850 878 499 800 q 919 889 886 885 q 981 893 951 893 q 1167 761 1167 893 q 1065 589 1167 672 q 1074 582 1068 586 q 1079 572 1081 578 l 967 163 q 1017 171 994 171 q 1085 133 1064 171 q 1093 107 1093 119 q 1088 97 1093 97 q 1065 118 1078 97 q 1010 150 1049 150 q 958 139 989 150 q 547 -564 790 -354 q 481 -603 517 -590 q 417 -617 444 -617 m 613 464 q 950 546 793 464 q 971 600 967 582 q 1006 619 975 619 q 1046 610 1028 619 q 1121 749 1121 676 q 965 864 1121 864 q 910 860 939 864 q 850 849 882 856 q 571 724 707 815 q 363 535 449 642 q 613 464 457 464 m 379 7 q 456 17 417 7 q 724 214 572 43 q 837 356 785 283 q 929 504 889 428 q 597 428 767 428 q 340 504 435 428 q 309 459 324 482 q 283 413 294 436 q 222 181 222 286 q 379 7 222 7 m 450 -583 q 519 -543 479 -583 q 889 113 763 -289 q 543 -219 717 13 q 408 -518 408 -400 q 450 -583 408 -583 m 903 963 q 813 994 843 963 q 782 1068 782 1026 q 791 1090 782 1081 q 808 1100 800 1100 q 819 1089 817 1100 q 847 1026 828 1054 q 904 999 865 999 q 974 1026 939 999 q 1036 1097 1010 1054 q 1046 1101 1040 1101 q 1053 1099 1050 1101 q 1053 1089 1056 1096 q 999 1002 1035 1042 q 903 963 964 963 z "},"Ǧ":{"ha":1126,"x_min":146,"x_max":1167,"o":"m 1076 1099 q 1089 1089 1089 1099 q 1081 1078 1089 1082 q 1056 1060 1067 1067 q 1036 1047 1044 1053 q 990 1017 1018 1038 q 926 969 963 996 q 901 958 911 958 q 871 996 889 958 q 843 1042 861 1017 q 796 1068 825 1068 q 776 1067 785 1068 q 760 1058 767 1065 q 743 1051 751 1051 q 738 1056 738 1051 q 744 1067 738 1060 q 780 1091 764 1083 q 826 1099 796 1099 q 881 1074 860 1099 q 914 1025 903 1050 q 933 1011 919 1011 q 960 1022 944 1011 q 1009 1058 988 1042 q 1065 1096 1031 1074 q 1071 1098 1068 1097 q 1076 1099 1074 1099 m 417 -617 q 339 -526 339 -617 q 493 -214 339 -403 q 897 140 700 43 q 916 210 904 167 q 943 317 928 254 q 976 467 972 438 q 897 342 972 450 q 794 210 846 269 q 688 106 742 150 q 386 -22 535 -22 q 356 -21 371 -22 q 325 -17 340 -19 q 197 65 249 -3 q 146 235 146 133 q 282 567 146 410 q 232 704 243 628 l 232 711 q 249 738 232 738 q 265 710 263 738 q 306 594 274 646 q 850 878 499 800 q 919 889 886 885 q 981 893 951 893 q 1167 761 1167 893 q 1065 589 1167 672 q 1074 582 1068 586 q 1079 572 1081 578 l 967 163 q 1017 171 994 171 q 1085 133 1064 171 q 1093 107 1093 119 q 1088 97 1093 97 q 1065 118 1078 97 q 1010 150 1049 150 q 958 139 989 150 q 547 -564 790 -354 q 481 -603 517 -590 q 417 -617 444 -617 m 613 464 q 950 546 793 464 q 971 600 967 582 q 1006 619 975 619 q 1046 610 1028 619 q 1121 749 1121 676 q 965 864 1121 864 q 910 860 939 864 q 850 849 882 856 q 571 724 707 815 q 363 535 449 642 q 613 464 457 464 m 379 7 q 456 17 417 7 q 724 214 572 43 q 837 356 785 283 q 929 504 889 428 q 597 428 767 428 q 340 504 435 428 q 309 459 324 482 q 283 413 294 436 q 222 181 222 286 q 379 7 222 7 m 450 -583 q 519 -543 479 -583 q 889 113 763 -289 q 543 -219 717 13 q 408 -518 408 -400 q 450 -583 408 -583 z "},"Ĝ":{"ha":1126,"x_min":146,"x_max":1167,"o":"m 417 -617 q 339 -526 339 -617 q 493 -214 339 -403 q 897 140 700 43 q 916 210 904 167 q 943 317 928 254 q 976 467 972 438 q 897 342 972 450 q 794 210 846 269 q 688 106 742 150 q 386 -22 535 -22 q 356 -21 371 -22 q 325 -17 340 -19 q 197 65 249 -3 q 146 235 146 133 q 282 567 146 410 q 232 704 243 628 l 232 711 q 249 738 232 738 q 265 710 263 738 q 306 594 274 646 q 850 878 499 800 q 919 889 886 885 q 981 893 951 893 q 1167 761 1167 893 q 1065 589 1167 672 q 1074 582 1068 586 q 1079 572 1081 578 l 967 163 q 1017 171 994 171 q 1085 133 1064 171 q 1093 107 1093 119 q 1088 97 1093 97 q 1065 118 1078 97 q 1010 150 1049 150 q 958 139 989 150 q 547 -564 790 -354 q 481 -603 517 -590 q 417 -617 444 -617 m 613 464 q 950 546 793 464 q 971 600 967 582 q 1006 619 975 619 q 1046 610 1028 619 q 1121 749 1121 676 q 965 864 1121 864 q 910 860 939 864 q 850 849 882 856 q 571 724 707 815 q 363 535 449 642 q 613 464 457 464 m 379 7 q 456 17 417 7 q 724 214 572 43 q 837 356 785 283 q 929 504 889 428 q 597 428 767 428 q 340 504 435 428 q 309 459 324 482 q 283 413 294 436 q 222 181 222 286 q 379 7 222 7 m 450 -583 q 519 -543 479 -583 q 889 113 763 -289 q 543 -219 717 13 q 408 -518 408 -400 q 450 -583 408 -583 m 788 965 q 775 975 775 965 q 783 986 775 982 q 808 1004 797 997 q 828 1017 819 1011 q 874 1048 846 1028 q 938 1094 901 1068 q 963 1106 953 1106 q 993 1068 975 1106 q 1021 1022 1003 1047 q 1068 996 1039 996 q 1088 998 1079 996 q 1104 1006 1097 1000 q 1121 1013 1113 1013 q 1126 1008 1126 1013 q 1119 997 1126 1004 q 1085 973 1101 981 q 1038 965 1069 965 q 983 990 1004 965 q 950 1039 961 1014 q 931 1053 944 1053 q 904 1042 919 1053 q 856 1007 878 1022 q 799 968 835 992 q 793 966 796 967 q 788 965 790 965 z "},"Ģ":{"ha":1126,"x_min":146,"x_max":1167,"o":"m 417 -617 q 339 -526 339 -617 q 493 -214 339 -403 q 897 140 700 43 q 916 210 904 167 q 943 317 928 254 q 976 467 972 438 q 897 342 972 450 q 794 210 846 269 q 688 106 742 150 q 386 -22 535 -22 q 356 -21 371 -22 q 325 -17 340 -19 q 197 65 249 -3 q 146 235 146 133 q 282 567 146 410 q 232 704 243 628 l 232 711 q 249 738 232 738 q 265 710 263 738 q 306 594 274 646 q 850 878 499 800 q 919 889 886 885 q 981 893 951 893 q 1167 761 1167 893 q 1065 589 1167 672 q 1074 582 1068 586 q 1079 572 1081 578 l 967 163 q 1017 171 994 171 q 1085 133 1064 171 q 1093 107 1093 119 q 1088 97 1093 97 q 1065 118 1078 97 q 1010 150 1049 150 q 958 139 989 150 q 547 -564 790 -354 q 481 -603 517 -590 q 417 -617 444 -617 m 613 464 q 950 546 793 464 q 971 600 967 582 q 1006 619 975 619 q 1046 610 1028 619 q 1121 749 1121 676 q 965 864 1121 864 q 910 860 939 864 q 850 849 882 856 q 571 724 707 815 q 363 535 449 642 q 613 464 457 464 m 379 7 q 456 17 417 7 q 724 214 572 43 q 837 356 785 283 q 929 504 889 428 q 597 428 767 428 q 340 504 435 428 q 309 459 324 482 q 283 413 294 436 q 222 181 222 286 q 379 7 222 7 m 450 -583 q 519 -543 479 -583 q 889 113 763 -289 q 543 -219 717 13 q 408 -518 408 -400 q 450 -583 408 -583 m 368 -858 l 381 -842 q 404 -816 394 -826 q 419 -799 414 -806 q 438 -772 432 -783 q 446 -750 444 -760 q 431 -718 446 -732 q 411 -700 413 -704 q 414 -685 413 -692 q 419 -674 415 -679 q 429 -665 422 -669 q 449 -656 436 -661 q 460 -654 450 -654 q 490 -667 475 -656 q 506 -693 506 -678 q 457 -787 506 -724 q 368 -858 407 -854 z "},"Ġ":{"ha":1126,"x_min":146,"x_max":1167,"o":"m 417 -617 q 339 -526 339 -617 q 493 -214 339 -403 q 897 140 700 43 q 916 210 904 167 q 943 317 928 254 q 976 467 972 438 q 897 342 972 450 q 794 210 846 269 q 688 106 742 150 q 386 -22 535 -22 q 356 -21 371 -22 q 325 -17 340 -19 q 197 65 249 -3 q 146 235 146 133 q 282 567 146 410 q 232 704 243 628 l 232 711 q 249 738 232 738 q 265 710 263 738 q 306 594 274 646 q 850 878 499 800 q 919 889 886 885 q 981 893 951 893 q 1167 761 1167 893 q 1065 589 1167 672 q 1074 582 1068 586 q 1079 572 1081 578 l 967 163 q 1017 171 994 171 q 1085 133 1064 171 q 1093 107 1093 119 q 1088 97 1093 97 q 1065 118 1078 97 q 1010 150 1049 150 q 958 139 989 150 q 547 -564 790 -354 q 481 -603 517 -590 q 417 -617 444 -617 m 613 464 q 950 546 793 464 q 971 600 967 582 q 1006 619 975 619 q 1046 610 1028 619 q 1121 749 1121 676 q 965 864 1121 864 q 910 860 939 864 q 850 849 882 856 q 571 724 707 815 q 363 535 449 642 q 613 464 457 464 m 379 7 q 456 17 417 7 q 724 214 572 43 q 837 356 785 283 q 929 504 889 428 q 597 428 767 428 q 340 504 435 428 q 309 459 324 482 q 283 413 294 436 q 222 181 222 286 q 379 7 222 7 m 450 -583 q 519 -543 479 -583 q 889 113 763 -289 q 543 -219 717 13 q 408 -518 408 -400 q 450 -583 408 -583 m 931 992 q 893 997 914 990 q 874 1014 872 1004 q 889 1040 878 1025 q 912 1069 908 1064 q 925 1075 915 1075 q 964 1051 944 1075 q 965 1049 964 1050 q 965 1047 965 1049 q 953 1018 965 1039 q 931 992 936 992 z "},"ẞ":{"ha":807,"x_min":-196,"x_max":828,"o":"m -167 -233 q -196 -218 -189 -233 q -179 -207 -192 -207 q 90 64 -51 -207 q 160 217 118 119 q 256 457 201 315 q 356 692 311 603 q 444 829 401 782 q 535 894 488 876 q 643 911 583 911 q 785 880 742 911 q 828 800 828 849 q 784 683 828 747 q 665 555 740 618 q 492 443 589 492 q 727 388 647 443 q 807 256 807 333 q 722 95 807 178 q 458 -39 636 13 q 399 -51 432 -46 q 335 -56 367 -56 q 256 -47 293 -56 q 199 -22 219 -39 q 179 -1 185 -11 q 174 18 174 10 q 179 35 174 29 q 189 40 185 40 q 209 38 200 40 q 240 6 218 36 q 269 -7 246 -3 q 325 -11 293 -11 q 384 -8 353 -11 q 442 6 415 -4 q 658 120 590 57 q 725 243 725 183 q 647 356 725 310 q 429 403 568 403 q 395 413 404 403 q 386 433 386 424 q 399 448 386 446 q 433 452 413 450 q 474 467 453 454 q 612 574 554 517 q 701 688 669 632 q 732 786 732 743 q 706 847 732 824 q 622 871 679 871 q 533 836 575 871 q 455 743 492 801 q 384 613 418 685 q 318 467 350 540 q 189 167 250 303 q 68 -62 128 32 q -55 -196 4 -158 q -167 -233 -114 -233 z "},"H":{"ha":1210,"x_min":-12,"x_max":1647,"o":"m 1018 -164 q 994 -160 1007 -164 q 958 -96 958 -149 q 983 43 958 -62 q 1033 204 999 106 q 1072 303 1068 299 q 947 307 1067 307 l 854 307 q 625 294 640 306 q 609 274 618 289 q 589 236 600 260 l 543 146 q 515 85 529 118 q 490 14 501 53 q 440 -24 485 -24 q 413 -6 413 -24 q 543 279 413 53 q 483 260 472 268 q 486 256 486 257 q 483 253 486 253 q 460 263 478 253 q 435 293 435 278 q 478 319 435 310 q 525 326 501 322 q 574 335 549 329 q 676 510 639 446 q 722 592 713 574 q 806 825 806 753 q 781 883 806 867 q 683 913 739 913 q 378 825 593 913 q 156 672 265 781 q 40 475 40 557 q 78 404 40 432 q 185 368 129 368 q 219 371 200 368 q 242 374 239 374 q 249 369 249 374 q 244 358 249 365 q 168 342 236 342 q 64 364 103 342 q -12 493 -12 407 q 15 582 -12 539 q 396 868 133 753 q 750 953 586 953 q 893 868 883 953 q 872 788 896 849 q 794 629 847 728 l 632 329 l 664 329 q 701 331 686 329 q 725 332 715 332 l 797 332 q 1083 328 913 332 q 1114 398 1089 342 q 1186 554 1139 454 q 1346 783 1247 685 q 1544 893 1456 893 q 1596 882 1571 893 q 1609 877 1603 879 q 1621 872 1615 875 q 1643 851 1642 864 q 1635 798 1647 824 q 1614 772 1624 772 q 1608 781 1608 772 q 1612 808 1608 789 q 1615 835 1615 828 q 1610 853 1615 847 q 1556 875 1588 875 q 1418 799 1496 875 q 1269 590 1340 722 q 1185 423 1214 488 q 1150 331 1156 358 q 1178 332 1165 332 q 1201 332 1190 332 q 1297 322 1272 332 q 1303 318 1303 321 q 1256 301 1303 303 q 1197 300 1226 300 q 1140 300 1168 300 q 1104 203 1122 256 q 1069 94 1086 151 q 1035 -93 1035 -31 q 1040 -123 1035 -107 q 1046 -144 1046 -139 q 1018 -164 1046 -164 z "},"Ħ":{"ha":1210,"x_min":-12,"x_max":1647,"o":"m 606 589 q 590 600 599 589 q 582 621 582 611 q 592 631 582 631 l 1104 631 q 1128 631 1110 631 q 1176 632 1147 631 q 1236 633 1210 633 q 1281 633 1263 633 q 1400 618 1400 633 q 1396 611 1400 615 q 1013 596 1376 604 q 767 591 860 593 q 639 589 674 589 l 606 589 m 1018 -164 q 994 -160 1007 -164 q 958 -96 958 -149 q 983 43 958 -62 q 1033 204 999 106 q 1072 303 1068 299 q 947 307 1067 307 l 854 307 q 625 294 640 306 q 609 274 618 289 q 589 236 600 260 l 543 146 q 515 85 529 118 q 490 14 501 53 q 440 -24 485 -24 q 413 -6 413 -24 q 543 279 413 53 q 483 260 472 268 q 486 256 486 257 q 483 253 486 253 q 460 263 478 253 q 435 293 435 278 q 478 319 435 310 q 525 326 501 322 q 574 335 549 329 q 676 510 639 446 q 722 592 713 574 q 806 825 806 753 q 781 883 806 867 q 683 913 739 913 q 378 825 593 913 q 156 672 265 781 q 40 475 40 557 q 78 404 40 432 q 185 368 129 368 q 219 371 200 368 q 242 374 239 374 q 249 369 249 374 q 244 358 249 365 q 168 342 236 342 q 64 364 103 342 q -12 493 -12 407 q 15 582 -12 539 q 396 868 133 753 q 750 953 586 953 q 893 868 883 953 q 872 788 896 849 q 794 629 847 728 l 632 329 l 664 329 q 701 331 686 329 q 725 332 715 332 l 797 332 q 1083 328 913 332 q 1114 398 1089 342 q 1186 554 1139 454 q 1346 783 1247 685 q 1544 893 1456 893 q 1596 882 1571 893 q 1609 877 1603 879 q 1621 872 1615 875 q 1643 851 1642 864 q 1635 798 1647 824 q 1614 772 1624 772 q 1608 781 1608 772 q 1612 808 1608 789 q 1615 835 1615 828 q 1610 853 1615 847 q 1556 875 1588 875 q 1418 799 1496 875 q 1269 590 1340 722 q 1185 423 1214 488 q 1150 331 1156 358 q 1178 332 1165 332 q 1201 332 1190 332 q 1297 322 1272 332 q 1303 318 1303 321 q 1256 301 1303 303 q 1197 300 1226 300 q 1140 300 1168 300 q 1104 203 1122 256 q 1069 94 1086 151 q 1035 -93 1035 -31 q 1040 -123 1035 -107 q 1046 -144 1046 -139 q 1018 -164 1046 -164 z "},"Ĥ":{"ha":1210,"x_min":-12,"x_max":1647,"o":"m 1018 -164 q 994 -160 1007 -164 q 958 -96 958 -149 q 983 43 958 -62 q 1033 204 999 106 q 1072 303 1068 299 q 947 307 1067 307 l 854 307 q 625 294 640 306 q 609 274 618 289 q 589 236 600 260 l 543 146 q 515 85 529 118 q 490 14 501 53 q 440 -24 485 -24 q 413 -6 413 -24 q 543 279 413 53 q 483 260 472 268 q 486 256 486 257 q 483 253 486 253 q 460 263 478 253 q 435 293 435 278 q 478 319 435 310 q 525 326 501 322 q 574 335 549 329 q 676 510 639 446 q 722 592 713 574 q 806 825 806 753 q 781 883 806 867 q 683 913 739 913 q 378 825 593 913 q 156 672 265 781 q 40 475 40 557 q 78 404 40 432 q 185 368 129 368 q 219 371 200 368 q 242 374 239 374 q 249 369 249 374 q 244 358 249 365 q 168 342 236 342 q 64 364 103 342 q -12 493 -12 407 q 15 582 -12 539 q 396 868 133 753 q 750 953 586 953 q 893 868 883 953 q 872 788 896 849 q 794 629 847 728 l 632 329 l 664 329 q 701 331 686 329 q 725 332 715 332 l 797 332 q 1083 328 913 332 q 1114 398 1089 342 q 1186 554 1139 454 q 1346 783 1247 685 q 1544 893 1456 893 q 1596 882 1571 893 q 1609 877 1603 879 q 1621 872 1615 875 q 1643 851 1642 864 q 1635 798 1647 824 q 1614 772 1624 772 q 1608 781 1608 772 q 1612 808 1608 789 q 1615 835 1615 828 q 1610 853 1615 847 q 1556 875 1588 875 q 1418 799 1496 875 q 1269 590 1340 722 q 1185 423 1214 488 q 1150 331 1156 358 q 1178 332 1165 332 q 1201 332 1190 332 q 1297 322 1272 332 q 1303 318 1303 321 q 1256 301 1303 303 q 1197 300 1226 300 q 1140 300 1168 300 q 1104 203 1122 256 q 1069 94 1086 151 q 1035 -93 1035 -31 q 1040 -123 1035 -107 q 1046 -144 1046 -139 q 1018 -164 1046 -164 m 1056 956 q 1043 965 1043 956 q 1051 976 1043 972 q 1076 994 1065 988 q 1096 1007 1088 1001 q 1142 1038 1114 1018 q 1206 1085 1169 1058 q 1231 1096 1221 1096 q 1261 1058 1243 1096 q 1289 1012 1271 1038 q 1336 986 1307 986 q 1356 988 1347 986 q 1372 996 1365 990 q 1389 1003 1381 1003 q 1394 999 1394 1003 q 1388 988 1394 994 q 1353 963 1369 971 q 1306 956 1338 956 q 1251 980 1272 956 q 1218 1029 1229 1004 q 1199 1043 1213 1043 q 1172 1032 1188 1043 q 1124 997 1146 1013 q 1067 958 1103 982 q 1061 956 1064 957 q 1056 956 1058 956 z "},"I":{"ha":725,"x_min":38,"x_max":915,"o":"m 274 -65 q 154 -41 208 -65 q 69 26 100 -17 q 38 126 38 69 q 49 190 38 157 q 97 267 64 235 q 172 319 129 300 q 279 344 226 344 q 315 333 315 344 q 292 321 315 324 q 156 258 203 310 q 110 129 110 207 q 159 4 110 53 q 286 -44 208 -44 q 458 9 376 -44 q 606 152 539 63 q 721 351 672 242 q 794 575 769 461 q 818 713 810 650 q 826 824 826 775 q 818 868 826 867 q 765 850 804 872 q 709 814 739 836 q 646 761 679 792 q 588 692 615 735 q 553 601 553 640 q 582 549 553 568 q 643 526 614 526 q 673 533 656 526 q 701 539 690 539 q 714 533 714 539 q 674 514 714 525 q 594 504 636 504 q 522 525 553 504 q 492 586 492 546 q 588 744 492 660 q 856 892 751 892 q 904 880 893 892 q 915 836 915 868 q 874 608 915 763 q 778 355 838 476 q 642 139 719 233 q 472 -10 565 44 q 274 -65 378 -65 z "},"Í":{"ha":725,"x_min":38,"x_max":969,"o":"m 274 -65 q 154 -41 208 -65 q 69 26 100 -17 q 38 126 38 69 q 49 190 38 157 q 97 267 64 235 q 172 319 129 300 q 279 344 226 344 q 315 333 315 344 q 292 321 315 324 q 156 258 203 310 q 110 129 110 207 q 159 4 110 53 q 286 -44 208 -44 q 458 9 376 -44 q 606 152 539 63 q 721 351 672 242 q 794 575 769 461 q 818 713 810 650 q 826 824 826 775 q 818 868 826 867 q 765 850 804 872 q 709 814 739 836 q 646 761 679 792 q 588 692 615 735 q 553 601 553 640 q 582 549 553 568 q 643 526 614 526 q 673 533 656 526 q 701 539 690 539 q 714 533 714 539 q 674 514 714 525 q 594 504 636 504 q 522 525 553 504 q 492 586 492 546 q 588 744 492 660 q 856 892 751 892 q 904 880 893 892 q 915 836 915 868 q 874 608 915 763 q 778 355 838 476 q 642 139 719 233 q 472 -10 565 44 q 274 -65 378 -65 m 799 971 q 794 974 794 971 q 818 999 794 979 q 885 1051 851 1024 q 933 1097 918 1079 q 944 1101 940 1101 q 961 1089 953 1100 q 969 1067 969 1078 q 964 1057 968 1061 q 894 1013 931 1035 q 831 981 858 990 q 810 974 818 976 q 799 971 801 971 z "},"Ĭ":{"ha":725,"x_min":38,"x_max":1013,"o":"m 274 -65 q 154 -41 208 -65 q 69 26 100 -17 q 38 126 38 69 q 49 190 38 157 q 97 267 64 235 q 172 319 129 300 q 279 344 226 344 q 315 333 315 344 q 292 321 315 324 q 156 258 203 310 q 110 129 110 207 q 159 4 110 53 q 286 -44 208 -44 q 458 9 376 -44 q 606 152 539 63 q 721 351 672 242 q 794 575 769 461 q 818 713 810 650 q 826 824 826 775 q 818 868 826 867 q 765 850 804 872 q 709 814 739 836 q 646 761 679 792 q 588 692 615 735 q 553 601 553 640 q 582 549 553 568 q 643 526 614 526 q 673 533 656 526 q 701 539 690 539 q 714 533 714 539 q 674 514 714 525 q 594 504 636 504 q 522 525 553 504 q 492 586 492 546 q 588 744 492 660 q 856 892 751 892 q 904 880 893 892 q 915 836 915 868 q 874 608 915 763 q 778 355 838 476 q 642 139 719 233 q 472 -10 565 44 q 274 -65 378 -65 m 857 967 q 762 992 797 967 q 726 1060 726 1018 q 735 1082 726 1072 q 753 1092 744 1092 q 764 1081 761 1092 q 796 1024 772 1046 q 858 1003 819 1003 q 930 1023 893 1003 q 993 1086 967 1043 q 1003 1090 997 1090 q 1010 1088 1007 1090 q 1010 1078 1013 1085 q 955 999 992 1031 q 857 967 918 967 z "},"Ǐ":{"ha":725,"x_min":38,"x_max":1057,"o":"m 1044 1110 q 1057 1100 1057 1110 q 1049 1089 1057 1093 q 1024 1071 1035 1078 q 1004 1058 1013 1064 q 951 1028 986 1049 q 881 981 917 1007 q 856 969 865 969 q 825 1007 843 969 q 789 1053 815 1028 q 733 1079 763 1079 q 713 1078 722 1079 q 697 1069 704 1076 q 681 1063 689 1063 q 675 1067 675 1063 q 682 1078 675 1071 q 717 1102 701 1094 q 764 1110 733 1110 q 827 1085 797 1110 q 868 1036 857 1061 q 888 1022 874 1022 q 914 1033 899 1022 q 970 1069 942 1053 q 1033 1107 999 1085 q 1039 1109 1036 1108 q 1044 1110 1042 1110 m 274 -65 q 154 -41 208 -65 q 69 26 100 -17 q 38 126 38 69 q 49 190 38 157 q 97 267 64 235 q 172 319 129 300 q 279 344 226 344 q 315 333 315 344 q 292 321 315 324 q 156 258 203 310 q 110 129 110 207 q 159 4 110 53 q 286 -44 208 -44 q 458 9 376 -44 q 606 152 539 63 q 721 351 672 242 q 794 575 769 461 q 818 713 810 650 q 826 824 826 775 q 818 868 826 867 q 765 850 804 872 q 709 814 739 836 q 646 761 679 792 q 588 692 615 735 q 553 601 553 640 q 582 549 553 568 q 643 526 614 526 q 673 533 656 526 q 701 539 690 539 q 714 533 714 539 q 674 514 714 525 q 594 504 636 504 q 522 525 553 504 q 492 586 492 546 q 588 744 492 660 q 856 892 751 892 q 904 880 893 892 q 915 836 915 868 q 874 608 915 763 q 778 355 838 476 q 642 139 719 233 q 472 -10 565 44 q 274 -65 378 -65 z "},"Î":{"ha":725,"x_min":38,"x_max":1097,"o":"m 274 -65 q 154 -41 208 -65 q 69 26 100 -17 q 38 126 38 69 q 49 190 38 157 q 97 267 64 235 q 172 319 129 300 q 279 344 226 344 q 315 333 315 344 q 292 321 315 324 q 156 258 203 310 q 110 129 110 207 q 159 4 110 53 q 286 -44 208 -44 q 458 9 376 -44 q 606 152 539 63 q 721 351 672 242 q 794 575 769 461 q 818 713 810 650 q 826 824 826 775 q 818 868 826 867 q 765 850 804 872 q 709 814 739 836 q 646 761 679 792 q 588 692 615 735 q 553 601 553 640 q 582 549 553 568 q 643 526 614 526 q 673 533 656 526 q 701 539 690 539 q 714 533 714 539 q 674 514 714 525 q 594 504 636 504 q 522 525 553 504 q 492 586 492 546 q 588 744 492 660 q 856 892 751 892 q 904 880 893 892 q 915 836 915 868 q 874 608 915 763 q 778 355 838 476 q 642 139 719 233 q 472 -10 565 44 q 274 -65 378 -65 m 728 969 q 715 979 715 969 q 724 990 715 986 q 749 1008 738 1001 q 768 1021 760 1015 q 821 1052 786 1032 q 892 1099 856 1072 q 917 1110 907 1110 q 947 1072 929 1110 q 983 1026 957 1051 q 1039 1000 1010 1000 q 1059 1002 1050 1000 q 1075 1010 1068 1004 q 1092 1017 1083 1017 q 1097 1013 1097 1017 q 1090 1001 1097 1008 q 1056 977 1072 985 q 1008 969 1040 969 q 945 994 975 969 q 904 1043 915 1018 q 885 1057 899 1057 q 858 1046 874 1057 q 803 1011 832 1026 q 739 972 775 996 q 733 970 736 971 q 728 969 731 969 z "},"Ȉ":{"ha":725,"x_min":38,"x_max":915,"o":"m 274 -65 q 154 -41 208 -65 q 69 26 100 -17 q 38 126 38 69 q 49 190 38 157 q 97 267 64 235 q 172 319 129 300 q 279 344 226 344 q 315 333 315 344 q 292 321 315 324 q 156 258 203 310 q 110 129 110 207 q 159 4 110 53 q 286 -44 208 -44 q 458 9 376 -44 q 606 152 539 63 q 721 351 672 242 q 794 575 769 461 q 818 713 810 650 q 826 824 826 775 q 818 868 826 867 q 765 850 804 872 q 709 814 739 836 q 646 761 679 792 q 588 692 615 735 q 553 601 553 640 q 582 549 553 568 q 643 526 614 526 q 673 533 656 526 q 701 539 690 539 q 714 533 714 539 q 674 514 714 525 q 594 504 636 504 q 522 525 553 504 q 492 586 492 546 q 588 744 492 660 q 856 892 751 892 q 904 880 893 892 q 915 836 915 868 q 874 608 915 763 q 778 355 838 476 q 642 139 719 233 q 472 -10 565 44 q 274 -65 378 -65 m 885 968 q 854 988 881 968 q 807 1040 833 1007 q 757 1106 781 1072 q 754 1111 754 1108 q 767 1133 754 1122 q 790 1140 781 1143 q 797 1133 794 1140 q 831 1073 808 1110 q 875 1001 853 1036 q 888 971 888 979 q 885 968 888 968 m 797 964 q 767 982 790 964 q 716 1031 744 999 q 660 1093 688 1063 q 658 1100 658 1094 q 669 1121 658 1111 q 689 1131 681 1131 q 699 1122 697 1131 q 735 1065 710 1100 q 785 997 760 1029 q 800 967 800 974 q 797 964 800 964 z "},"Ï":{"ha":725,"x_min":38,"x_max":1007,"o":"m 274 -65 q 154 -41 208 -65 q 69 26 100 -17 q 38 126 38 69 q 49 190 38 157 q 97 267 64 235 q 172 319 129 300 q 279 344 226 344 q 315 333 315 344 q 292 321 315 324 q 156 258 203 310 q 110 129 110 207 q 159 4 110 53 q 286 -44 208 -44 q 458 9 376 -44 q 606 152 539 63 q 721 351 672 242 q 794 575 769 461 q 818 713 810 650 q 826 824 826 775 q 818 868 826 867 q 765 850 804 872 q 709 814 739 836 q 646 761 679 792 q 588 692 615 735 q 553 601 553 640 q 582 549 553 568 q 643 526 614 526 q 673 533 656 526 q 701 539 690 539 q 714 533 714 539 q 674 514 714 525 q 594 504 636 504 q 522 525 553 504 q 492 586 492 546 q 588 744 492 660 q 856 892 751 892 q 904 880 893 892 q 915 836 915 868 q 874 608 915 763 q 778 355 838 476 q 642 139 719 233 q 472 -10 565 44 q 274 -65 378 -65 m 928 971 q 911 988 919 971 q 898 1014 900 1011 q 896 1021 896 1017 q 968 1046 896 1046 q 1007 1036 1007 1046 q 1006 1033 1007 1035 q 968 1013 992 1028 l 936 975 q 928 971 932 971 m 763 971 q 746 988 754 971 q 733 1014 735 1011 q 731 1021 731 1017 q 803 1046 731 1046 q 842 1036 842 1046 q 840 1033 842 1035 q 803 1013 826 1028 l 771 975 q 763 971 767 971 z "},"İ":{"ha":725,"x_min":38,"x_max":915,"o":"m 274 -65 q 154 -41 208 -65 q 69 26 100 -17 q 38 126 38 69 q 49 190 38 157 q 97 267 64 235 q 172 319 129 300 q 279 344 226 344 q 315 333 315 344 q 292 321 315 324 q 156 258 203 310 q 110 129 110 207 q 159 4 110 53 q 286 -44 208 -44 q 458 9 376 -44 q 606 152 539 63 q 721 351 672 242 q 794 575 769 461 q 818 713 810 650 q 826 824 826 775 q 818 868 826 867 q 765 850 804 872 q 709 814 739 836 q 646 761 679 792 q 588 692 615 735 q 553 601 553 640 q 582 549 553 568 q 643 526 614 526 q 673 533 656 526 q 701 539 690 539 q 714 533 714 539 q 674 514 714 525 q 594 504 636 504 q 522 525 553 504 q 492 586 492 546 q 588 744 492 660 q 856 892 751 892 q 904 880 893 892 q 915 836 915 868 q 874 608 915 763 q 778 355 838 476 q 642 139 719 233 q 472 -10 565 44 q 274 -65 378 -65 m 854 968 q 817 974 838 967 q 797 990 796 981 q 813 1017 801 1001 q 835 1046 832 1040 q 849 1051 839 1051 q 888 1028 868 1051 q 888 1026 888 1026 q 889 1024 889 1025 q 876 994 889 1015 q 854 968 860 968 z "},"Ị":{"ha":725,"x_min":38,"x_max":915,"o":"m 274 -65 q 154 -41 208 -65 q 69 26 100 -17 q 38 126 38 69 q 49 190 38 157 q 97 267 64 235 q 172 319 129 300 q 279 344 226 344 q 315 333 315 344 q 292 321 315 324 q 156 258 203 310 q 110 129 110 207 q 159 4 110 53 q 286 -44 208 -44 q 458 9 376 -44 q 606 152 539 63 q 721 351 672 242 q 794 575 769 461 q 818 713 810 650 q 826 824 826 775 q 818 868 826 867 q 765 850 804 872 q 709 814 739 836 q 646 761 679 792 q 588 692 615 735 q 553 601 553 640 q 582 549 553 568 q 643 526 614 526 q 673 533 656 526 q 701 539 690 539 q 714 533 714 539 q 674 514 714 525 q 594 504 636 504 q 522 525 553 504 q 492 586 492 546 q 588 744 492 660 q 856 892 751 892 q 904 880 893 892 q 915 836 915 868 q 874 608 915 763 q 778 355 838 476 q 642 139 719 233 q 472 -10 565 44 q 274 -65 378 -65 m 200 -243 q 168 -238 186 -244 q 151 -224 150 -232 q 157 -213 154 -219 q 164 -201 160 -207 q 184 -177 181 -182 q 194 -172 188 -172 q 228 -192 211 -172 q 228 -193 228 -193 q 229 -194 229 -193 q 218 -219 229 -200 q 200 -243 206 -243 z "},"Ì":{"ha":725,"x_min":38,"x_max":932,"o":"m 274 -65 q 154 -41 208 -65 q 69 26 100 -17 q 38 126 38 69 q 49 190 38 157 q 97 267 64 235 q 172 319 129 300 q 279 344 226 344 q 315 333 315 344 q 292 321 315 324 q 156 258 203 310 q 110 129 110 207 q 159 4 110 53 q 286 -44 208 -44 q 458 9 376 -44 q 606 152 539 63 q 721 351 672 242 q 794 575 769 461 q 818 713 810 650 q 826 824 826 775 q 818 868 826 867 q 765 850 804 872 q 709 814 739 836 q 646 761 679 792 q 588 692 615 735 q 553 601 553 640 q 582 549 553 568 q 643 526 614 526 q 673 533 656 526 q 701 539 690 539 q 714 533 714 539 q 674 514 714 525 q 594 504 636 504 q 522 525 553 504 q 492 586 492 546 q 588 744 492 660 q 856 892 751 892 q 904 880 893 892 q 915 836 915 868 q 874 608 915 763 q 778 355 838 476 q 642 139 719 233 q 472 -10 565 44 q 274 -65 378 -65 m 928 971 q 894 979 919 971 q 832 1013 868 990 q 763 1057 796 1035 q 757 1067 760 1061 q 765 1089 757 1078 q 782 1101 774 1100 q 792 1096 788 1101 q 842 1051 808 1078 q 908 999 875 1024 q 932 974 932 979 q 928 971 932 971 z "},"Ỉ":{"ha":725,"x_min":38,"x_max":953,"o":"m 274 -65 q 154 -41 208 -65 q 69 26 100 -17 q 38 126 38 69 q 49 190 38 157 q 97 267 64 235 q 172 319 129 300 q 279 344 226 344 q 315 333 315 344 q 292 321 315 324 q 156 258 203 310 q 110 129 110 207 q 159 4 110 53 q 286 -44 208 -44 q 458 9 376 -44 q 606 152 539 63 q 721 351 672 242 q 794 575 769 461 q 818 713 810 650 q 826 824 826 775 q 818 868 826 867 q 765 850 804 872 q 709 814 739 836 q 646 761 679 792 q 588 692 615 735 q 553 601 553 640 q 582 549 553 568 q 643 526 614 526 q 673 533 656 526 q 701 539 690 539 q 714 533 714 539 q 674 514 714 525 q 594 504 636 504 q 522 525 553 504 q 492 586 492 546 q 588 744 492 660 q 856 892 751 892 q 904 880 893 892 q 915 836 915 868 q 874 608 915 763 q 778 355 838 476 q 642 139 719 233 q 472 -10 565 44 q 274 -65 378 -65 m 831 967 q 822 975 822 967 q 829 988 822 982 q 881 1023 858 1007 q 903 1068 903 1039 q 890 1094 903 1086 q 858 1101 876 1101 q 807 1092 826 1101 q 785 1083 788 1083 q 776 1085 781 1083 q 778 1092 772 1086 q 835 1130 803 1119 q 883 1140 867 1140 q 931 1123 910 1140 q 950 1074 953 1106 q 929 1026 947 1043 q 888 997 911 1008 q 843 971 864 985 q 831 967 838 967 z "},"Ȋ":{"ha":725,"x_min":38,"x_max":915,"o":"m 203 -136 q 299 -162 264 -136 q 333 -229 333 -187 q 324 -251 333 -242 q 307 -261 315 -261 q 296 -250 299 -261 q 264 -194 288 -215 q 201 -172 240 -172 q 130 -192 167 -172 q 67 -256 93 -211 q 57 -260 63 -260 q 50 -256 53 -260 q 50 -247 47 -253 q 106 -168 69 -200 q 203 -136 143 -136 m 274 -65 q 154 -41 208 -65 q 69 26 100 -17 q 38 126 38 69 q 49 190 38 157 q 97 267 64 235 q 172 319 129 300 q 279 344 226 344 q 315 333 315 344 q 292 321 315 324 q 156 258 203 310 q 110 129 110 207 q 159 4 110 53 q 286 -44 208 -44 q 458 9 376 -44 q 606 152 539 63 q 721 351 672 242 q 794 575 769 461 q 818 713 810 650 q 826 824 826 775 q 818 868 826 867 q 765 850 804 872 q 709 814 739 836 q 646 761 679 792 q 588 692 615 735 q 553 601 553 640 q 582 549 553 568 q 643 526 614 526 q 673 533 656 526 q 701 539 690 539 q 714 533 714 539 q 674 514 714 525 q 594 504 636 504 q 522 525 553 504 q 492 586 492 546 q 588 744 492 660 q 856 892 751 892 q 904 880 893 892 q 915 836 915 868 q 874 608 915 763 q 778 355 838 476 q 642 139 719 233 q 472 -10 565 44 q 274 -65 378 -65 z "},"Ī":{"ha":725,"x_min":38,"x_max":1024,"o":"m 274 -65 q 154 -41 208 -65 q 69 26 100 -17 q 38 126 38 69 q 49 190 38 157 q 97 267 64 235 q 172 319 129 300 q 279 344 226 344 q 315 333 315 344 q 292 321 315 324 q 156 258 203 310 q 110 129 110 207 q 159 4 110 53 q 286 -44 208 -44 q 458 9 376 -44 q 606 152 539 63 q 721 351 672 242 q 794 575 769 461 q 818 713 810 650 q 826 824 826 775 q 818 868 826 867 q 765 850 804 872 q 709 814 739 836 q 646 761 679 792 q 588 692 615 735 q 553 601 553 640 q 582 549 553 568 q 643 526 614 526 q 673 533 656 526 q 701 539 690 539 q 714 533 714 539 q 674 514 714 525 q 594 504 636 504 q 522 525 553 504 q 492 586 492 546 q 588 744 492 660 q 856 892 751 892 q 904 880 893 892 q 915 836 915 868 q 874 608 915 763 q 778 355 838 476 q 642 139 719 233 q 472 -10 565 44 q 274 -65 378 -65 m 732 965 q 713 967 714 965 q 704 988 707 974 q 707 1007 701 1006 q 814 1017 719 1017 q 978 1012 933 1017 q 1024 996 1024 1007 q 1022 992 1022 994 q 1018 989 1021 990 q 977 980 1015 985 q 836 969 939 975 q 732 965 761 965 z "},"Į":{"ha":725,"x_min":38,"x_max":915,"o":"m 274 -65 q 154 -41 208 -65 q 69 26 100 -17 q 38 126 38 69 q 49 190 38 157 q 97 267 64 235 q 172 319 129 300 q 279 344 226 344 q 315 333 315 344 q 292 321 315 324 q 156 258 203 310 q 110 129 110 207 q 159 4 110 53 q 286 -44 208 -44 q 458 9 376 -44 q 606 152 539 63 q 721 351 672 242 q 794 575 769 461 q 818 713 810 650 q 826 824 826 775 q 818 868 826 867 q 765 850 804 872 q 709 814 739 836 q 646 761 679 792 q 588 692 615 735 q 553 601 553 640 q 582 549 553 568 q 643 526 614 526 q 673 533 656 526 q 701 539 690 539 q 714 533 714 539 q 674 514 714 525 q 594 504 636 504 q 522 525 553 504 q 492 586 492 546 q 588 744 492 660 q 856 892 751 892 q 904 880 893 892 q 915 836 915 868 q 874 608 915 763 q 778 355 838 476 q 642 139 719 233 q 472 -10 565 44 q 274 -65 378 -65 m 168 -296 q 83 -219 83 -281 q 113 -143 83 -186 q 188 -68 142 -100 q 209 -55 200 -58 q 222 -51 218 -51 q 228 -56 228 -51 q 213 -76 228 -64 q 177 -119 197 -90 q 142 -178 157 -147 q 128 -233 128 -210 q 138 -260 128 -251 q 160 -274 147 -269 q 179 -276 165 -276 q 228 -264 201 -276 q 278 -233 256 -251 q 285 -231 281 -231 q 293 -242 293 -231 q 279 -262 293 -254 q 216 -292 244 -285 q 168 -296 188 -299 z "},"Ĩ":{"ha":725,"x_min":38,"x_max":1021,"o":"m 274 -65 q 154 -41 208 -65 q 69 26 100 -17 q 38 126 38 69 q 49 190 38 157 q 97 267 64 235 q 172 319 129 300 q 279 344 226 344 q 315 333 315 344 q 292 321 315 324 q 156 258 203 310 q 110 129 110 207 q 159 4 110 53 q 286 -44 208 -44 q 458 9 376 -44 q 606 152 539 63 q 721 351 672 242 q 794 575 769 461 q 818 713 810 650 q 826 824 826 775 q 818 868 826 867 q 765 850 804 872 q 709 814 739 836 q 646 761 679 792 q 588 692 615 735 q 553 601 553 640 q 582 549 553 568 q 643 526 614 526 q 673 533 656 526 q 701 539 690 539 q 714 533 714 539 q 674 514 714 525 q 594 504 636 504 q 522 525 553 504 q 492 586 492 546 q 588 744 492 660 q 856 892 751 892 q 904 880 893 892 q 915 836 915 868 q 874 608 915 763 q 778 355 838 476 q 642 139 719 233 q 472 -10 565 44 q 274 -65 378 -65 m 936 960 q 888 970 915 960 q 833 994 860 981 q 792 1014 807 1010 q 768 1018 776 1018 q 726 978 743 1018 q 718 971 722 971 q 711 983 711 971 q 714 998 711 989 q 724 1017 717 1007 q 785 1064 756 1064 q 819 1055 801 1064 q 858 1036 836 1046 l 928 1006 q 957 1004 946 1000 q 974 1013 967 1006 q 989 1029 982 1019 q 999 1043 996 1038 q 1006 1053 1003 1049 q 1014 1060 1010 1060 q 1017 1047 1021 1060 q 1012 1029 1014 1038 q 999 1004 1010 1021 q 969 971 988 982 q 936 960 951 960 z "},"J":{"ha":671,"x_min":-100,"x_max":1044,"o":"m 46 -197 q -26 -176 7 -197 q -80 -121 -60 -156 q -100 -46 -100 -86 q -60 70 -100 14 q 61 160 -19 126 q 86 165 76 165 q 97 157 97 165 q 90 146 97 150 q 28 85 56 122 q -17 8 0 49 q -33 -69 -33 -33 q -8 -137 -33 -110 q 75 -165 17 -165 q 227 -118 157 -165 q 356 9 297 -71 q 465 190 415 89 q 558 399 515 290 q 638 608 601 507 q 678 735 668 693 q 685 776 688 776 q 642 771 675 776 q 553 754 610 765 q 440 739 446 735 q 425 760 425 746 q 438 786 425 774 q 464 799 450 799 q 472 797 469 799 l 474 796 q 469 788 474 793 q 465 782 465 783 q 471 779 468 779 q 490 783 476 779 q 533 793 506 789 q 599 803 560 797 q 674 813 647 810 q 703 817 700 815 l 714 840 q 738 865 726 865 q 796 824 754 865 q 1025 811 999 824 q 1044 790 1042 803 q 1032 771 1044 779 q 1019 772 1021 764 q 961 797 1015 797 q 924 796 949 797 q 889 794 899 794 q 772 779 856 794 q 728 656 753 729 q 675 503 703 582 q 619 358 647 425 q 513 141 571 242 q 386 -36 456 40 q 233 -155 317 -112 q 46 -197 149 -197 z "},"Ĵ":{"ha":671,"x_min":-100,"x_max":1044,"o":"m 46 -197 q -26 -176 7 -197 q -80 -121 -60 -156 q -100 -46 -100 -86 q -60 70 -100 14 q 61 160 -19 126 q 86 165 76 165 q 97 157 97 165 q 90 146 97 150 q 28 85 56 122 q -17 8 0 49 q -33 -69 -33 -33 q -8 -137 -33 -110 q 75 -165 17 -165 q 227 -118 157 -165 q 356 9 297 -71 q 465 190 415 89 q 558 399 515 290 q 638 608 601 507 q 678 735 668 693 q 685 776 688 776 q 642 771 675 776 q 553 754 610 765 q 440 739 446 735 q 425 760 425 746 q 438 786 425 774 q 464 799 450 799 q 472 797 469 799 l 474 796 q 469 788 474 793 q 465 782 465 783 q 471 779 468 779 q 490 783 476 779 q 533 793 506 789 q 599 803 560 797 q 674 813 647 810 q 703 817 700 815 l 714 840 q 738 865 726 865 q 796 824 754 865 q 1025 811 999 824 q 1044 790 1042 803 q 1032 771 1044 779 q 1019 772 1021 764 q 961 797 1015 797 q 924 796 949 797 q 889 794 899 794 q 772 779 856 794 q 728 656 753 729 q 675 503 703 582 q 619 358 647 425 q 513 141 571 242 q 386 -36 456 40 q 233 -155 317 -112 q 46 -197 149 -197 m 633 938 q 621 947 621 938 q 629 958 621 954 q 654 976 643 969 q 674 989 665 983 q 726 1020 692 1000 q 797 1067 761 1040 q 822 1078 813 1078 q 853 1040 835 1078 q 889 994 863 1019 q 944 968 915 968 q 965 970 956 968 q 981 978 974 972 q 997 985 989 985 q 1003 981 1003 985 q 996 969 1003 976 q 962 945 978 953 q 914 938 946 938 q 851 962 881 938 q 810 1011 821 986 q 790 1025 804 1025 q 764 1014 779 1025 q 709 979 738 994 q 644 940 681 964 q 639 938 642 939 q 633 938 636 938 z "},"K":{"ha":1107,"x_min":36,"x_max":1560,"o":"m 411 -49 q 364 -32 360 -49 q 388 30 369 -10 q 438 126 406 69 q 495 226 465 178 q 556 318 525 274 q 694 521 644 447 q 756 613 744 594 q 865 835 865 781 q 853 858 865 853 q 767 875 815 875 q 442 782 658 875 q 315 715 374 753 q 207 633 257 678 q 97 447 97 532 q 116 384 97 413 q 199 349 135 356 q 246 332 251 342 q 174 306 232 306 q 75 339 124 306 q 36 424 36 365 q 94 579 36 504 q 238 704 142 639 q 467 821 349 782 q 793 899 696 899 q 938 825 908 899 q 771 528 950 793 q 577 230 656 357 q 456 18 499 103 l 456 15 q 465 -3 456 8 q 475 -21 475 -14 q 411 -49 472 -49 m 1263 -190 q 1225 -179 1244 -190 q 949 96 1146 -132 q 740 421 740 340 q 746 442 740 436 q 810 494 761 460 q 940 578 858 528 q 1076 660 1008 621 q 1213 736 1144 700 q 1522 843 1403 839 l 1528 843 q 1560 825 1560 843 q 1538 810 1560 811 q 815 439 1275 769 q 811 429 811 438 q 888 283 811 394 q 969 173 926 228 q 1058 65 1011 118 q 1304 -122 1228 -122 q 1338 -112 1321 -122 q 1357 -103 1354 -103 l 1363 -103 q 1375 -111 1375 -103 q 1333 -156 1375 -132 q 1297 -178 1315 -167 q 1263 -190 1278 -190 z "},"Ķ":{"ha":1107,"x_min":36,"x_max":1560,"o":"m 411 -49 q 364 -32 360 -49 q 388 30 369 -10 q 438 126 406 69 q 495 226 465 178 q 556 318 525 274 q 694 521 644 447 q 756 613 744 594 q 865 835 865 781 q 853 858 865 853 q 767 875 815 875 q 442 782 658 875 q 315 715 374 753 q 207 633 257 678 q 97 447 97 532 q 116 384 97 413 q 199 349 135 356 q 246 332 251 342 q 174 306 232 306 q 75 339 124 306 q 36 424 36 365 q 94 579 36 504 q 238 704 142 639 q 467 821 349 782 q 793 899 696 899 q 938 825 908 899 q 771 528 950 793 q 577 230 656 357 q 456 18 499 103 l 456 15 q 465 -3 456 8 q 475 -21 475 -14 q 411 -49 472 -49 m 1263 -190 q 1225 -179 1244 -190 q 949 96 1146 -132 q 740 421 740 340 q 746 442 740 436 q 810 494 761 460 q 940 578 858 528 q 1076 660 1008 621 q 1213 736 1144 700 q 1522 843 1403 839 l 1528 843 q 1560 825 1560 843 q 1538 810 1560 811 q 815 439 1275 769 q 811 429 811 438 q 888 283 811 394 q 969 173 926 228 q 1058 65 1011 118 q 1304 -122 1228 -122 q 1338 -112 1321 -122 q 1357 -103 1354 -103 l 1363 -103 q 1375 -111 1375 -103 q 1333 -156 1375 -132 q 1297 -178 1315 -167 q 1263 -190 1278 -190 m 610 -354 l 622 -337 q 646 -312 636 -322 q 661 -294 656 -301 q 680 -267 674 -279 q 688 -246 686 -256 q 672 -214 688 -228 q 653 -196 654 -200 q 656 -181 654 -187 q 661 -169 657 -175 q 671 -161 664 -165 q 690 -151 678 -157 q 701 -150 692 -150 q 732 -162 717 -151 q 747 -189 747 -174 q 699 -283 747 -219 q 610 -354 649 -350 z "},"L":{"ha":963,"x_min":57,"x_max":1151,"o":"m 753 -158 q 625 -143 690 -158 q 376 11 497 -111 q 206 -83 274 -83 q 90 -15 129 -83 q 57 143 57 46 q 63 226 57 185 q 79 308 68 268 q 136 426 103 390 q 175 454 161 454 q 199 419 189 454 l 219 347 q 389 64 279 193 q 564 281 475 150 q 514 419 514 335 q 538 538 514 475 q 551 554 544 554 q 563 543 563 554 q 561 533 563 539 q 557 519 560 526 q 539 428 539 474 q 585 314 539 356 q 690 489 649 413 q 750 621 732 565 q 814 735 774 686 q 874 779 851 779 q 886 761 886 779 q 851 668 886 732 q 614 293 760 500 q 681 278 647 278 q 842 339 757 278 q 1019 538 936 406 q 1094 782 1094 657 q 1021 910 1094 910 q 932 864 982 910 q 913 854 922 854 q 900 867 900 854 q 910 885 900 876 q 1026 938 971 938 q 1117 888 1082 938 q 1151 758 1151 838 q 1079 528 1151 642 q 875 297 982 374 q 690 228 778 228 q 589 258 632 228 q 490 132 535 186 q 408 42 444 78 q 725 -124 554 -124 q 889 -96 808 -124 q 988 -29 968 -69 q 1040 17 1011 17 q 1063 -7 1063 17 q 1058 -26 1063 -15 q 956 -117 1040 -78 q 753 -158 867 -158 m 210 -39 q 356 33 274 -39 q 189 276 256 142 q 168 297 179 297 q 132 240 149 297 q 120 187 125 214 q 113 131 115 160 q 111 119 111 125 q 111 106 111 113 q 129 21 111 58 q 210 -39 156 -39 z "},"Ǉ":{"ha":1633,"x_min":57,"x_max":2007,"o":"m 753 -158 q 625 -143 690 -158 q 376 11 497 -111 q 206 -83 274 -83 q 90 -15 129 -83 q 57 143 57 46 q 63 226 57 185 q 79 308 68 268 q 136 426 103 390 q 175 454 161 454 q 199 419 189 454 l 219 347 q 389 64 279 193 q 564 281 475 150 q 514 419 514 335 q 538 538 514 475 q 551 554 544 554 q 563 543 563 554 q 561 533 563 539 q 557 519 560 526 q 539 428 539 474 q 585 314 539 356 q 690 489 649 413 q 750 621 732 565 q 814 735 774 686 q 874 779 851 779 q 886 761 886 779 q 851 668 886 732 q 614 293 760 500 q 681 278 647 278 q 842 339 757 278 q 1019 538 936 406 q 1094 782 1094 657 q 1021 910 1094 910 q 932 864 982 910 q 913 854 922 854 q 900 867 900 854 q 910 885 900 876 q 1026 938 971 938 q 1117 888 1082 938 q 1151 758 1151 838 q 1079 528 1151 642 q 875 297 982 374 q 690 228 778 228 q 589 258 632 228 q 490 132 535 186 q 408 42 444 78 q 725 -124 554 -124 q 889 -96 808 -124 q 988 -29 968 -69 q 1040 17 1011 17 q 1063 -7 1063 17 q 1058 -26 1063 -15 q 956 -117 1040 -78 q 753 -158 867 -158 m 210 -39 q 356 33 274 -39 q 189 276 256 142 q 168 297 179 297 q 132 240 149 297 q 120 187 125 214 q 113 131 115 160 q 111 119 111 125 q 111 106 111 113 q 129 21 111 58 q 210 -39 156 -39 m 1008 -197 q 936 -176 969 -197 q 883 -121 903 -156 q 863 -46 863 -86 q 903 70 863 14 q 1024 160 943 126 q 1049 165 1039 165 q 1060 157 1060 165 q 1053 146 1060 150 q 990 85 1018 122 q 946 8 963 49 q 929 -69 929 -33 q 954 -137 929 -110 q 1038 -165 979 -165 q 1190 -118 1119 -165 q 1319 9 1260 -71 q 1428 190 1378 89 q 1521 399 1478 290 q 1600 608 1564 507 q 1640 735 1631 693 q 1647 776 1650 776 q 1605 771 1638 776 q 1515 754 1572 765 q 1403 739 1408 735 q 1388 760 1388 746 q 1400 786 1388 774 q 1426 799 1413 799 q 1435 797 1432 799 l 1436 796 q 1432 788 1436 793 q 1428 782 1428 783 q 1433 779 1431 779 q 1453 783 1439 779 q 1495 793 1468 789 q 1561 803 1522 797 q 1636 813 1610 810 q 1665 817 1663 815 l 1676 840 q 1700 865 1689 865 q 1758 824 1717 865 q 1988 811 1961 824 q 2007 790 2004 803 q 1994 771 2007 779 q 1982 772 1983 764 q 1924 797 1978 797 q 1886 796 1911 797 q 1851 794 1861 794 q 1735 779 1818 794 q 1690 656 1715 729 q 1638 503 1665 582 q 1582 358 1610 425 q 1476 141 1533 242 q 1349 -36 1418 40 q 1195 -155 1279 -112 q 1008 -197 1111 -197 z "},"Ĺ":{"ha":963,"x_min":57,"x_max":1151,"o":"m 753 -158 q 625 -143 690 -158 q 376 11 497 -111 q 206 -83 274 -83 q 90 -15 129 -83 q 57 143 57 46 q 63 226 57 185 q 79 308 68 268 q 136 426 103 390 q 175 454 161 454 q 199 419 189 454 l 219 347 q 389 64 279 193 q 564 281 475 150 q 514 419 514 335 q 538 538 514 475 q 551 554 544 554 q 563 543 563 554 q 561 533 563 539 q 557 519 560 526 q 539 428 539 474 q 585 314 539 356 q 690 489 649 413 q 750 621 732 565 q 814 735 774 686 q 874 779 851 779 q 886 761 886 779 q 851 668 886 732 q 614 293 760 500 q 681 278 647 278 q 842 339 757 278 q 1019 538 936 406 q 1094 782 1094 657 q 1021 910 1094 910 q 932 864 982 910 q 913 854 922 854 q 900 867 900 854 q 910 885 900 876 q 1026 938 971 938 q 1117 888 1082 938 q 1151 758 1151 838 q 1079 528 1151 642 q 875 297 982 374 q 690 228 778 228 q 589 258 632 228 q 490 132 535 186 q 408 42 444 78 q 725 -124 554 -124 q 889 -96 808 -124 q 988 -29 968 -69 q 1040 17 1011 17 q 1063 -7 1063 17 q 1058 -26 1063 -15 q 956 -117 1040 -78 q 753 -158 867 -158 m 210 -39 q 356 33 274 -39 q 189 276 256 142 q 168 297 179 297 q 132 240 149 297 q 120 187 125 214 q 113 131 115 160 q 111 119 111 125 q 111 106 111 113 q 129 21 111 58 q 210 -39 156 -39 m 986 1013 q 983 1015 983 1013 q 1004 1042 983 1021 q 1067 1099 1036 1069 q 1113 1147 1099 1128 q 1124 1153 1118 1153 q 1141 1142 1132 1153 q 1150 1119 1150 1131 q 1146 1110 1150 1114 q 1079 1060 1114 1085 q 1018 1024 1044 1035 q 986 1013 992 1013 z "},"Ľ":{"ha":963,"x_min":57,"x_max":1226,"o":"m 1214 1143 q 1226 1133 1226 1143 q 1218 1122 1226 1126 q 1193 1104 1204 1111 q 1174 1092 1182 1097 q 1128 1061 1156 1082 q 1064 1014 1100 1040 q 1039 1003 1049 1003 q 1008 1040 1026 1003 q 981 1087 999 1061 q 933 1113 963 1113 q 913 1111 922 1113 q 897 1103 904 1110 q 881 1096 889 1096 q 875 1100 875 1096 q 882 1111 875 1104 q 917 1135 901 1128 q 964 1143 933 1143 q 1019 1119 997 1143 q 1051 1069 1040 1094 q 1071 1056 1057 1056 q 1097 1067 1082 1056 q 1147 1102 1125 1086 q 1203 1140 1168 1118 q 1208 1142 1206 1142 q 1214 1143 1211 1143 m 753 -158 q 625 -143 690 -158 q 376 11 497 -111 q 206 -83 274 -83 q 90 -15 129 -83 q 57 143 57 46 q 63 226 57 185 q 79 308 68 268 q 136 426 103 390 q 175 454 161 454 q 199 419 189 454 l 219 347 q 389 64 279 193 q 564 281 475 150 q 514 419 514 335 q 538 538 514 475 q 551 554 544 554 q 563 543 563 554 q 561 533 563 539 q 557 519 560 526 q 539 428 539 474 q 585 314 539 356 q 690 489 649 413 q 750 621 732 565 q 814 735 774 686 q 874 779 851 779 q 886 761 886 779 q 851 668 886 732 q 614 293 760 500 q 681 278 647 278 q 842 339 757 278 q 1019 538 936 406 q 1094 782 1094 657 q 1021 910 1094 910 q 932 864 982 910 q 913 854 922 854 q 900 867 900 854 q 910 885 900 876 q 1026 938 971 938 q 1117 888 1082 938 q 1151 758 1151 838 q 1079 528 1151 642 q 875 297 982 374 q 690 228 778 228 q 589 258 632 228 q 490 132 535 186 q 408 42 444 78 q 725 -124 554 -124 q 889 -96 808 -124 q 988 -29 968 -69 q 1040 17 1011 17 q 1063 -7 1063 17 q 1058 -26 1063 -15 q 956 -117 1040 -78 q 753 -158 867 -158 m 210 -39 q 356 33 274 -39 q 189 276 256 142 q 168 297 179 297 q 132 240 149 297 q 120 187 125 214 q 113 131 115 160 q 111 119 111 125 q 111 106 111 113 q 129 21 111 58 q 210 -39 156 -39 z "},"Ļ":{"ha":963,"x_min":57,"x_max":1151,"o":"m 753 -158 q 625 -143 690 -158 q 376 11 497 -111 q 206 -83 274 -83 q 90 -15 129 -83 q 57 143 57 46 q 63 226 57 185 q 79 308 68 268 q 136 426 103 390 q 175 454 161 454 q 199 419 189 454 l 219 347 q 389 64 279 193 q 564 281 475 150 q 514 419 514 335 q 538 538 514 475 q 551 554 544 554 q 563 543 563 554 q 561 533 563 539 q 557 519 560 526 q 539 428 539 474 q 585 314 539 356 q 690 489 649 413 q 750 621 732 565 q 814 735 774 686 q 874 779 851 779 q 886 761 886 779 q 851 668 886 732 q 614 293 760 500 q 681 278 647 278 q 842 339 757 278 q 1019 538 936 406 q 1094 782 1094 657 q 1021 910 1094 910 q 932 864 982 910 q 913 854 922 854 q 900 867 900 854 q 910 885 900 876 q 1026 938 971 938 q 1117 888 1082 938 q 1151 758 1151 838 q 1079 528 1151 642 q 875 297 982 374 q 690 228 778 228 q 589 258 632 228 q 490 132 535 186 q 408 42 444 78 q 725 -124 554 -124 q 889 -96 808 -124 q 988 -29 968 -69 q 1040 17 1011 17 q 1063 -7 1063 17 q 1058 -26 1063 -15 q 956 -117 1040 -78 q 753 -158 867 -158 m 210 -39 q 356 33 274 -39 q 189 276 256 142 q 168 297 179 297 q 132 240 149 297 q 120 187 125 214 q 113 131 115 160 q 111 119 111 125 q 111 106 111 113 q 129 21 111 58 q 210 -39 156 -39 m 369 -464 l 382 -447 q 406 -422 396 -432 q 421 -404 415 -411 q 440 -377 433 -389 q 447 -356 446 -365 q 432 -324 447 -337 q 413 -306 414 -310 q 415 -291 414 -297 q 421 -279 417 -285 q 431 -271 424 -275 q 450 -261 438 -267 q 461 -260 451 -260 q 492 -272 476 -261 q 507 -299 507 -283 q 458 -393 507 -329 q 369 -464 408 -460 z "},"Ŀ":{"ha":963,"x_min":57,"x_max":1151,"o":"m 753 -158 q 625 -143 690 -158 q 376 11 497 -111 q 206 -83 274 -83 q 90 -15 129 -83 q 57 143 57 46 q 63 226 57 185 q 79 308 68 268 q 136 426 103 390 q 175 454 161 454 q 199 419 189 454 l 219 347 q 389 64 279 193 q 564 281 475 150 q 514 419 514 335 q 538 538 514 475 q 551 554 544 554 q 563 543 563 554 q 561 533 563 539 q 557 519 560 526 q 539 428 539 474 q 585 314 539 356 q 690 489 649 413 q 750 621 732 565 q 814 735 774 686 q 874 779 851 779 q 886 761 886 779 q 851 668 886 732 q 614 293 760 500 q 681 278 647 278 q 842 339 757 278 q 1019 538 936 406 q 1094 782 1094 657 q 1021 910 1094 910 q 932 864 982 910 q 913 854 922 854 q 900 867 900 854 q 910 885 900 876 q 1026 938 971 938 q 1117 888 1082 938 q 1151 758 1151 838 q 1079 528 1151 642 q 875 297 982 374 q 690 228 778 228 q 589 258 632 228 q 490 132 535 186 q 408 42 444 78 q 725 -124 554 -124 q 889 -96 808 -124 q 988 -29 968 -69 q 1040 17 1011 17 q 1063 -7 1063 17 q 1058 -26 1063 -15 q 956 -117 1040 -78 q 753 -158 867 -158 m 210 -39 q 356 33 274 -39 q 189 276 256 142 q 168 297 179 297 q 132 240 149 297 q 120 187 125 214 q 113 131 115 160 q 111 119 111 125 q 111 106 111 113 q 129 21 111 58 q 210 -39 156 -39 m 674 65 q 627 70 653 63 q 601 90 601 78 q 607 108 601 99 q 621 126 613 117 q 649 163 644 156 q 665 171 654 171 q 714 140 692 171 q 715 135 715 139 q 700 99 715 125 q 674 65 682 65 z "},"ǈ":{"ha":1254,"x_min":57,"x_max":1440,"o":"m 753 -158 q 625 -143 690 -158 q 376 11 497 -111 q 206 -83 274 -83 q 90 -15 129 -83 q 57 143 57 46 q 63 226 57 185 q 79 308 68 268 q 136 426 103 390 q 175 454 161 454 q 199 419 189 454 l 219 347 q 389 64 279 193 q 564 281 475 150 q 514 419 514 335 q 538 538 514 475 q 551 554 544 554 q 563 543 563 554 q 561 533 563 539 q 557 519 560 526 q 539 428 539 474 q 585 314 539 356 q 690 489 649 413 q 750 621 732 565 q 814 735 774 686 q 874 779 851 779 q 886 761 886 779 q 851 668 886 732 q 614 293 760 500 q 681 278 647 278 q 842 339 757 278 q 1019 538 936 406 q 1094 782 1094 657 q 1021 910 1094 910 q 932 864 982 910 q 913 854 922 854 q 900 867 900 854 q 910 885 900 876 q 1026 938 971 938 q 1117 888 1082 938 q 1151 758 1151 838 q 1079 528 1151 642 q 875 297 982 374 q 690 228 778 228 q 589 258 632 228 q 490 132 535 186 q 408 42 444 78 q 725 -124 554 -124 q 889 -96 808 -124 q 988 -29 968 -69 q 1040 17 1011 17 q 1063 -7 1063 17 q 1058 -26 1063 -15 q 956 -117 1040 -78 q 753 -158 867 -158 m 210 -39 q 356 33 274 -39 q 189 276 256 142 q 168 297 179 297 q 132 240 149 297 q 120 187 125 214 q 113 131 115 160 q 111 119 111 125 q 111 106 111 113 q 129 21 111 58 q 210 -39 156 -39 m 1399 488 q 1351 493 1376 485 q 1326 514 1326 501 q 1332 531 1326 521 q 1346 550 1338 540 q 1374 587 1369 579 q 1390 594 1378 594 q 1439 564 1421 594 q 1440 558 1440 563 q 1425 522 1440 549 q 1399 488 1407 489 m 878 -428 q 825 -375 825 -428 q 863 -272 825 -332 q 923 -192 886 -235 q 1011 -103 960 -150 q 1206 51 1103 -14 q 1269 233 1229 110 l 1269 235 q 1267 242 1269 238 q 1265 250 1265 246 q 1296 310 1265 269 q 1324 324 1306 324 q 1357 299 1357 324 q 1353 286 1357 293 q 1326 212 1343 258 q 1286 100 1310 165 q 1357 126 1331 126 q 1368 121 1368 126 q 1333 94 1368 107 q 1303 82 1319 89 q 1269 65 1288 75 q 1035 -333 1172 -176 q 878 -428 951 -428 m 907 -399 q 971 -356 933 -399 q 1188 8 1094 -217 q 913 -278 1003 -129 q 882 -364 882 -326 q 907 -399 882 -399 z "},"Ł":{"ha":963,"x_min":57,"x_max":1151,"o":"m 401 144 q 372 146 375 144 q 363 164 365 150 q 361 174 361 168 q 365 183 361 182 q 493 190 375 190 q 668 172 668 190 q 666 169 667 171 q 664 165 665 167 q 518 149 653 154 q 401 144 439 144 m 753 -158 q 625 -143 690 -158 q 376 11 497 -111 q 206 -83 274 -83 q 90 -15 129 -83 q 57 143 57 46 q 63 226 57 185 q 79 308 68 268 q 136 426 103 390 q 175 454 161 454 q 199 419 189 454 l 219 347 q 389 64 279 193 q 564 281 475 150 q 514 419 514 335 q 538 538 514 475 q 551 554 544 554 q 563 543 563 554 q 561 533 563 539 q 557 519 560 526 q 539 428 539 474 q 585 314 539 356 q 690 489 649 413 q 750 621 732 565 q 814 735 774 686 q 874 779 851 779 q 886 761 886 779 q 851 668 886 732 q 614 293 760 500 q 681 278 647 278 q 842 339 757 278 q 1019 538 936 406 q 1094 782 1094 657 q 1021 910 1094 910 q 932 864 982 910 q 913 854 922 854 q 900 867 900 854 q 910 885 900 876 q 1026 938 971 938 q 1117 888 1082 938 q 1151 758 1151 838 q 1079 528 1151 642 q 875 297 982 374 q 690 228 778 228 q 589 258 632 228 q 490 132 535 186 q 408 42 444 78 q 725 -124 554 -124 q 889 -96 808 -124 q 988 -29 968 -69 q 1040 17 1011 17 q 1063 -7 1063 17 q 1058 -26 1063 -15 q 956 -117 1040 -78 q 753 -158 867 -158 m 210 -39 q 356 33 274 -39 q 189 276 256 142 q 168 297 179 297 q 132 240 149 297 q 120 187 125 214 q 113 131 115 160 q 111 119 111 125 q 111 106 111 113 q 129 21 111 58 q 210 -39 156 -39 z "},"M":{"ha":1482,"x_min":-65,"x_max":1717,"o":"m 1393 -226 q 1292 -107 1304 -226 q 1288 -26 1288 -67 q 1313 163 1288 63 q 1381 368 1339 263 q 1477 581 1424 474 q 1586 789 1531 688 q 1596 815 1596 804 q 1589 825 1596 825 q 1460 735 1563 825 q 1356 631 1404 686 q 1268 528 1307 576 q 1178 412 1215 460 q 1122 333 1142 364 q 1062 235 1097 296 q 979 93 1026 175 q 942 7 978 92 q 903 -50 918 -50 q 860 -31 879 -47 q 844 4 842 -15 q 882 158 851 64 q 968 383 913 253 q 1072 658 1072 633 q 1044 676 1072 676 q 710 400 943 676 q 457 -3 478 124 q 435 -35 454 -22 q 394 -47 415 -47 q 372 -32 372 -47 q 508 339 372 56 q 628 590 610 547 q 672 715 656 658 q 689 806 689 771 q 669 857 689 846 q 606 868 650 868 q 283 782 468 868 q 179 721 228 756 q 88 642 131 686 q -4 468 -4 546 q 3 420 -4 442 q 31 382 10 399 q 80 360 47 368 q 151 353 113 353 q 276 369 213 353 q 285 371 279 371 q 290 367 290 371 q 268 344 290 356 q 212 324 246 332 q 140 315 178 315 q 7 339 69 315 q -65 447 -65 365 q -25 579 -65 510 q 96 707 11 640 q 213 781 144 744 q 359 847 282 818 q 512 894 436 876 q 650 911 588 911 q 769 822 769 911 q 735 688 769 778 q 639 469 700 597 q 556 291 596 379 q 471 113 515 203 q 615 324 472 110 q 702 437 651 376 q 821 563 753 497 q 1010 718 944 682 q 1085 739 1047 739 q 1142 681 1142 739 q 1136 639 1142 660 q 1054 431 1101 554 q 946 146 1007 308 q 943 135 943 138 q 944 133 943 133 q 1053 293 951 133 q 1151 445 1110 385 q 1215 533 1192 506 q 1531 863 1408 772 q 1654 900 1581 900 q 1717 861 1717 900 q 1681 788 1717 832 q 1446 338 1549 621 q 1372 110 1399 206 q 1344 -65 1344 15 q 1359 -162 1344 -137 q 1401 -187 1374 -187 q 1444 -181 1421 -187 q 1494 -165 1467 -175 q 1503 -163 1500 -164 q 1510 -162 1507 -162 q 1517 -167 1517 -162 q 1476 -201 1517 -181 q 1393 -226 1433 -226 z "},"N":{"ha":1190,"x_min":10,"x_max":1360,"o":"m 1122 -200 q 1096 -194 1106 -200 q 1039 -72 1039 -165 q 1124 292 1039 50 q 1195 490 1160 390 q 1267 690 1231 590 q 1269 700 1268 696 q 1269 708 1269 704 q 1240 738 1269 738 q 1149 707 1208 738 q 863 478 1017 642 q 525 -3 672 276 q 542 -16 528 -10 q 549 -28 556 -22 q 490 -46 549 -46 q 439 -31 439 -46 q 469 95 439 10 q 565 311 500 181 l 697 575 q 755 710 738 653 q 772 800 772 767 q 650 874 772 874 q 349 782 543 874 q 158 640 239 729 q 69 465 69 546 q 110 380 69 414 q 214 346 151 346 q 260 350 238 346 l 279 353 q 161 321 194 321 q 82 335 119 321 q 10 444 10 361 q 49 574 10 508 q 174 706 82 632 q 382 835 269 785 q 654 899 522 899 q 836 817 786 899 q 839 800 839 808 q 808 687 839 768 q 714 474 778 606 l 539 113 q 681 321 542 108 q 943 594 753 431 q 1197 772 1126 753 q 1239 778 1215 778 q 1324 749 1289 778 q 1360 690 1360 721 q 1354 672 1360 679 q 1179 281 1250 514 q 1131 87 1147 175 q 1115 -71 1115 -1 q 1158 -171 1115 -176 q 1193 -159 1172 -165 q 1243 -143 1214 -153 q 1254 -142 1247 -142 q 1218 -171 1275 -142 q 1122 -200 1163 -200 z "},"Ǌ":{"ha":1994,"x_min":10,"x_max":2368,"o":"m 1122 -200 q 1096 -194 1106 -200 q 1039 -72 1039 -165 q 1124 292 1039 50 q 1195 490 1160 390 q 1267 690 1231 590 q 1269 700 1268 696 q 1269 708 1269 704 q 1240 738 1269 738 q 1149 707 1208 738 q 863 478 1017 642 q 525 -3 672 276 q 542 -16 528 -10 q 549 -28 556 -22 q 490 -46 549 -46 q 439 -31 439 -46 q 469 95 439 10 q 565 311 500 181 l 697 575 q 755 710 738 653 q 772 800 772 767 q 650 874 772 874 q 349 782 543 874 q 158 640 239 729 q 69 465 69 546 q 110 380 69 414 q 214 346 151 346 q 260 350 238 346 l 279 353 q 161 321 194 321 q 82 335 119 321 q 10 444 10 361 q 49 574 10 508 q 174 706 82 632 q 382 835 269 785 q 654 899 522 899 q 836 817 786 899 q 839 800 839 808 q 808 687 839 768 q 714 474 778 606 l 539 113 q 681 321 542 108 q 943 594 753 431 q 1197 772 1126 753 q 1239 778 1215 778 q 1324 749 1289 778 q 1360 690 1360 721 q 1354 672 1360 679 q 1179 281 1250 514 q 1131 87 1147 175 q 1115 -71 1115 -1 q 1158 -171 1115 -176 q 1193 -159 1172 -165 q 1243 -143 1214 -153 q 1254 -142 1247 -142 q 1218 -171 1275 -142 q 1122 -200 1163 -200 m 1369 -197 q 1297 -176 1331 -197 q 1244 -121 1264 -156 q 1224 -46 1224 -86 q 1264 70 1224 14 q 1385 160 1304 126 q 1410 165 1400 165 q 1421 157 1421 165 q 1414 146 1421 150 q 1351 85 1379 122 q 1307 8 1324 49 q 1290 -69 1290 -33 q 1315 -137 1290 -110 q 1399 -165 1340 -165 q 1551 -118 1481 -165 q 1680 9 1621 -71 q 1789 190 1739 89 q 1882 399 1839 290 q 1961 608 1925 507 q 2001 735 1992 693 q 2008 776 2011 776 q 1966 771 1999 776 q 1876 754 1933 765 q 1764 739 1769 735 q 1749 760 1749 746 q 1761 786 1749 774 q 1788 799 1774 799 q 1796 797 1793 799 l 1797 796 q 1793 788 1797 793 q 1789 782 1789 783 q 1794 779 1792 779 q 1814 783 1800 779 q 1856 793 1829 789 q 1922 803 1883 797 q 1997 813 1971 810 q 2026 817 2024 815 l 2038 840 q 2061 865 2050 865 q 2119 824 2078 865 q 2349 811 2322 824 q 2368 790 2365 803 q 2356 771 2368 779 q 2343 772 2344 764 q 2285 797 2339 797 q 2247 796 2272 797 q 2213 794 2222 794 q 2096 779 2179 794 q 2051 656 2076 729 q 1999 503 2026 582 q 1943 358 1971 425 q 1837 141 1894 242 q 1710 -36 1779 40 q 1556 -155 1640 -112 q 1369 -197 1472 -197 z "},"Ń":{"ha":1190,"x_min":10,"x_max":1365,"o":"m 1122 -200 q 1096 -194 1106 -200 q 1039 -72 1039 -165 q 1124 292 1039 50 q 1195 490 1160 390 q 1267 690 1231 590 q 1269 700 1268 696 q 1269 708 1269 704 q 1240 738 1269 738 q 1149 707 1208 738 q 863 478 1017 642 q 525 -3 672 276 q 542 -16 528 -10 q 549 -28 556 -22 q 490 -46 549 -46 q 439 -31 439 -46 q 469 95 439 10 q 565 311 500 181 l 697 575 q 755 710 738 653 q 772 800 772 767 q 650 874 772 874 q 349 782 543 874 q 158 640 239 729 q 69 465 69 546 q 110 380 69 414 q 214 346 151 346 q 260 350 238 346 l 279 353 q 161 321 194 321 q 82 335 119 321 q 10 444 10 361 q 49 574 10 508 q 174 706 82 632 q 382 835 269 785 q 654 899 522 899 q 836 817 786 899 q 839 800 839 808 q 808 687 839 768 q 714 474 778 606 l 539 113 q 681 321 542 108 q 943 594 753 431 q 1197 772 1126 753 q 1239 778 1215 778 q 1324 749 1289 778 q 1360 690 1360 721 q 1354 672 1360 679 q 1179 281 1250 514 q 1131 87 1147 175 q 1115 -71 1115 -1 q 1158 -171 1115 -176 q 1193 -159 1172 -165 q 1243 -143 1214 -153 q 1254 -142 1247 -142 q 1218 -171 1275 -142 q 1122 -200 1163 -200 m 1194 851 q 1190 854 1190 851 q 1214 879 1190 860 q 1281 932 1247 904 q 1329 978 1314 960 q 1340 982 1336 982 q 1357 969 1349 981 q 1365 947 1365 958 q 1360 938 1364 942 q 1290 893 1326 915 q 1226 861 1254 871 q 1206 854 1214 857 q 1194 851 1197 851 z "},"Ň":{"ha":1190,"x_min":10,"x_max":1453,"o":"m 1440 990 q 1453 981 1453 990 q 1444 969 1453 974 q 1419 951 1431 958 q 1400 939 1408 944 q 1347 908 1382 929 q 1276 861 1313 888 q 1251 850 1261 850 q 1221 888 1239 850 q 1185 934 1211 908 q 1129 960 1158 960 q 1109 958 1118 960 q 1093 950 1100 957 q 1076 943 1085 943 q 1071 947 1071 943 q 1078 958 1071 951 q 1113 983 1097 975 q 1160 990 1129 990 q 1223 966 1193 990 q 1264 917 1253 942 q 1283 903 1269 903 q 1310 914 1294 903 q 1366 949 1338 933 q 1429 988 1394 965 q 1435 990 1432 989 q 1440 990 1438 990 m 1122 -200 q 1096 -194 1106 -200 q 1039 -72 1039 -165 q 1124 292 1039 50 q 1195 490 1160 390 q 1267 690 1231 590 q 1269 700 1268 696 q 1269 708 1269 704 q 1240 738 1269 738 q 1149 707 1208 738 q 863 478 1017 642 q 525 -3 672 276 q 542 -16 528 -10 q 549 -28 556 -22 q 490 -46 549 -46 q 439 -31 439 -46 q 469 95 439 10 q 565 311 500 181 l 697 575 q 755 710 738 653 q 772 800 772 767 q 650 874 772 874 q 349 782 543 874 q 158 640 239 729 q 69 465 69 546 q 110 380 69 414 q 214 346 151 346 q 260 350 238 346 l 279 353 q 161 321 194 321 q 82 335 119 321 q 10 444 10 361 q 49 574 10 508 q 174 706 82 632 q 382 835 269 785 q 654 899 522 899 q 836 817 786 899 q 839 800 839 808 q 808 687 839 768 q 714 474 778 606 l 539 113 q 681 321 542 108 q 943 594 753 431 q 1197 772 1126 753 q 1239 778 1215 778 q 1324 749 1289 778 q 1360 690 1360 721 q 1354 672 1360 679 q 1179 281 1250 514 q 1131 87 1147 175 q 1115 -71 1115 -1 q 1158 -171 1115 -176 q 1193 -159 1172 -165 q 1243 -143 1214 -153 q 1254 -142 1247 -142 q 1218 -171 1275 -142 q 1122 -200 1163 -200 z "},"Ņ":{"ha":1190,"x_min":10,"x_max":1360,"o":"m 1122 -200 q 1096 -194 1106 -200 q 1039 -72 1039 -165 q 1124 292 1039 50 q 1195 490 1160 390 q 1267 690 1231 590 q 1269 700 1268 696 q 1269 708 1269 704 q 1240 738 1269 738 q 1149 707 1208 738 q 863 478 1017 642 q 525 -3 672 276 q 542 -16 528 -10 q 549 -28 556 -22 q 490 -46 549 -46 q 439 -31 439 -46 q 469 95 439 10 q 565 311 500 181 l 697 575 q 755 710 738 653 q 772 800 772 767 q 650 874 772 874 q 349 782 543 874 q 158 640 239 729 q 69 465 69 546 q 110 380 69 414 q 214 346 151 346 q 260 350 238 346 l 279 353 q 161 321 194 321 q 82 335 119 321 q 10 444 10 361 q 49 574 10 508 q 174 706 82 632 q 382 835 269 785 q 654 899 522 899 q 836 817 786 899 q 839 800 839 808 q 808 687 839 768 q 714 474 778 606 l 539 113 q 681 321 542 108 q 943 594 753 431 q 1197 772 1126 753 q 1239 778 1215 778 q 1324 749 1289 778 q 1360 690 1360 721 q 1354 672 1360 679 q 1179 281 1250 514 q 1131 87 1147 175 q 1115 -71 1115 -1 q 1158 -171 1115 -176 q 1193 -159 1172 -165 q 1243 -143 1214 -153 q 1254 -142 1247 -142 q 1218 -171 1275 -142 q 1122 -200 1163 -200 m 663 -354 l 675 -337 q 699 -312 689 -322 q 714 -294 708 -301 q 733 -267 726 -279 q 740 -246 739 -256 q 725 -214 740 -228 q 706 -196 707 -200 q 708 -181 707 -187 q 714 -169 710 -175 q 724 -161 717 -165 q 743 -151 731 -157 q 754 -150 744 -150 q 785 -162 769 -151 q 800 -189 800 -174 q 751 -283 800 -219 q 663 -354 701 -350 z "},"ǋ":{"ha":1482,"x_min":10,"x_max":1599,"o":"m 1122 -200 q 1096 -194 1106 -200 q 1039 -72 1039 -165 q 1124 292 1039 50 q 1195 490 1160 390 q 1267 690 1231 590 q 1269 700 1268 696 q 1269 708 1269 704 q 1240 738 1269 738 q 1149 707 1208 738 q 863 478 1017 642 q 525 -3 672 276 q 542 -16 528 -10 q 549 -28 556 -22 q 490 -46 549 -46 q 439 -31 439 -46 q 469 95 439 10 q 565 311 500 181 l 697 575 q 755 710 738 653 q 772 800 772 767 q 650 874 772 874 q 349 782 543 874 q 158 640 239 729 q 69 465 69 546 q 110 380 69 414 q 214 346 151 346 q 260 350 238 346 l 279 353 q 161 321 194 321 q 82 335 119 321 q 10 444 10 361 q 49 574 10 508 q 174 706 82 632 q 382 835 269 785 q 654 899 522 899 q 836 817 786 899 q 839 800 839 808 q 808 687 839 768 q 714 474 778 606 l 539 113 q 681 321 542 108 q 943 594 753 431 q 1197 772 1126 753 q 1239 778 1215 778 q 1324 749 1289 778 q 1360 690 1360 721 q 1354 672 1360 679 q 1179 281 1250 514 q 1131 87 1147 175 q 1115 -71 1115 -1 q 1158 -171 1115 -176 q 1193 -159 1172 -165 q 1243 -143 1214 -153 q 1254 -142 1247 -142 q 1218 -171 1275 -142 q 1122 -200 1163 -200 m 1557 488 q 1510 493 1535 485 q 1485 514 1485 501 q 1490 531 1485 521 q 1504 550 1496 540 q 1532 587 1528 579 q 1549 594 1536 594 q 1597 564 1579 594 q 1599 558 1599 563 q 1583 522 1599 549 q 1557 488 1565 489 m 1036 -428 q 983 -375 983 -428 q 1021 -272 983 -332 q 1081 -192 1044 -235 q 1169 -103 1118 -150 q 1364 51 1261 -14 q 1428 233 1388 110 l 1428 235 q 1426 242 1428 238 q 1424 250 1424 246 q 1454 310 1424 269 q 1482 324 1464 324 q 1515 299 1515 324 q 1511 286 1515 293 q 1485 212 1501 258 q 1444 100 1468 165 q 1515 126 1489 126 q 1526 121 1526 126 q 1492 94 1526 107 q 1462 82 1478 89 q 1428 65 1446 75 q 1193 -333 1331 -176 q 1036 -428 1110 -428 m 1065 -399 q 1129 -356 1092 -399 q 1346 8 1253 -217 q 1071 -278 1161 -129 q 1040 -364 1040 -326 q 1065 -399 1040 -399 z "},"Ñ":{"ha":1190,"x_min":10,"x_max":1417,"o":"m 1122 -200 q 1096 -194 1106 -200 q 1039 -72 1039 -165 q 1124 292 1039 50 q 1195 490 1160 390 q 1267 690 1231 590 q 1269 700 1268 696 q 1269 708 1269 704 q 1240 738 1269 738 q 1149 707 1208 738 q 863 478 1017 642 q 525 -3 672 276 q 542 -16 528 -10 q 549 -28 556 -22 q 490 -46 549 -46 q 439 -31 439 -46 q 469 95 439 10 q 565 311 500 181 l 697 575 q 755 710 738 653 q 772 800 772 767 q 650 874 772 874 q 349 782 543 874 q 158 640 239 729 q 69 465 69 546 q 110 380 69 414 q 214 346 151 346 q 260 350 238 346 l 279 353 q 161 321 194 321 q 82 335 119 321 q 10 444 10 361 q 49 574 10 508 q 174 706 82 632 q 382 835 269 785 q 654 899 522 899 q 836 817 786 899 q 839 800 839 808 q 808 687 839 768 q 714 474 778 606 l 539 113 q 681 321 542 108 q 943 594 753 431 q 1197 772 1126 753 q 1239 778 1215 778 q 1324 749 1289 778 q 1360 690 1360 721 q 1354 672 1360 679 q 1179 281 1250 514 q 1131 87 1147 175 q 1115 -71 1115 -1 q 1158 -171 1115 -176 q 1193 -159 1172 -165 q 1243 -143 1214 -153 q 1254 -142 1247 -142 q 1218 -171 1275 -142 q 1122 -200 1163 -200 m 1332 840 q 1283 851 1311 840 q 1229 875 1256 861 q 1188 894 1203 890 q 1164 899 1172 899 q 1122 858 1139 899 q 1114 851 1118 851 q 1107 864 1107 851 q 1110 878 1107 869 q 1119 897 1113 888 q 1181 944 1151 944 q 1215 935 1197 944 q 1254 917 1232 926 l 1324 886 q 1353 885 1342 881 q 1370 893 1363 886 q 1385 910 1378 900 q 1395 924 1392 918 q 1401 933 1399 929 q 1410 940 1406 940 q 1413 928 1417 940 q 1408 910 1410 918 q 1394 885 1406 901 q 1365 851 1383 863 q 1332 840 1347 840 z "},"O":{"ha":1296,"x_min":47,"x_max":1333,"o":"m 456 -97 q 326 -85 383 -97 q 125 35 200 -57 q 47 258 47 129 q 91 453 47 354 q 215 640 135 551 q 165 750 165 686 q 267 913 165 844 q 558 985 376 985 q 706 978 633 985 q 846 957 778 971 q 918 965 885 963 q 979 968 951 968 q 1119 932 1083 968 q 1149 889 1149 901 q 1143 883 1149 883 q 1113 896 1132 883 q 996 915 1075 922 q 1257 729 1169 850 q 1333 494 1333 624 q 1243 229 1333 344 q 881 -14 1125 81 q 456 -97 663 -97 m 256 682 q 477 840 354 776 q 746 939 600 904 q 683 944 714 942 q 619 946 651 946 q 592 946 606 946 q 563 944 578 946 q 238 758 238 932 q 256 682 238 719 m 440 -56 q 842 35 624 -56 q 1149 244 1060 126 q 1260 535 1260 393 q 1157 775 1260 672 q 860 921 1051 879 q 708 899 783 918 q 560 849 633 881 q 278 643 394 776 q 301 612 288 629 q 315 593 314 594 q 314 589 315 590 q 283 599 297 593 q 254 613 268 606 q 107 242 107 431 q 204 17 107 96 q 440 -56 293 -56 z "},"Œ":{"ha":1657,"x_min":6,"x_max":1907,"o":"m 1057 -51 q 883 89 883 -51 q 885 117 883 103 q 889 144 886 131 q 760 69 828 103 q 615 8 692 35 q 315 -47 457 -47 q 94 128 94 -47 q 122 253 94 185 q 6 419 6 306 q 151 690 6 565 q 429 849 267 789 q 792 914 613 914 q 1058 858 949 914 q 1208 649 1196 790 q 1403 844 1356 817 q 1711 890 1481 890 q 1886 871 1836 890 q 1907 849 1907 865 q 1867 829 1907 826 q 1747 843 1838 843 q 1457 801 1526 843 q 1189 522 1419 779 q 1203 517 1193 517 q 1261 518 1226 517 q 1343 522 1296 519 q 1426 527 1390 525 q 1486 529 1463 529 q 1603 518 1603 529 q 1553 497 1603 508 q 1480 490 1535 494 q 1332 478 1425 485 q 1115 433 1196 469 q 1010 283 1082 418 q 936 110 936 149 q 1090 10 936 10 q 1494 121 1244 10 q 1566 154 1529 138 q 1642 188 1603 171 l 1633 175 q 1367 19 1578 97 q 1057 -51 1171 -51 m 331 -24 q 642 47 478 -24 q 913 219 796 114 q 1005 389 943 296 q 1160 593 1067 482 q 1165 622 1163 608 q 1167 650 1167 636 q 1053 836 1167 774 q 826 886 961 886 q 453 808 654 886 q 189 661 303 747 q 33 419 33 543 q 133 279 33 311 q 371 568 213 422 q 675 776 532 717 q 800 810 750 808 l 808 810 q 818 800 818 810 q 800 785 818 786 q 678 743 736 775 q 606 700 643 725 q 529 643 569 675 q 434 563 482 607 q 338 469 386 519 q 193 264 207 333 q 228 259 211 261 q 264 257 246 257 q 568 393 413 257 l 604 431 q 638 460 633 460 q 642 453 639 460 q 472 297 576 358 q 253 233 365 233 q 183 243 213 233 q 151 129 151 182 q 206 14 151 56 q 331 -24 256 -24 z "},"Ó":{"ha":1296,"x_min":47,"x_max":1333,"o":"m 456 -97 q 326 -85 383 -97 q 125 35 200 -57 q 47 258 47 129 q 91 453 47 354 q 215 640 135 551 q 165 750 165 686 q 267 913 165 844 q 558 985 376 985 q 706 978 633 985 q 846 957 778 971 q 918 965 885 963 q 979 968 951 968 q 1119 932 1083 968 q 1149 889 1149 901 q 1143 883 1149 883 q 1113 896 1132 883 q 996 915 1075 922 q 1257 729 1169 850 q 1333 494 1333 624 q 1243 229 1333 344 q 881 -14 1125 81 q 456 -97 663 -97 m 256 682 q 477 840 354 776 q 746 939 600 904 q 683 944 714 942 q 619 946 651 946 q 592 946 606 946 q 563 944 578 946 q 238 758 238 932 q 256 682 238 719 m 440 -56 q 842 35 624 -56 q 1149 244 1060 126 q 1260 535 1260 393 q 1157 775 1260 672 q 860 921 1051 879 q 708 899 783 918 q 560 849 633 881 q 278 643 394 776 q 301 612 288 629 q 315 593 314 594 q 314 589 315 590 q 283 599 297 593 q 254 613 268 606 q 107 242 107 431 q 204 17 107 96 q 440 -56 293 -56 m 935 1042 q 931 1044 931 1042 q 954 1069 931 1050 q 1021 1122 988 1094 q 1069 1168 1054 1150 q 1081 1172 1076 1172 q 1097 1160 1089 1171 q 1106 1138 1106 1149 q 1100 1128 1104 1132 q 1031 1083 1067 1106 q 967 1051 994 1061 q 946 1044 954 1047 q 935 1042 938 1042 z "},"Ŏ":{"ha":1296,"x_min":47,"x_max":1333,"o":"m 456 -97 q 326 -85 383 -97 q 125 35 200 -57 q 47 258 47 129 q 91 453 47 354 q 215 640 135 551 q 165 750 165 686 q 267 913 165 844 q 558 985 376 985 q 706 978 633 985 q 846 957 778 971 q 918 965 885 963 q 979 968 951 968 q 1119 932 1083 968 q 1149 889 1149 901 q 1143 883 1149 883 q 1113 896 1132 883 q 996 915 1075 922 q 1257 729 1169 850 q 1333 494 1333 624 q 1243 229 1333 344 q 881 -14 1125 81 q 456 -97 663 -97 m 256 682 q 477 840 354 776 q 746 939 600 904 q 683 944 714 942 q 619 946 651 946 q 592 946 606 946 q 563 944 578 946 q 238 758 238 932 q 256 682 238 719 m 440 -56 q 842 35 624 -56 q 1149 244 1060 126 q 1260 535 1260 393 q 1157 775 1260 672 q 860 921 1051 879 q 708 899 783 918 q 560 849 633 881 q 278 643 394 776 q 301 612 288 629 q 315 593 314 594 q 314 589 315 590 q 283 599 297 593 q 254 613 268 606 q 107 242 107 431 q 204 17 107 96 q 440 -56 293 -56 m 993 1038 q 898 1063 933 1038 q 863 1131 863 1089 q 872 1153 863 1143 q 889 1163 881 1163 q 900 1151 897 1163 q 932 1095 908 1117 q 994 1074 956 1074 q 1066 1094 1029 1074 q 1129 1157 1103 1114 q 1139 1161 1133 1161 q 1146 1158 1143 1161 q 1146 1149 1149 1156 q 1091 1069 1128 1101 q 993 1038 1054 1038 z "},"Ǒ":{"ha":1296,"x_min":47,"x_max":1333,"o":"m 1181 1181 q 1193 1171 1193 1181 q 1185 1160 1193 1164 q 1160 1142 1171 1149 q 1140 1129 1149 1135 q 1088 1099 1122 1119 q 1017 1051 1053 1078 q 992 1040 1001 1040 q 961 1078 979 1040 q 925 1124 951 1099 q 869 1150 899 1150 q 849 1149 858 1150 q 833 1140 840 1147 q 817 1133 825 1133 q 811 1138 811 1133 q 818 1149 811 1142 q 853 1173 838 1165 q 900 1181 869 1181 q 963 1156 933 1181 q 1004 1107 993 1132 q 1024 1093 1010 1093 q 1050 1104 1035 1093 q 1106 1140 1078 1124 q 1169 1178 1135 1156 q 1175 1180 1172 1179 q 1181 1181 1178 1181 m 456 -97 q 326 -85 383 -97 q 125 35 200 -57 q 47 258 47 129 q 91 453 47 354 q 215 640 135 551 q 165 750 165 686 q 267 913 165 844 q 558 985 376 985 q 706 978 633 985 q 846 957 778 971 q 918 965 885 963 q 979 968 951 968 q 1119 932 1083 968 q 1149 889 1149 901 q 1143 883 1149 883 q 1113 896 1132 883 q 996 915 1075 922 q 1257 729 1169 850 q 1333 494 1333 624 q 1243 229 1333 344 q 881 -14 1125 81 q 456 -97 663 -97 m 256 682 q 477 840 354 776 q 746 939 600 904 q 683 944 714 942 q 619 946 651 946 q 592 946 606 946 q 563 944 578 946 q 238 758 238 932 q 256 682 238 719 m 440 -56 q 842 35 624 -56 q 1149 244 1060 126 q 1260 535 1260 393 q 1157 775 1260 672 q 860 921 1051 879 q 708 899 783 918 q 560 849 633 881 q 278 643 394 776 q 301 612 288 629 q 315 593 314 594 q 314 589 315 590 q 283 599 297 593 q 254 613 268 606 q 107 242 107 431 q 204 17 107 96 q 440 -56 293 -56 z "},"Ô":{"ha":1296,"x_min":47,"x_max":1333,"o":"m 456 -97 q 326 -85 383 -97 q 125 35 200 -57 q 47 258 47 129 q 91 453 47 354 q 215 640 135 551 q 165 750 165 686 q 267 913 165 844 q 558 985 376 985 q 706 978 633 985 q 846 957 778 971 q 918 965 885 963 q 979 968 951 968 q 1119 932 1083 968 q 1149 889 1149 901 q 1143 883 1149 883 q 1113 896 1132 883 q 996 915 1075 922 q 1257 729 1169 850 q 1333 494 1333 624 q 1243 229 1333 344 q 881 -14 1125 81 q 456 -97 663 -97 m 256 682 q 477 840 354 776 q 746 939 600 904 q 683 944 714 942 q 619 946 651 946 q 592 946 606 946 q 563 944 578 946 q 238 758 238 932 q 256 682 238 719 m 440 -56 q 842 35 624 -56 q 1149 244 1060 126 q 1260 535 1260 393 q 1157 775 1260 672 q 860 921 1051 879 q 708 899 783 918 q 560 849 633 881 q 278 643 394 776 q 301 612 288 629 q 315 593 314 594 q 314 589 315 590 q 283 599 297 593 q 254 613 268 606 q 107 242 107 431 q 204 17 107 96 q 440 -56 293 -56 m 864 1040 q 851 1050 851 1040 q 860 1061 851 1057 q 885 1079 874 1072 q 904 1092 896 1086 q 957 1123 922 1103 q 1028 1169 992 1143 q 1053 1181 1043 1181 q 1083 1143 1065 1181 q 1119 1097 1093 1122 q 1175 1071 1146 1071 q 1195 1073 1186 1071 q 1211 1081 1204 1075 q 1228 1088 1219 1088 q 1233 1083 1233 1088 q 1226 1072 1233 1079 q 1192 1048 1208 1056 q 1144 1040 1176 1040 q 1081 1065 1111 1040 q 1040 1114 1051 1089 q 1021 1128 1035 1128 q 994 1117 1010 1128 q 940 1082 968 1097 q 875 1043 911 1067 q 869 1041 872 1042 q 864 1040 867 1040 z "},"Ố":{"ha":1296,"x_min":47,"x_max":1333,"o":"m 456 -97 q 326 -85 383 -97 q 125 35 200 -57 q 47 258 47 129 q 91 453 47 354 q 215 640 135 551 q 165 750 165 686 q 267 913 165 844 q 558 985 376 985 q 706 978 633 985 q 846 957 778 971 q 918 965 885 963 q 979 968 951 968 q 1119 932 1083 968 q 1149 889 1149 901 q 1143 883 1149 883 q 1113 896 1132 883 q 996 915 1075 922 q 1257 729 1169 850 q 1333 494 1333 624 q 1243 229 1333 344 q 881 -14 1125 81 q 456 -97 663 -97 m 256 682 q 477 840 354 776 q 746 939 600 904 q 683 944 714 942 q 619 946 651 946 q 592 946 606 946 q 563 944 578 946 q 238 758 238 932 q 256 682 238 719 m 440 -56 q 842 35 624 -56 q 1149 244 1060 126 q 1260 535 1260 393 q 1157 775 1260 672 q 860 921 1051 879 q 708 899 783 918 q 560 849 633 881 q 278 643 394 776 q 301 612 288 629 q 315 593 314 594 q 314 589 315 590 q 283 599 297 593 q 254 613 268 606 q 107 242 107 431 q 204 17 107 96 q 440 -56 293 -56 m 864 1040 q 851 1050 851 1040 q 860 1061 851 1057 q 885 1079 874 1072 q 904 1092 896 1086 q 957 1123 922 1103 q 1028 1169 992 1143 q 1053 1181 1043 1181 q 1083 1143 1065 1181 q 1119 1097 1093 1122 q 1175 1071 1146 1071 q 1195 1073 1186 1071 q 1211 1081 1204 1075 q 1228 1088 1219 1088 q 1233 1083 1233 1088 q 1226 1072 1233 1079 q 1192 1048 1208 1056 q 1144 1040 1176 1040 q 1081 1065 1111 1040 q 1040 1114 1051 1089 q 1021 1128 1035 1128 q 994 1117 1010 1128 q 940 1082 968 1097 q 875 1043 911 1067 q 869 1041 872 1042 q 864 1040 867 1040 m 1150 1154 q 1146 1157 1146 1154 q 1169 1182 1146 1163 q 1236 1235 1203 1207 q 1285 1281 1269 1263 q 1296 1285 1292 1285 q 1313 1272 1304 1283 q 1321 1250 1321 1261 q 1315 1240 1319 1244 q 1246 1196 1282 1218 q 1182 1164 1210 1174 q 1161 1157 1169 1160 q 1150 1154 1153 1154 z "},"Ộ":{"ha":1296,"x_min":47,"x_max":1333,"o":"m 456 -97 q 326 -85 383 -97 q 125 35 200 -57 q 47 258 47 129 q 91 453 47 354 q 215 640 135 551 q 165 750 165 686 q 267 913 165 844 q 558 985 376 985 q 706 978 633 985 q 846 957 778 971 q 918 965 885 963 q 979 968 951 968 q 1119 932 1083 968 q 1149 889 1149 901 q 1143 883 1149 883 q 1113 896 1132 883 q 996 915 1075 922 q 1257 729 1169 850 q 1333 494 1333 624 q 1243 229 1333 344 q 881 -14 1125 81 q 456 -97 663 -97 m 256 682 q 477 840 354 776 q 746 939 600 904 q 683 944 714 942 q 619 946 651 946 q 592 946 606 946 q 563 944 578 946 q 238 758 238 932 q 256 682 238 719 m 440 -56 q 842 35 624 -56 q 1149 244 1060 126 q 1260 535 1260 393 q 1157 775 1260 672 q 860 921 1051 879 q 708 899 783 918 q 560 849 633 881 q 278 643 394 776 q 301 612 288 629 q 315 593 314 594 q 314 589 315 590 q 283 599 297 593 q 254 613 268 606 q 107 242 107 431 q 204 17 107 96 q 440 -56 293 -56 m 261 -250 q 229 -245 247 -251 q 213 -231 211 -239 q 218 -220 215 -226 q 225 -208 221 -214 q 245 -184 242 -189 q 256 -179 249 -179 q 289 -199 272 -179 q 290 -200 289 -200 q 290 -201 290 -200 q 279 -226 290 -207 q 261 -250 267 -250 m 864 1040 q 851 1050 851 1040 q 860 1061 851 1057 q 885 1079 874 1072 q 904 1092 896 1086 q 957 1123 922 1103 q 1028 1169 992 1143 q 1053 1181 1043 1181 q 1083 1143 1065 1181 q 1119 1097 1093 1122 q 1175 1071 1146 1071 q 1195 1073 1186 1071 q 1211 1081 1204 1075 q 1228 1088 1219 1088 q 1233 1083 1233 1088 q 1226 1072 1233 1079 q 1192 1048 1208 1056 q 1144 1040 1176 1040 q 1081 1065 1111 1040 q 1040 1114 1051 1089 q 1021 1128 1035 1128 q 994 1117 1010 1128 q 940 1082 968 1097 q 875 1043 911 1067 q 869 1041 872 1042 q 864 1040 867 1040 z "},"Ồ":{"ha":1296,"x_min":47,"x_max":1333,"o":"m 456 -97 q 326 -85 383 -97 q 125 35 200 -57 q 47 258 47 129 q 91 453 47 354 q 215 640 135 551 q 165 750 165 686 q 267 913 165 844 q 558 985 376 985 q 706 978 633 985 q 846 957 778 971 q 918 965 885 963 q 979 968 951 968 q 1119 932 1083 968 q 1149 889 1149 901 q 1143 883 1149 883 q 1113 896 1132 883 q 996 915 1075 922 q 1257 729 1169 850 q 1333 494 1333 624 q 1243 229 1333 344 q 881 -14 1125 81 q 456 -97 663 -97 m 256 682 q 477 840 354 776 q 746 939 600 904 q 683 944 714 942 q 619 946 651 946 q 592 946 606 946 q 563 944 578 946 q 238 758 238 932 q 256 682 238 719 m 440 -56 q 842 35 624 -56 q 1149 244 1060 126 q 1260 535 1260 393 q 1157 775 1260 672 q 860 921 1051 879 q 708 899 783 918 q 560 849 633 881 q 278 643 394 776 q 301 612 288 629 q 315 593 314 594 q 314 589 315 590 q 283 599 297 593 q 254 613 268 606 q 107 242 107 431 q 204 17 107 96 q 440 -56 293 -56 m 864 1040 q 851 1050 851 1040 q 860 1061 851 1057 q 885 1079 874 1072 q 904 1092 896 1086 q 957 1123 922 1103 q 1028 1169 992 1143 q 1053 1181 1043 1181 q 1083 1143 1065 1181 q 1119 1097 1093 1122 q 1175 1071 1146 1071 q 1195 1073 1186 1071 q 1211 1081 1204 1075 q 1228 1088 1219 1088 q 1233 1083 1233 1088 q 1226 1072 1233 1079 q 1192 1048 1208 1056 q 1144 1040 1176 1040 q 1081 1065 1111 1040 q 1040 1114 1051 1089 q 1021 1128 1035 1128 q 994 1117 1010 1128 q 940 1082 968 1097 q 875 1043 911 1067 q 869 1041 872 1042 q 864 1040 867 1040 m 1279 1154 q 1246 1163 1271 1154 q 1183 1196 1219 1174 q 1114 1240 1147 1218 q 1108 1250 1111 1244 q 1117 1272 1108 1261 q 1133 1285 1125 1283 q 1143 1279 1139 1285 q 1193 1234 1160 1261 q 1260 1182 1226 1207 q 1283 1157 1283 1163 q 1279 1154 1283 1154 z "},"Ổ":{"ha":1296,"x_min":47,"x_max":1333,"o":"m 456 -97 q 326 -85 383 -97 q 125 35 200 -57 q 47 258 47 129 q 91 453 47 354 q 215 640 135 551 q 165 750 165 686 q 267 913 165 844 q 558 985 376 985 q 706 978 633 985 q 846 957 778 971 q 918 965 885 963 q 979 968 951 968 q 1119 932 1083 968 q 1149 889 1149 901 q 1143 883 1149 883 q 1113 896 1132 883 q 996 915 1075 922 q 1257 729 1169 850 q 1333 494 1333 624 q 1243 229 1333 344 q 881 -14 1125 81 q 456 -97 663 -97 m 256 682 q 477 840 354 776 q 746 939 600 904 q 683 944 714 942 q 619 946 651 946 q 592 946 606 946 q 563 944 578 946 q 238 758 238 932 q 256 682 238 719 m 440 -56 q 842 35 624 -56 q 1149 244 1060 126 q 1260 535 1260 393 q 1157 775 1260 672 q 860 921 1051 879 q 708 899 783 918 q 560 849 633 881 q 278 643 394 776 q 301 612 288 629 q 315 593 314 594 q 314 589 315 590 q 283 599 297 593 q 254 613 268 606 q 107 242 107 431 q 204 17 107 96 q 440 -56 293 -56 m 864 1040 q 851 1050 851 1040 q 860 1061 851 1057 q 885 1079 874 1072 q 904 1092 896 1086 q 957 1123 922 1103 q 1028 1169 992 1143 q 1053 1181 1043 1181 q 1083 1143 1065 1181 q 1119 1097 1093 1122 q 1175 1071 1146 1071 q 1195 1073 1186 1071 q 1211 1081 1204 1075 q 1228 1088 1219 1088 q 1233 1083 1233 1088 q 1226 1072 1233 1079 q 1192 1048 1208 1056 q 1144 1040 1176 1040 q 1081 1065 1111 1040 q 1040 1114 1051 1089 q 1021 1128 1035 1128 q 994 1117 1010 1128 q 940 1082 968 1097 q 875 1043 911 1067 q 869 1041 872 1042 q 864 1040 867 1040 m 1182 1150 q 1174 1158 1174 1150 q 1181 1171 1174 1165 q 1232 1206 1210 1190 q 1254 1251 1254 1222 q 1241 1277 1254 1269 q 1210 1285 1228 1285 q 1158 1276 1178 1285 q 1136 1267 1139 1267 q 1128 1268 1132 1267 q 1129 1275 1124 1269 q 1186 1313 1154 1303 q 1235 1324 1218 1324 q 1283 1306 1261 1324 q 1301 1257 1304 1289 q 1281 1209 1299 1226 q 1239 1180 1263 1192 q 1194 1154 1215 1168 q 1182 1150 1189 1150 z "},"Ỗ":{"ha":1296,"x_min":47,"x_max":1333,"o":"m 456 -97 q 326 -85 383 -97 q 125 35 200 -57 q 47 258 47 129 q 91 453 47 354 q 215 640 135 551 q 165 750 165 686 q 267 913 165 844 q 558 985 376 985 q 706 978 633 985 q 846 957 778 971 q 918 965 885 963 q 979 968 951 968 q 1119 932 1083 968 q 1149 889 1149 901 q 1143 883 1149 883 q 1113 896 1132 883 q 996 915 1075 922 q 1257 729 1169 850 q 1333 494 1333 624 q 1243 229 1333 344 q 881 -14 1125 81 q 456 -97 663 -97 m 256 682 q 477 840 354 776 q 746 939 600 904 q 683 944 714 942 q 619 946 651 946 q 592 946 606 946 q 563 944 578 946 q 238 758 238 932 q 256 682 238 719 m 440 -56 q 842 35 624 -56 q 1149 244 1060 126 q 1260 535 1260 393 q 1157 775 1260 672 q 860 921 1051 879 q 708 899 783 918 q 560 849 633 881 q 278 643 394 776 q 301 612 288 629 q 315 593 314 594 q 314 589 315 590 q 283 599 297 593 q 254 613 268 606 q 107 242 107 431 q 204 17 107 96 q 440 -56 293 -56 m 864 1040 q 851 1050 851 1040 q 860 1061 851 1057 q 885 1079 874 1072 q 904 1092 896 1086 q 957 1123 922 1103 q 1028 1169 992 1143 q 1053 1181 1043 1181 q 1083 1143 1065 1181 q 1119 1097 1093 1122 q 1175 1071 1146 1071 q 1195 1073 1186 1071 q 1211 1081 1204 1075 q 1228 1088 1219 1088 q 1233 1083 1233 1088 q 1226 1072 1233 1079 q 1192 1048 1208 1056 q 1144 1040 1176 1040 q 1081 1065 1111 1040 q 1040 1114 1051 1089 q 1021 1128 1035 1128 q 994 1117 1010 1128 q 940 1082 968 1097 q 875 1043 911 1067 q 869 1041 872 1042 q 864 1040 867 1040 m 1164 1201 q 1115 1212 1143 1201 q 1061 1236 1088 1222 q 1019 1256 1035 1251 q 996 1260 1004 1260 q 954 1219 971 1260 q 946 1213 950 1213 q 939 1225 939 1213 q 942 1240 939 1231 q 951 1258 944 1249 q 1013 1306 983 1306 q 1047 1297 1029 1306 q 1086 1278 1064 1288 l 1156 1247 q 1185 1246 1174 1242 q 1202 1254 1194 1247 q 1217 1271 1210 1261 q 1227 1285 1224 1279 q 1233 1294 1231 1290 q 1242 1301 1238 1301 q 1244 1289 1249 1301 q 1240 1271 1242 1279 q 1226 1246 1238 1263 q 1197 1213 1215 1224 q 1164 1201 1179 1201 z "},"Ȍ":{"ha":1296,"x_min":47,"x_max":1333,"o":"m 456 -97 q 326 -85 383 -97 q 125 35 200 -57 q 47 258 47 129 q 91 453 47 354 q 215 640 135 551 q 165 750 165 686 q 267 913 165 844 q 558 985 376 985 q 706 978 633 985 q 846 957 778 971 q 918 965 885 963 q 979 968 951 968 q 1119 932 1083 968 q 1149 889 1149 901 q 1143 883 1149 883 q 1113 896 1132 883 q 996 915 1075 922 q 1257 729 1169 850 q 1333 494 1333 624 q 1243 229 1333 344 q 881 -14 1125 81 q 456 -97 663 -97 m 256 682 q 477 840 354 776 q 746 939 600 904 q 683 944 714 942 q 619 946 651 946 q 592 946 606 946 q 563 944 578 946 q 238 758 238 932 q 256 682 238 719 m 440 -56 q 842 35 624 -56 q 1149 244 1060 126 q 1260 535 1260 393 q 1157 775 1260 672 q 860 921 1051 879 q 708 899 783 918 q 560 849 633 881 q 278 643 394 776 q 301 612 288 629 q 315 593 314 594 q 314 589 315 590 q 283 599 297 593 q 254 613 268 606 q 107 242 107 431 q 204 17 107 96 q 440 -56 293 -56 m 1021 1039 q 990 1058 1017 1039 q 943 1110 969 1078 q 893 1176 917 1143 q 890 1182 890 1179 q 903 1203 890 1193 q 926 1211 917 1214 q 933 1204 931 1211 q 967 1144 944 1181 q 1011 1072 989 1107 q 1024 1042 1024 1050 q 1021 1039 1024 1039 m 933 1035 q 903 1053 926 1035 q 852 1101 881 1069 q 796 1164 824 1133 q 794 1171 794 1165 q 806 1192 794 1182 q 825 1201 817 1201 q 835 1193 833 1201 q 871 1135 846 1171 q 921 1068 896 1100 q 936 1038 936 1044 q 933 1035 936 1035 z "},"Ö":{"ha":1296,"x_min":47,"x_max":1333,"o":"m 456 -97 q 326 -85 383 -97 q 125 35 200 -57 q 47 258 47 129 q 91 453 47 354 q 215 640 135 551 q 165 750 165 686 q 267 913 165 844 q 558 985 376 985 q 706 978 633 985 q 846 957 778 971 q 918 965 885 963 q 979 968 951 968 q 1119 932 1083 968 q 1149 889 1149 901 q 1143 883 1149 883 q 1113 896 1132 883 q 996 915 1075 922 q 1257 729 1169 850 q 1333 494 1333 624 q 1243 229 1333 344 q 881 -14 1125 81 q 456 -97 663 -97 m 256 682 q 477 840 354 776 q 746 939 600 904 q 683 944 714 942 q 619 946 651 946 q 592 946 606 946 q 563 944 578 946 q 238 758 238 932 q 256 682 238 719 m 440 -56 q 842 35 624 -56 q 1149 244 1060 126 q 1260 535 1260 393 q 1157 775 1260 672 q 860 921 1051 879 q 708 899 783 918 q 560 849 633 881 q 278 643 394 776 q 301 612 288 629 q 315 593 314 594 q 314 589 315 590 q 283 599 297 593 q 254 613 268 606 q 107 242 107 431 q 204 17 107 96 q 440 -56 293 -56 m 1064 1042 q 1047 1058 1056 1042 q 1034 1085 1036 1082 q 1032 1092 1032 1088 q 1104 1117 1032 1117 q 1143 1107 1143 1117 q 1142 1104 1143 1106 q 1104 1083 1128 1099 l 1072 1046 q 1064 1042 1068 1042 m 899 1042 q 882 1058 890 1042 q 869 1085 871 1082 q 867 1092 867 1088 q 939 1117 867 1117 q 978 1107 978 1117 q 976 1104 978 1106 q 939 1083 963 1099 l 907 1046 q 899 1042 903 1042 z "},"Ȫ":{"ha":1296,"x_min":47,"x_max":1333,"o":"m 456 -97 q 326 -85 383 -97 q 125 35 200 -57 q 47 258 47 129 q 91 453 47 354 q 215 640 135 551 q 165 750 165 686 q 267 913 165 844 q 558 985 376 985 q 706 978 633 985 q 846 957 778 971 q 918 965 885 963 q 979 968 951 968 q 1119 932 1083 968 q 1149 889 1149 901 q 1143 883 1149 883 q 1113 896 1132 883 q 996 915 1075 922 q 1257 729 1169 850 q 1333 494 1333 624 q 1243 229 1333 344 q 881 -14 1125 81 q 456 -97 663 -97 m 256 682 q 477 840 354 776 q 746 939 600 904 q 683 944 714 942 q 619 946 651 946 q 592 946 606 946 q 563 944 578 946 q 238 758 238 932 q 256 682 238 719 m 440 -56 q 842 35 624 -56 q 1149 244 1060 126 q 1260 535 1260 393 q 1157 775 1260 672 q 860 921 1051 879 q 708 899 783 918 q 560 849 633 881 q 278 643 394 776 q 301 612 288 629 q 315 593 314 594 q 314 589 315 590 q 283 599 297 593 q 254 613 268 606 q 107 242 107 431 q 204 17 107 96 q 440 -56 293 -56 m 1064 1042 q 1047 1058 1056 1042 q 1034 1085 1036 1082 q 1032 1092 1032 1088 q 1104 1117 1032 1117 q 1143 1107 1143 1117 q 1142 1104 1143 1106 q 1104 1083 1128 1099 l 1072 1046 q 1064 1042 1068 1042 m 899 1042 q 882 1058 890 1042 q 869 1085 871 1082 q 867 1092 867 1088 q 939 1117 867 1117 q 978 1107 978 1117 q 976 1104 978 1106 q 939 1083 963 1099 l 907 1046 q 899 1042 903 1042 m 894 1185 q 875 1186 876 1185 q 867 1207 869 1193 q 869 1226 864 1225 q 976 1236 882 1236 q 1141 1231 1096 1236 q 1186 1215 1186 1226 q 1184 1212 1185 1214 q 1181 1208 1183 1210 q 1140 1199 1178 1204 q 999 1189 1101 1194 q 894 1185 924 1185 z "},"Ȱ":{"ha":1296,"x_min":47,"x_max":1333,"o":"m 456 -97 q 326 -85 383 -97 q 125 35 200 -57 q 47 258 47 129 q 91 453 47 354 q 215 640 135 551 q 165 750 165 686 q 267 913 165 844 q 558 985 376 985 q 706 978 633 985 q 846 957 778 971 q 918 965 885 963 q 979 968 951 968 q 1119 932 1083 968 q 1149 889 1149 901 q 1143 883 1149 883 q 1113 896 1132 883 q 996 915 1075 922 q 1257 729 1169 850 q 1333 494 1333 624 q 1243 229 1333 344 q 881 -14 1125 81 q 456 -97 663 -97 m 256 682 q 477 840 354 776 q 746 939 600 904 q 683 944 714 942 q 619 946 651 946 q 592 946 606 946 q 563 944 578 946 q 238 758 238 932 q 256 682 238 719 m 440 -56 q 842 35 624 -56 q 1149 244 1060 126 q 1260 535 1260 393 q 1157 775 1260 672 q 860 921 1051 879 q 708 899 783 918 q 560 849 633 881 q 278 643 394 776 q 301 612 288 629 q 315 593 314 594 q 314 589 315 590 q 283 599 297 593 q 254 613 268 606 q 107 242 107 431 q 204 17 107 96 q 440 -56 293 -56 m 990 1039 q 953 1044 974 1038 q 933 1061 932 1051 q 949 1088 938 1072 q 972 1117 968 1111 q 985 1122 975 1122 q 1024 1099 1004 1122 q 1024 1097 1024 1097 q 1025 1094 1025 1096 q 1013 1065 1025 1086 q 990 1039 996 1039 m 868 1190 q 849 1192 850 1190 q 840 1213 843 1199 q 843 1232 838 1231 q 950 1242 856 1242 q 1115 1237 1069 1242 q 1160 1221 1160 1232 q 1158 1217 1158 1219 q 1154 1214 1157 1215 q 1113 1205 1151 1210 q 972 1194 1075 1200 q 868 1190 897 1190 z "},"Ọ":{"ha":1296,"x_min":47,"x_max":1333,"o":"m 456 -97 q 326 -85 383 -97 q 125 35 200 -57 q 47 258 47 129 q 91 453 47 354 q 215 640 135 551 q 165 750 165 686 q 267 913 165 844 q 558 985 376 985 q 706 978 633 985 q 846 957 778 971 q 918 965 885 963 q 979 968 951 968 q 1119 932 1083 968 q 1149 889 1149 901 q 1143 883 1149 883 q 1113 896 1132 883 q 996 915 1075 922 q 1257 729 1169 850 q 1333 494 1333 624 q 1243 229 1333 344 q 881 -14 1125 81 q 456 -97 663 -97 m 256 682 q 477 840 354 776 q 746 939 600 904 q 683 944 714 942 q 619 946 651 946 q 592 946 606 946 q 563 944 578 946 q 238 758 238 932 q 256 682 238 719 m 440 -56 q 842 35 624 -56 q 1149 244 1060 126 q 1260 535 1260 393 q 1157 775 1260 672 q 860 921 1051 879 q 708 899 783 918 q 560 849 633 881 q 278 643 394 776 q 301 612 288 629 q 315 593 314 594 q 314 589 315 590 q 283 599 297 593 q 254 613 268 606 q 107 242 107 431 q 204 17 107 96 q 440 -56 293 -56 m 261 -250 q 229 -245 247 -251 q 213 -231 211 -239 q 218 -220 215 -226 q 225 -208 221 -214 q 245 -184 242 -189 q 256 -179 249 -179 q 289 -199 272 -179 q 290 -200 289 -200 q 290 -201 290 -200 q 279 -226 290 -207 q 261 -250 267 -250 z "},"Ò":{"ha":1296,"x_min":47,"x_max":1333,"o":"m 456 -97 q 326 -85 383 -97 q 125 35 200 -57 q 47 258 47 129 q 91 453 47 354 q 215 640 135 551 q 165 750 165 686 q 267 913 165 844 q 558 985 376 985 q 706 978 633 985 q 846 957 778 971 q 918 965 885 963 q 979 968 951 968 q 1119 932 1083 968 q 1149 889 1149 901 q 1143 883 1149 883 q 1113 896 1132 883 q 996 915 1075 922 q 1257 729 1169 850 q 1333 494 1333 624 q 1243 229 1333 344 q 881 -14 1125 81 q 456 -97 663 -97 m 256 682 q 477 840 354 776 q 746 939 600 904 q 683 944 714 942 q 619 946 651 946 q 592 946 606 946 q 563 944 578 946 q 238 758 238 932 q 256 682 238 719 m 440 -56 q 842 35 624 -56 q 1149 244 1060 126 q 1260 535 1260 393 q 1157 775 1260 672 q 860 921 1051 879 q 708 899 783 918 q 560 849 633 881 q 278 643 394 776 q 301 612 288 629 q 315 593 314 594 q 314 589 315 590 q 283 599 297 593 q 254 613 268 606 q 107 242 107 431 q 204 17 107 96 q 440 -56 293 -56 m 1064 1042 q 1031 1050 1056 1042 q 968 1083 1004 1061 q 899 1128 932 1106 q 893 1138 896 1132 q 901 1160 893 1149 q 918 1172 910 1171 q 928 1167 924 1172 q 978 1122 944 1149 q 1044 1069 1011 1094 q 1068 1044 1068 1050 q 1064 1042 1068 1042 z "}}}
